{"glyphs":{"0":{"ha":882,"x_min":0,"x_max":0,"o":"m 442 -19 b 822 479 710 -19 822 204 b 442 979 822 754 710 979 b 60 479 174 979 60 754 b 442 -19 60 204 174 -19 z m 217 479 b 442 850 217 676 268 850 b 665 479 614 850 665 676 b 442 110 665 282 614 110 b 217 479 268 110 217 282 z "},"1":{"ha":474,"x_min":0,"x_max":0,"o":"m 219 713 l 219 0 l 369 0 l 369 960 l 250 960 b 18 789 238 844 188 793 l 18 667 b 219 713 104 667 178 674 z "},"2":{"ha":790,"x_min":0,"x_max":0,"o":"m 39 0 l 721 0 l 721 129 l 232 129 l 232 132 b 443 325 260 217 349 269 b 732 692 581 410 732 506 b 418 979 732 875 592 979 b 64 621 175 979 64 825 l 217 621 b 414 850 217 753 264 850 b 576 686 544 850 576 765 b 332 419 576 558 494 518 b 39 0 149 306 39 181 z "},"3":{"ha":836,"x_min":0,"x_max":0,"o":"m 431 -19 b 779 271 642 -19 779 85 b 601 507 779 383 728 467 l 601 510 b 746 715 693 549 746 613 b 428 979 746 885 599 979 b 71 671 192 979 71 849 l 224 671 b 426 850 224 764 264 850 b 590 708 544 850 590 783 b 426 561 590 604 522 561 l 342 561 l 342 438 l 432 438 b 624 274 529 438 624 406 b 421 110 624 171 572 110 b 197 328 253 110 197 196 l 44 328 b 431 -19 44 108 183 -19 z "},"4":{"ha":819,"x_min":0,"x_max":0,"o":"m 493 0 l 643 0 l 643 219 l 778 219 l 778 349 l 643 349 l 643 960 l 493 960 l 36 358 l 36 219 l 493 219 z m 175 349 l 493 767 l 493 349 z "},"5":{"ha":807,"x_min":0,"x_max":0,"o":"m 407 -19 b 757 328 604 -19 757 115 b 449 646 757 511 631 646 b 225 563 346 646 275 614 l 225 565 l 278 831 l 708 831 l 708 960 l 163 960 l 60 438 l 214 438 b 408 524 260 497 331 524 b 601 328 528 524 601 463 b 399 110 601 185 521 110 b 200 281 260 110 210 193 l 47 281 b 407 -19 53 119 178 -19 z "},"6":{"ha":832,"x_min":0,"x_max":0,"o":"m 435 -19 b 778 314 647 -19 778 128 b 463 633 778 503 649 633 b 215 507 353 633 265 588 l 211 508 l 211 522 b 436 854 211 688 257 854 b 597 717 539 854 585 796 l 751 717 b 436 979 735 860 617 979 b 61 478 199 979 61 793 b 435 -19 61 185 160 -19 z m 228 303 b 440 507 228 424 308 507 b 625 306 551 507 625 432 b 431 106 625 185 557 106 b 228 303 300 106 228 186 z "},"7":{"ha":719,"x_min":0,"x_max":0,"o":"m 157 0 l 315 0 b 689 844 315 307 471 663 l 689 960 l 14 960 l 14 831 l 525 831 l 525 828 b 157 0 354 676 157 318 z "},"8":{"ha":843,"x_min":0,"x_max":0,"o":"m 421 -19 b 790 271 631 -19 790 76 b 611 510 790 403 701 469 l 611 513 b 743 718 678 549 743 610 b 421 979 743 883 608 979 b 100 718 235 979 100 883 b 232 513 100 610 164 549 l 232 510 b 53 271 140 469 53 403 b 421 -19 53 76 213 -19 z m 208 279 b 421 450 208 386 288 450 b 633 279 554 450 633 386 b 421 106 633 169 554 106 b 208 279 288 106 208 169 z m 250 713 b 421 857 250 808 314 857 b 593 713 529 857 593 808 b 421 569 593 615 529 569 b 250 713 314 569 250 615 z "},"9":{"ha":835,"x_min":0,"x_max":0,"o":"m 396 -19 b 772 482 635 -19 772 167 b 399 979 772 775 674 979 b 56 646 185 979 56 832 b 371 326 56 457 185 326 b 618 453 479 326 568 372 l 622 451 l 622 438 b 397 106 622 272 575 106 b 236 243 294 106 247 164 l 81 243 b 396 -19 99 100 217 -19 z m 208 654 b 401 854 208 775 276 854 b 606 657 533 854 606 774 b 393 453 606 536 524 453 b 208 654 282 453 208 528 z "},"\r":{"ha":290,"x_min":0,"x_max":0,"o":""}," ":{"ha":290,"x_min":0,"x_max":0,"o":""},"!":{"ha":311,"x_min":0,"x_max":0,"o":"m 81 0 l 232 0 l 232 151 l 81 151 z m 81 724 l 117 271 l 196 271 l 231 724 l 231 993 l 81 993 z "},"\"":{"ha":464,"x_min":0,"x_max":0,"o":"m 75 646 l 171 646 l 188 993 l 58 993 z m 278 993 l 294 646 l 390 646 l 407 993 z "},"#":{"ha":801,"x_min":0,"x_max":0,"o":"m 379 0 l 492 0 l 546 269 l 697 269 l 717 382 l 568 382 l 610 586 l 744 586 l 767 700 l 632 700 l 685 960 l 571 960 l 519 700 l 361 700 l 414 960 l 301 960 l 249 700 l 107 700 l 85 586 l 226 586 l 185 382 l 57 382 l 36 269 l 163 269 l 108 0 l 221 0 l 275 269 l 433 269 z m 297 382 l 339 586 l 496 586 l 456 382 z "},"$":{"ha":838,"x_min":0,"x_max":0,"o":"m 386 -140 l 469 -140 l 469 -19 b 792 251 685 -11 792 106 b 469 547 792 443 660 492 l 469 843 b 625 661 560 825 613 765 l 767 661 b 469 967 756 840 638 946 l 469 1069 l 386 1069 l 386 971 b 75 704 194 964 75 861 b 382 439 75 538 238 478 b 386 438 383 439 385 438 l 386 106 b 178 317 258 122 189 196 l 36 317 b 386 -17 46 115 193 3 z m 218 718 b 386 849 218 796 283 843 l 386 572 b 218 718 286 604 218 636 z m 469 101 l 469 414 b 649 247 590 376 649 339 b 469 101 649 167 601 108 z "},"%":{"ha":1161,"x_min":0,"x_max":0,"o":"m 254 0 l 374 0 l 907 960 l 788 960 z m 29 704 b 269 428 29 550 111 428 b 508 704 429 428 508 550 b 269 979 508 857 426 979 b 29 704 108 979 29 857 z m 156 704 b 269 876 156 810 192 876 b 382 704 346 876 382 810 b 269 532 382 599 346 532 b 156 704 192 532 156 599 z m 654 256 b 893 -19 654 103 735 -19 b 1132 256 1053 -19 1132 103 b 893 532 1132 410 1051 532 b 654 256 733 532 654 410 z m 779 256 b 893 428 779 361 817 428 b 1007 256 969 428 1007 361 b 893 83 1007 150 969 83 b 779 256 817 83 779 150 z "},"&":{"ha":864,"x_min":0,"x_max":0,"o":"m 349 -19 b 633 89 469 -19 563 24 l 706 0 l 871 0 l 714 188 b 817 486 771 279 803 386 l 686 486 b 628 293 675 419 657 351 l 440 518 b 649 779 569 596 649 660 b 401 1013 649 906 560 1014 b 153 778 236 1013 153 896 b 268 535 153 688 200 619 b 40 242 154 469 40 392 b 349 -19 40 93 151 -19 z m 181 260 b 332 456 181 340 239 399 l 551 188 b 360 110 503 140 440 110 b 181 260 244 110 181 172 z m 286 776 b 401 892 286 836 326 892 b 515 769 474 892 515 838 b 375 596 515 700 468 651 b 286 776 324 661 286 718 z "},"'":{"ha":246,"x_min":0,"x_max":0,"o":"m 75 646 l 171 646 l 188 993 l 58 993 z "},"(":{"ha":381,"x_min":0,"x_max":0,"o":"m 239 -169 l 358 -169 b 197 440 268 -1 197 189 b 358 1053 197 697 268 885 l 239 1053 b 46 440 135 913 46 700 b 239 -169 46 189 135 -29 z "},")":{"ha":381,"x_min":0,"x_max":0,"o":"m 22 -169 l 142 -169 b 335 444 246 -29 335 185 b 142 1053 335 696 246 913 l 22 1053 b 185 444 113 885 185 696 b 22 -169 185 188 113 -1 z "},"*":{"ha":624,"x_min":0,"x_max":0,"o":"m 199 521 l 313 674 l 426 521 l 507 578 l 393 724 l 569 776 l 538 864 l 363 810 l 364 993 l 261 993 l 261 810 l 86 864 l 54 776 l 231 724 l 118 578 z "},"+":{"ha":774,"x_min":0,"x_max":0,"o":"m 322 125 l 451 125 l 451 389 l 707 389 l 707 518 l 451 518 l 451 782 l 322 782 l 322 518 l 67 518 l 67 389 l 322 389 z "},",":{"ha":282,"x_min":0,"x_max":0,"o":"m 65 -114 l 65 -189 b 217 0 176 -161 217 -90 l 217 151 l 65 151 l 65 0 l 138 0 b 65 -114 139 -72 117 -99 z "},"-":{"ha":489,"x_min":0,"x_max":0,"o":"m 58 289 l 431 289 l 431 418 l 58 418 z "},".":{"ha":276,"x_min":0,"x_max":0,"o":"m 63 0 l 214 0 l 214 151 l 63 151 z "},"/":{"ha":546,"x_min":0,"x_max":0,"o":"m 17 0 l 143 0 l 528 993 l 401 993 z "},":":{"ha":290,"x_min":0,"x_max":0,"o":"m 69 425 l 221 425 l 221 576 l 69 576 z m 69 0 l 221 0 l 221 151 l 69 151 z "},";":{"ha":290,"x_min":0,"x_max":0,"o":"m 69 425 l 221 425 l 221 576 l 69 576 z m 69 -189 b 221 0 181 -161 221 -90 l 221 151 l 69 151 l 69 0 l 142 0 b 69 -114 143 -72 121 -99 z "},"<":{"ha":704,"x_min":0,"x_max":0,"o":"m 631 124 l 631 253 l 175 431 l 175 433 l 631 611 l 631 740 l 63 504 l 63 360 z "},"=":{"ha":765,"x_min":0,"x_max":0,"o":"m 69 281 l 696 281 l 696 410 l 69 410 z m 69 499 l 696 499 l 696 628 l 69 628 z "},">":{"ha":704,"x_min":0,"x_max":0,"o":"m 74 124 l 640 360 l 640 503 l 74 740 l 74 611 l 528 433 l 528 431 l 74 253 z "},"?":{"ha":696,"x_min":0,"x_max":0,"o":"m 239 0 l 390 0 l 390 151 l 239 151 z m 21 669 l 172 669 b 364 883 172 826 256 883 b 522 751 467 883 522 832 b 400 576 522 665 472 632 b 242 271 311 508 242 451 l 381 271 b 525 522 381 428 443 461 b 672 751 606 583 672 636 b 361 1013 672 907 549 1013 b 21 669 138 1013 21 865 z "},"@":{"ha":1215,"x_min":0,"x_max":0,"o":"m 603 -147 b 886 -87 704 -147 799 -135 l 849 -1 b 603 -44 767 -35 685 -44 b 150 408 333 -44 150 139 b 619 888 150 661 328 888 b 1064 450 889 888 1064 710 b 928 214 1064 294 1010 214 b 844 360 860 214 832 267 l 889 708 l 772 708 l 758 604 l 756 604 b 569 718 731 665 660 718 b 310 400 426 718 310 593 b 542 115 310 219 413 115 b 735 226 639 115 700 160 l 738 226 b 914 111 771 153 825 111 b 1171 453 1031 111 1171 196 b 617 990 1171 750 961 990 b 40 408 272 990 40 731 b 603 -147 40 74 261 -147 z m 428 396 b 593 608 428 517 485 608 b 731 438 671 608 731 551 b 567 225 731 321 674 225 b 428 396 469 225 428 297 z "},"A":{"ha":917,"x_min":0,"x_max":0,"o":"m 6 0 l 167 0 l 249 239 l 664 239 l 746 0 l 913 0 l 540 993 l 375 993 z m 294 368 l 456 851 l 458 851 l 621 368 z "},"B":{"ha":926,"x_min":0,"x_max":0,"o":"m 99 0 l 542 0 b 879 290 747 0 879 100 b 686 533 879 439 790 515 l 686 536 b 840 743 768 564 840 621 b 517 993 840 901 721 993 l 99 993 z m 251 132 l 251 460 l 551 460 b 719 296 656 460 719 400 b 531 132 719 203 678 132 z m 251 581 l 251 861 l 524 861 b 681 721 628 861 681 808 b 513 581 681 632 638 581 z "},"C":{"ha":981,"x_min":0,"x_max":0,"o":"m 514 -19 b 942 361 764 -19 919 140 l 782 361 b 513 113 772 240 704 113 b 210 497 293 113 210 299 b 513 881 210 694 293 881 b 782 656 703 881 764 753 l 942 656 b 515 1013 918 854 764 1013 b 50 496 233 1013 50 796 b 514 -19 50 197 232 -19 z "},"D":{"ha":971,"x_min":0,"x_max":0,"o":"m 99 0 l 479 0 b 918 496 754 0 918 176 b 476 993 918 815 751 993 l 99 993 z m 251 132 l 251 861 l 469 861 b 760 496 700 861 760 688 b 469 132 760 304 700 132 z "},"E":{"ha":860,"x_min":0,"x_max":0,"o":"m 99 0 l 815 0 l 815 132 l 251 132 l 251 447 l 733 447 l 733 579 l 251 579 l 251 861 l 801 861 l 801 993 l 99 993 z "},"F":{"ha":811,"x_min":0,"x_max":0,"o":"m 99 0 l 251 0 l 251 431 l 685 431 l 685 563 l 251 563 l 251 861 l 788 861 l 788 993 l 99 993 z "},"G":{"ha":1024,"x_min":0,"x_max":0,"o":"m 499 -19 b 813 138 650 -19 743 36 l 815 138 l 853 0 l 958 0 l 958 519 l 510 519 l 510 392 l 803 392 b 507 113 801 226 671 113 b 211 497 275 113 211 310 b 515 881 211 683 296 881 b 782 686 663 881 756 811 l 942 686 b 517 1013 910 875 774 1013 b 51 497 233 1013 51 796 b 499 -19 51 197 213 -19 z "},"H":{"ha":990,"x_min":0,"x_max":0,"o":"m 99 0 l 251 0 l 251 446 l 739 446 l 739 0 l 893 0 l 893 993 l 739 993 l 739 578 l 251 578 l 251 993 l 99 993 z "},"I":{"ha":350,"x_min":0,"x_max":0,"o":"m 99 0 l 251 0 l 251 993 l 99 993 z "},"J":{"ha":719,"x_min":0,"x_max":0,"o":"m 325 -19 b 626 310 560 -19 626 142 l 626 993 l 474 993 l 474 310 b 322 113 474 196 451 113 b 172 310 192 113 172 196 l 172 350 l 25 350 l 25 310 b 325 -19 25 142 90 -19 z "},"K":{"ha":904,"x_min":0,"x_max":0,"o":"m 99 0 l 251 0 l 251 310 l 410 478 l 746 0 l 925 0 l 504 579 l 893 993 l 722 993 l 251 490 l 251 993 l 99 993 z "},"L":{"ha":775,"x_min":0,"x_max":0,"o":"m 99 0 l 754 0 l 754 132 l 251 132 l 251 993 l 99 993 z "},"M":{"ha":1176,"x_min":0,"x_max":0,"o":"m 99 0 l 249 0 l 249 771 l 251 771 l 525 0 l 651 0 l 925 771 l 928 771 l 928 0 l 1078 0 l 1078 993 l 876 993 l 589 213 l 586 213 l 300 993 l 99 993 z "},"N":{"ha":990,"x_min":0,"x_max":0,"o":"m 99 0 l 251 0 l 251 764 l 254 764 l 717 0 l 892 0 l 892 993 l 738 993 l 738 229 l 735 229 l 274 993 l 99 993 z "},"O":{"ha":1075,"x_min":0,"x_max":0,"o":"m 538 -19 b 1025 497 835 -19 1025 199 b 538 1013 1025 796 835 1013 b 50 497 240 1013 50 796 b 538 -19 50 199 240 -19 z m 210 497 b 538 881 210 701 303 881 b 865 497 772 881 865 701 b 538 113 865 293 772 113 b 210 497 303 113 210 293 z "},"P":{"ha":867,"x_min":0,"x_max":0,"o":"m 99 0 l 251 0 l 251 403 l 513 403 b 838 697 700 403 838 489 b 513 993 838 906 700 993 l 99 993 z m 251 535 l 251 861 l 506 861 b 679 697 621 861 679 810 b 506 535 679 586 621 535 z "},"Q":{"ha":1075,"x_min":0,"x_max":0,"o":"m 538 -19 b 818 63 647 -19 742 10 l 942 -62 l 1031 28 l 911 147 b 1025 497 985 238 1025 358 b 538 1013 1025 796 835 1013 b 50 497 240 1013 50 796 b 538 -19 50 199 240 -19 z m 210 497 b 538 881 210 701 303 881 b 865 497 772 881 865 701 b 806 253 865 407 847 321 l 678 382 l 589 292 l 718 161 b 538 113 671 131 611 113 b 210 497 303 113 210 293 z "},"R":{"ha":911,"x_min":0,"x_max":0,"o":"m 99 0 l 251 0 l 251 389 l 507 389 b 700 0 750 389 656 42 l 864 0 l 864 10 b 664 461 810 26 894 418 l 664 464 b 850 707 774 489 850 581 b 513 993 850 890 732 993 l 99 993 z m 251 521 l 251 861 l 482 861 b 696 696 635 861 696 803 b 479 521 696 582 619 521 z "},"S":{"ha":878,"x_min":0,"x_max":0,"o":"m 472 -19 b 836 279 721 -19 836 108 b 464 583 836 489 656 535 b 232 750 336 615 232 639 b 421 882 232 836 296 882 b 650 697 565 882 633 817 l 808 697 b 419 1013 793 897 646 1013 b 72 742 206 1013 72 914 b 399 461 72 553 243 503 b 676 271 579 415 676 397 b 468 111 676 181 628 111 b 192 335 282 111 203 201 l 33 335 b 472 -19 44 111 221 -19 z "},"T":{"ha":838,"x_min":0,"x_max":0,"o":"m 342 0 l 496 0 l 496 861 l 817 861 l 817 993 l 21 993 l 21 861 l 342 861 z "},"U":{"ha":960,"x_min":0,"x_max":0,"o":"m 479 -19 b 868 338 753 -19 868 124 l 868 993 l 714 993 l 714 338 b 479 113 714 183 638 113 b 244 338 322 113 244 183 l 244 993 l 92 993 l 92 338 b 479 -19 92 124 207 -19 z "},"V":{"ha":881,"x_min":0,"x_max":0,"o":"m 360 0 l 525 0 l 867 993 l 706 993 l 443 161 l 442 161 l 178 993 l 10 993 z "},"W":{"ha":1288,"x_min":0,"x_max":0,"o":"m 267 0 l 432 0 l 642 799 l 644 799 l 856 0 l 1019 0 l 1268 993 l 1108 993 l 933 211 l 931 211 l 724 993 l 563 993 l 357 211 l 354 211 l 179 993 l 19 993 z "},"X":{"ha":835,"x_min":0,"x_max":0,"o":"m -6 0 l 174 0 l 414 396 l 415 396 l 658 0 l 836 0 l 507 510 l 819 993 l 651 993 l 419 618 l 418 618 l 188 993 l 18 993 l 331 507 z "},"Y":{"ha":885,"x_min":0,"x_max":0,"o":"m 365 0 l 519 0 l 519 397 l 875 993 l 711 993 l 444 518 l 442 518 l 175 993 l 10 993 l 365 397 z "},"Z":{"ha":840,"x_min":0,"x_max":0,"o":"m 31 0 l 803 0 l 803 132 l 218 132 l 218 135 l 789 861 l 789 993 l 58 993 l 58 861 l 601 861 l 601 858 l 31 132 z "},"[":{"ha":419,"x_min":0,"x_max":0,"o":"m 90 -169 l 390 -169 l 390 -40 l 240 -40 l 240 924 l 390 924 l 390 1053 l 90 1053 z "},"\\":{"ha":546,"x_min":0,"x_max":0,"o":"m 403 0 l 529 0 l 144 993 l 18 993 z "},"]":{"ha":419,"x_min":0,"x_max":0,"o":"m 29 -169 l 329 -169 l 329 1053 l 29 1053 l 29 924 l 179 924 l 179 -40 l 29 -40 z "},"^":{"ha":661,"x_min":0,"x_max":0,"o":"m 28 611 l 172 611 l 329 871 l 331 871 l 490 611 l 633 611 l 393 993 l 269 993 z "},"_":{"ha":793,"x_min":0,"x_max":0,"o":"m 35 -211 l 757 -211 l 757 -82 l 35 -82 z "},"`":{"ha":329,"x_min":0,"x_max":0,"o":"m 167 815 l 274 815 l 203 1007 l 50 1007 z "},"a":{"ha":738,"x_min":0,"x_max":0,"o":"m 272 -19 b 514 100 388 -19 468 26 l 517 100 b 629 -7 525 19 561 -7 b 699 1 651 -7 675 -4 l 699 85 b 682 83 690 83 686 83 b 649 161 656 83 649 110 l 649 486 b 386 731 649 669 532 731 b 74 488 169 731 81 624 l 213 488 b 381 621 219 582 257 621 b 515 526 485 621 515 578 b 336 422 515 457 447 443 b 40 183 160 389 40 342 b 272 -19 40 63 131 -19 z m 182 193 b 360 326 182 267 235 301 b 515 378 432 342 493 357 l 515 276 b 303 90 515 153 425 90 b 182 193 218 90 182 126 z "},"b":{"ha":792,"x_min":0,"x_max":0,"o":"m 433 -19 b 751 354 614 -19 751 121 b 433 729 751 588 614 729 b 215 625 322 729 254 675 l 213 625 l 213 993 l 76 993 l 76 0 l 213 0 l 213 88 l 215 88 b 433 -19 254 31 322 -19 z m 214 354 b 411 615 214 515 289 615 b 608 354 544 615 608 493 b 411 93 608 215 544 93 b 214 354 289 93 214 194 z "},"c":{"ha":738,"x_min":0,"x_max":0,"o":"m 388 -21 b 706 263 569 -21 696 100 l 565 263 b 388 93 558 182 518 93 b 181 354 236 93 181 221 b 388 617 181 488 236 617 b 565 451 517 617 558 525 l 706 451 b 386 729 689 611 568 729 b 39 354 176 729 39 576 b 388 -21 39 132 176 -21 z "},"d":{"ha":792,"x_min":0,"x_max":0,"o":"m 358 -19 b 576 83 469 -19 538 33 l 579 83 l 579 0 l 715 0 l 715 993 l 579 993 l 579 622 l 576 622 b 358 729 538 678 469 729 b 40 354 178 729 40 588 b 358 -19 40 121 178 -19 z m 182 354 b 381 615 182 493 247 615 b 578 354 503 615 578 515 b 381 93 578 194 503 93 b 182 354 247 93 182 215 z "},"e":{"ha":765,"x_min":0,"x_max":0,"o":"m 390 -21 b 718 218 576 -21 681 82 l 579 218 b 393 90 567 171 518 90 b 181 318 253 90 183 200 l 725 318 b 726 369 726 329 726 350 b 390 731 726 589 606 731 b 40 356 174 731 40 578 b 390 -21 40 139 165 -21 z m 181 425 b 386 619 189 542 272 619 b 585 425 507 619 585 536 z "},"f":{"ha":406,"x_min":0,"x_max":0,"o":"m 126 794 l 126 708 l 29 708 l 29 596 l 126 596 l 126 0 l 264 0 l 264 596 l 396 596 l 396 708 l 264 708 l 264 797 b 338 889 264 872 281 889 b 396 885 357 889 368 888 l 396 994 b 310 1003 357 1000 336 1003 b 126 794 194 1003 126 958 z "},"g":{"ha":788,"x_min":0,"x_max":0,"o":"m 381 -254 b 713 56 583 -254 713 -158 l 713 708 l 576 708 l 576 625 l 574 625 b 356 729 535 675 469 729 b 43 382 179 729 43 610 b 356 36 43 156 179 36 b 574 143 469 36 535 86 l 576 143 l 576 47 b 381 -143 576 -86 510 -143 b 204 -29 265 -143 218 -93 l 63 -29 b 381 -254 76 -157 178 -254 z m 185 382 b 381 615 185 515 247 615 b 575 382 503 615 575 538 b 381 149 575 228 503 149 b 185 382 247 149 185 249 z "},"h":{"ha":756,"x_min":0,"x_max":0,"o":"m 549 454 l 549 0 l 685 0 l 685 492 b 449 729 685 654 579 729 b 215 619 326 729 253 674 l 213 619 l 213 993 l 76 993 l 76 0 l 213 0 l 213 435 b 404 613 213 542 288 613 b 549 454 507 613 549 549 z "},"i":{"ha":289,"x_min":0,"x_max":0,"o":"m 76 0 l 213 0 l 213 708 l 76 708 z m 68 835 l 222 835 l 222 982 l 68 982 z "},"j":{"ha":289,"x_min":0,"x_max":0,"o":"m 43 -251 b 213 -37 143 -251 213 -189 l 213 708 l 76 708 l 76 -32 b 13 -135 76 -111 56 -135 b -42 -131 -8 -135 -19 -133 l -42 -243 b 43 -251 -7 -249 14 -251 z m 68 835 l 222 835 l 222 982 l 68 982 z "},"k":{"ha":688,"x_min":0,"x_max":0,"o":"m 76 0 l 213 0 l 213 264 l 315 363 l 547 0 l 708 0 l 407 449 l 679 708 l 522 708 l 213 408 l 213 993 l 76 993 z "},"l":{"ha":289,"x_min":0,"x_max":0,"o":"m 76 0 l 213 0 l 213 993 l 76 993 z "},"m":{"ha":1135,"x_min":0,"x_max":0,"o":"m 501 454 l 501 0 l 638 0 l 638 435 b 803 613 638 542 701 613 b 926 454 907 613 926 549 l 926 0 l 1063 0 l 1063 492 b 847 729 1063 643 990 729 b 615 606 739 729 667 674 l 613 606 b 425 729 585 685 524 729 b 215 619 318 729 253 674 l 213 619 l 213 708 l 76 708 l 76 0 l 213 0 l 213 435 b 378 613 213 542 276 613 b 501 454 482 613 501 549 z "},"n":{"ha":756,"x_min":0,"x_max":0,"o":"m 549 454 l 549 0 l 685 0 l 685 492 b 449 729 685 654 579 729 b 215 619 326 729 253 674 l 213 619 l 213 708 l 76 708 l 76 0 l 213 0 l 213 435 b 404 613 213 542 288 613 b 549 454 507 613 549 549 z "},"o":{"ha":786,"x_min":0,"x_max":0,"o":"m 393 -21 b 747 356 614 -21 747 133 b 394 731 747 576 614 731 b 39 354 172 731 39 575 b 393 -21 39 132 172 -21 z m 181 354 b 394 617 181 503 247 617 b 606 354 539 617 606 503 b 394 92 606 207 539 92 b 181 354 247 92 181 207 z "},"p":{"ha":792,"x_min":0,"x_max":0,"o":"m 433 -19 b 751 354 614 -19 751 121 b 433 729 751 588 614 729 b 215 625 322 729 254 675 l 213 625 l 213 708 l 76 708 l 76 -246 l 213 -246 l 213 88 l 215 88 b 433 -19 254 31 322 -19 z m 214 354 b 411 615 214 515 289 615 b 608 354 544 615 608 493 b 411 93 608 215 544 93 b 214 354 289 93 214 194 z "},"q":{"ha":790,"x_min":0,"x_max":0,"o":"m 358 -19 b 576 83 469 -19 538 33 l 579 83 l 579 -246 l 715 -246 l 715 708 l 579 708 l 579 622 l 576 622 b 358 729 538 678 469 729 b 40 354 178 729 40 588 b 358 -19 40 121 178 -19 z m 182 354 b 381 615 182 493 247 615 b 578 354 503 615 578 515 b 381 93 578 194 503 93 b 182 354 247 93 182 215 z "},"r":{"ha":483,"x_min":0,"x_max":0,"o":"m 213 367 b 425 594 213 501 301 594 b 471 590 442 594 454 593 l 471 721 b 406 725 450 724 431 725 b 215 574 310 725 253 663 l 213 574 l 213 708 l 76 708 l 76 0 l 213 0 z "},"s":{"ha":678,"x_min":0,"x_max":0,"o":"m 356 -19 b 647 201 542 -19 647 64 b 375 428 647 360 506 397 b 196 531 275 450 196 457 b 326 619 196 583 235 619 b 483 503 444 619 474 557 l 621 503 b 324 729 611 625 518 729 b 54 525 153 729 54 647 b 319 313 54 378 196 342 b 506 194 411 293 506 283 b 354 90 506 143 474 90 b 167 236 222 90 172 154 l 29 236 b 356 -19 33 92 140 -19 z "},"t":{"ha":432,"x_min":0,"x_max":0,"o":"m 310 -8 b 396 0 339 -8 361 -7 l 396 110 b 338 104 372 106 361 104 b 258 196 279 104 258 121 l 258 596 l 394 596 l 394 708 l 258 708 l 258 936 l 122 936 l 122 708 l 19 708 l 19 596 l 122 596 l 122 200 b 310 -8 122 36 193 -8 z "},"u":{"ha":756,"x_min":0,"x_max":0,"o":"m 307 -19 b 540 89 429 -19 503 35 l 543 89 l 543 0 l 679 0 l 679 708 l 543 708 l 543 274 b 351 96 543 167 468 96 b 207 256 249 96 207 160 l 207 708 l 71 708 l 71 218 b 307 -19 71 56 176 -19 z "},"v":{"ha":678,"x_min":0,"x_max":0,"o":"m 263 0 l 415 0 l 668 708 l 526 708 l 343 140 l 342 140 l 156 708 l 10 708 z "},"w":{"ha":1053,"x_min":0,"x_max":0,"o":"m 232 0 l 372 0 l 525 546 l 528 546 l 681 0 l 821 0 l 1040 708 l 899 708 l 747 160 l 744 160 l 597 708 l 460 708 l 313 160 l 310 160 l 160 708 l 13 708 z "},"x":{"ha":676,"x_min":0,"x_max":0,"o":"m -11 0 l 147 0 l 335 271 l 338 271 l 529 0 l 689 0 l 419 363 l 663 708 l 507 708 l 340 456 l 338 456 l 168 708 l 13 708 l 256 363 z "},"y":{"ha":701,"x_min":0,"x_max":0,"o":"m 168 -249 b 414 -17 278 -249 346 -192 l 694 708 l 551 708 l 357 167 l 354 167 l 147 708 l -1 708 l 285 7 b 139 -132 257 -104 193 -132 b 81 -128 117 -132 104 -131 l 81 -239 b 168 -249 117 -246 138 -249 z "},"z":{"ha":642,"x_min":0,"x_max":0,"o":"m 26 0 l 614 0 l 614 113 l 201 113 l 201 115 l 599 621 l 599 708 l 51 708 l 51 596 l 414 596 l 414 593 l 26 101 z "},"{":{"ha":433,"x_min":0,"x_max":0,"o":"m 372 -169 l 401 -169 l 401 -40 l 372 -40 b 268 94 308 -40 268 -12 l 268 290 b 182 440 268 371 235 413 l 182 443 b 268 592 235 471 268 513 l 268 794 b 372 924 268 896 308 924 l 401 924 l 401 1053 l 372 1053 b 118 783 201 1053 118 1017 l 118 628 b 33 507 118 557 104 506 l 33 378 b 118 256 104 378 118 325 l 118 106 b 372 -169 118 -128 201 -169 z "},"|":{"ha":307,"x_min":0,"x_max":0,"o":"m 99 -181 l 208 -181 l 208 1036 l 99 1036 z "},"}":{"ha":433,"x_min":0,"x_max":0,"o":"m 32 -169 l 61 -169 b 315 100 232 -169 315 -133 l 315 257 b 399 378 315 328 329 379 l 399 507 b 315 629 329 507 315 560 l 315 778 b 61 1053 315 1011 232 1053 l 32 1053 l 32 924 l 61 924 b 165 789 125 924 165 896 l 165 594 b 250 444 165 514 199 472 l 250 442 b 165 293 199 414 165 372 l 165 89 b 61 -40 165 -12 125 -40 l 32 -40 z "},"~":{"ha":614,"x_min":0,"x_max":0,"o":"m 72 365 l 179 365 b 232 425 179 390 190 425 b 411 365 282 425 326 365 b 543 547 496 365 543 438 l 438 547 b 383 486 438 522 426 486 b 206 547 335 486 290 547 b 72 365 119 547 72 475 z "}," ":{"ha":290,"x_min":0,"x_max":0,"o":""},"¡":{"ha":308,"x_min":0,"x_max":0,"o":"m 79 -181 l 229 -181 l 229 89 l 193 542 l 114 542 l 79 89 z m 78 661 l 229 661 l 229 813 l 78 813 z "},"¢":{"ha":783,"x_min":0,"x_max":0,"o":"m 367 7 l 453 7 l 453 128 b 731 410 613 144 722 260 l 590 410 b 453 243 585 338 551 260 l 453 761 b 590 599 550 743 585 664 l 731 599 b 453 874 715 746 611 857 l 453 981 l 367 981 l 367 874 b 64 501 182 854 64 707 b 367 129 64 296 182 150 z m 206 501 b 367 760 206 621 250 736 l 367 244 b 206 501 250 268 206 382 z "},"£":{"ha":814,"x_min":0,"x_max":0,"o":"m 579 -19 b 779 64 668 -19 722 19 l 718 182 b 567 122 671 146 631 122 b 353 181 485 122 449 181 b 224 140 293 181 256 156 l 222 143 b 329 372 288 194 329 275 l 329 379 l 518 379 l 518 493 l 300 493 b 242 679 275 551 242 604 b 419 842 242 775 303 842 b 599 639 547 842 599 767 l 749 639 b 418 971 749 829 654 971 b 92 692 174 971 92 808 b 147 493 92 603 122 547 l 67 493 l 67 379 l 179 379 l 179 374 b 53 110 179 257 129 160 l 128 0 b 299 64 199 44 242 64 b 579 -19 396 64 450 -19 z "},"¤":{"ha":740,"x_min":0,"x_max":0,"o":"m 371 201 b 528 250 426 201 482 218 l 615 163 l 688 236 l 600 324 b 643 479 626 365 643 418 b 600 636 643 542 626 594 l 688 724 l 614 796 l 528 710 b 371 757 482 740 428 757 b 213 710 314 757 258 740 l 125 797 l 53 725 l 142 636 b 97 479 114 594 97 542 b 140 322 97 417 114 365 l 53 235 l 125 163 l 213 250 b 371 201 258 218 314 201 z m 221 479 b 371 654 221 594 282 654 b 519 479 458 654 519 594 b 371 306 519 364 458 306 b 221 479 282 306 221 364 z "},"¥":{"ha":847,"x_min":0,"x_max":0,"o":"m 349 0 l 499 0 l 499 174 l 739 174 l 739 258 l 499 258 l 499 339 l 739 339 l 739 424 l 519 424 l 815 953 l 651 953 l 425 513 l 422 513 l 196 953 l 32 953 l 328 424 l 108 424 l 108 339 l 349 339 l 349 258 l 108 258 l 108 174 l 349 174 z "},"¦":{"ha":307,"x_min":0,"x_max":0,"o":"m 99 -181 l 208 -181 l 208 340 l 99 340 z m 99 533 l 208 533 l 208 1036 l 99 1036 z "},"§":{"ha":840,"x_min":0,"x_max":0,"o":"m 424 -258 b 697 -33 610 -258 697 -158 b 639 119 697 33 675 81 b 781 306 726 146 781 208 b 517 581 781 443 665 500 l 443 619 b 279 792 360 664 279 697 b 417 893 279 849 313 893 b 564 761 547 893 558 819 l 700 761 b 417 1003 694 892 613 1003 b 142 778 231 1003 142 904 b 201 625 142 713 165 664 b 58 439 114 599 58 536 b 329 164 58 301 182 247 l 401 122 b 561 -47 483 76 561 40 b 424 -149 561 -104 528 -149 b 276 -15 306 -149 278 -82 l 140 -15 b 424 -258 146 -147 228 -258 z m 194 460 b 300 550 194 503 225 544 l 356 519 l 440 474 b 644 285 560 410 644 358 b 544 194 644 242 617 201 b 490 225 526 206 508 215 l 406 271 b 194 460 274 343 194 386 z "},"¨":{"ha":513,"x_min":0,"x_max":0,"o":"m 58 835 l 213 835 l 213 983 l 58 983 z m 292 835 l 446 835 l 446 983 l 292 983 z "},"©":{"ha":1171,"x_min":0,"x_max":0,"o":"m 586 -19 b 1104 496 904 -19 1104 179 b 586 1013 1104 814 904 1013 b 65 496 268 1013 65 814 b 586 -19 65 179 268 -19 z m 174 496 b 586 922 174 758 332 922 b 997 496 839 922 997 758 b 586 71 997 233 839 71 b 174 496 332 71 174 233 z m 301 496 b 597 185 301 313 411 185 b 858 413 756 185 850 286 l 742 413 b 590 292 736 371 707 292 b 422 496 461 292 422 386 b 590 701 422 607 461 701 b 742 582 707 701 736 618 l 858 582 b 586 808 844 707 747 808 b 301 496 406 808 301 678 z "},"ª":{"ha":614,"x_min":0,"x_max":0,"o":"m 219 415 b 403 507 303 415 368 454 l 407 507 b 501 424 414 451 439 424 b 568 433 521 424 542 426 l 568 507 l 554 507 b 526 557 531 507 526 526 l 526 803 b 314 1003 526 953 439 1003 b 65 808 143 1003 69 915 l 190 808 b 307 910 194 874 225 910 b 406 843 381 910 406 879 b 267 757 406 782 344 772 b 42 579 139 733 42 694 b 219 415 42 479 111 415 z m 172 586 b 292 679 172 636 218 664 b 406 719 354 693 389 704 l 406 650 b 261 515 406 567 346 515 b 172 586 201 515 172 540 z "},"«":{"ha":651,"x_min":0,"x_max":0,"o":"m 583 57 l 583 201 l 383 353 l 383 356 l 583 507 l 583 653 l 310 431 l 310 279 z m 60 279 l 333 57 l 333 201 l 133 353 l 133 356 l 333 507 l 333 653 l 60 431 z "},"¬":{"ha":715,"x_min":0,"x_max":0,"o":"m 486 197 l 633 197 l 633 563 l 54 563 l 54 433 l 486 433 z "},"­":{"ha":489,"x_min":0,"x_max":0,"o":"m 58 289 l 431 289 l 431 418 l 58 418 z "},"®":{"ha":792,"x_min":0,"x_max":0,"o":"m 396 343 b 726 679 581 343 726 486 b 396 1015 726 872 581 1015 b 65 679 211 1015 65 872 b 396 343 65 486 211 343 z m 131 679 b 396 958 131 842 243 958 b 661 679 549 958 661 842 b 396 400 661 517 549 400 b 131 679 243 400 131 517 z m 257 496 l 349 496 l 349 626 l 383 626 b 457 496 469 626 439 513 l 551 496 l 551 500 b 465 663 529 507 560 647 l 465 664 b 543 757 513 675 543 706 b 411 865 543 826 497 865 l 257 865 z m 349 700 l 349 796 l 386 796 b 456 749 424 796 456 789 b 386 700 456 708 424 700 z "},"¯":{"ha":478,"x_min":0,"x_max":0,"o":"m 56 835 l 422 835 l 422 942 l 56 942 z "},"°":{"ha":533,"x_min":0,"x_max":0,"o":"m 267 594 b 481 804 410 594 481 706 b 267 1013 481 901 410 1013 b 51 804 122 1013 51 901 b 267 594 51 706 122 594 z m 149 804 b 267 924 149 875 197 924 b 383 804 336 924 383 875 b 267 683 383 732 336 683 b 149 804 197 683 149 732 z "},"±":{"ha":774,"x_min":0,"x_max":0,"o":"m 322 164 l 451 164 l 451 428 l 707 428 l 707 557 l 451 557 l 451 821 l 322 821 l 322 557 l 67 557 l 67 428 l 322 428 z m 67 -8 l 707 -8 l 707 121 l 67 121 z "},"²":{"ha":494,"x_min":0,"x_max":0,"o":"m 28 504 l 451 504 l 451 604 l 201 604 l 201 606 b 300 694 219 639 258 665 b 454 913 376 749 454 804 b 257 1082 454 1021 375 1082 b 39 864 108 1082 39 988 l 158 864 b 253 982 158 942 188 982 b 329 904 308 982 329 947 b 163 725 329 821 244 785 b 28 504 72 658 28 607 z "},"³":{"ha":518,"x_min":0,"x_max":0,"o":"m 267 501 b 481 674 393 501 481 563 b 379 811 481 740 451 789 l 379 813 b 463 935 431 838 463 876 b 265 1092 463 1035 371 1092 b 46 906 124 1092 46 1013 l 165 906 b 258 992 165 960 194 992 b 338 919 311 992 338 965 b 247 850 338 871 304 850 l 213 850 l 213 761 l 250 761 b 354 679 311 761 354 740 b 258 601 354 631 326 601 b 150 711 178 601 150 642 l 29 711 b 267 501 29 578 114 501 z "},"´":{"ha":329,"x_min":0,"x_max":0,"o":"m 44 815 l 153 815 l 286 1007 l 126 1007 z "},"µ":{"ha":789,"x_min":0,"x_max":0,"o":"m 90 -246 l 226 -246 l 226 19 b 351 -18 260 -6 304 -18 b 560 89 451 -18 524 32 l 563 89 l 563 0 l 699 0 l 699 708 l 563 708 l 563 274 b 374 96 563 167 486 96 b 226 256 268 96 226 160 l 226 708 l 90 708 z "},"¶":{"ha":779,"x_min":0,"x_max":0,"o":"m 360 0 l 465 0 l 465 879 l 569 879 l 569 0 l 676 0 l 676 993 l 296 993 b 25 725 118 993 25 892 b 296 465 25 558 118 465 l 360 465 z "},"·":{"ha":289,"x_min":0,"x_max":0,"o":"m 69 272 l 221 272 l 221 424 l 69 424 z "},"¸":{"ha":414,"x_min":0,"x_max":0,"o":"m 210 -275 b 363 -167 288 -275 363 -243 b 225 -76 363 -90 285 -68 l 225 -74 l 288 0 l 211 0 l 125 -103 l 146 -133 b 201 -124 160 -128 185 -124 b 254 -165 235 -124 254 -135 b 186 -214 254 -194 231 -214 b 92 -193 150 -214 122 -206 l 60 -232 b 210 -275 97 -256 150 -275 z "},"¹":{"ha":326,"x_min":0,"x_max":0,"o":"m 138 894 l 138 506 l 263 506 l 263 1069 l 160 1069 b 18 971 158 1004 106 972 l 18 875 b 138 894 67 875 114 878 z "},"º":{"ha":636,"x_min":0,"x_max":0,"o":"m 318 415 b 599 710 493 415 599 538 b 319 1003 599 882 493 1003 b 38 710 144 1003 38 882 b 318 415 38 536 144 415 z m 165 710 b 318 900 165 818 213 900 b 471 710 422 900 471 818 b 318 518 471 600 424 518 b 165 710 213 518 165 600 z "},"»":{"ha":651,"x_min":0,"x_max":0,"o":"m 319 57 l 592 279 l 592 431 l 319 653 l 319 507 l 518 357 l 518 354 l 319 203 z m 69 57 l 342 279 l 342 431 l 69 653 l 69 507 l 268 357 l 268 354 l 69 203 z "},"¼":{"ha":1051,"x_min":0,"x_max":0,"o":"m 142 818 l 142 429 l 267 429 l 267 993 l 164 993 b 22 894 163 928 110 896 l 22 799 b 142 818 71 799 118 801 z m 94 0 l 238 0 l 867 993 l 724 993 z m 567 122 l 826 122 l 826 0 l 950 0 l 950 122 l 1031 122 l 1031 222 l 950 222 l 950 564 l 826 564 l 567 240 z m 664 222 l 826 425 l 826 222 z "},"½":{"ha":1119,"x_min":0,"x_max":0,"o":"m 143 818 l 143 429 l 268 429 l 268 993 l 165 993 b 24 894 164 928 111 896 l 24 799 b 143 818 72 799 119 801 z m 99 0 l 242 0 l 871 993 l 728 993 z m 649 0 l 1072 0 l 1072 100 l 822 100 l 822 101 b 921 190 840 135 879 161 b 1075 408 997 244 1075 300 b 878 578 1075 517 996 578 b 660 360 729 578 660 483 l 779 360 b 874 478 779 438 808 478 b 950 400 929 478 950 443 b 783 221 950 317 865 281 b 649 0 693 154 649 103 z "},"¾":{"ha":1263,"x_min":0,"x_max":0,"o":"m 278 418 b 492 590 404 418 492 479 b 390 728 492 657 463 706 l 390 729 b 474 851 442 754 474 793 b 276 1008 474 951 382 1008 b 57 822 135 1008 57 929 l 176 822 b 269 908 176 876 206 908 b 349 836 322 908 349 882 b 258 767 349 788 315 767 l 224 767 l 224 678 l 261 678 b 365 596 322 678 365 657 b 269 518 365 547 338 518 b 161 628 189 518 161 558 l 40 628 b 278 418 40 494 125 418 z m 299 0 l 442 0 l 1071 993 l 928 993 z m 771 122 l 1031 122 l 1031 0 l 1154 0 l 1154 122 l 1235 122 l 1235 222 l 1154 222 l 1154 564 l 1031 564 l 771 240 z m 868 222 l 1031 425 l 1031 222 z "},"¿":{"ha":697,"x_min":0,"x_max":0,"o":"m 335 -201 b 675 143 560 -201 675 -54 l 525 143 b 333 -72 525 -15 442 -72 b 175 61 231 -72 175 -19 b 297 235 175 146 225 179 b 456 542 386 304 456 361 l 317 542 b 172 290 317 385 254 351 b 25 61 90 229 25 176 b 335 -201 25 -94 149 -201 z m 307 661 l 458 661 l 458 813 l 307 813 z "},"À":{"ha":917,"x_min":0,"x_max":0,"o":"m 6 0 l 167 0 l 249 239 l 664 239 l 746 0 l 913 0 l 540 993 l 375 993 z m 282 1292 l 399 1100 l 506 1100 l 435 1292 z m 294 368 l 456 851 l 458 851 l 621 368 z "},"Á":{"ha":917,"x_min":0,"x_max":0,"o":"m 6 0 l 167 0 l 249 239 l 664 239 l 746 0 l 913 0 l 540 993 l 375 993 z m 294 368 l 456 851 l 458 851 l 621 368 z m 392 1100 l 500 1100 l 633 1292 l 474 1292 z "},"Â":{"ha":917,"x_min":0,"x_max":0,"o":"m 6 0 l 167 0 l 249 239 l 664 239 l 746 0 l 913 0 l 540 993 l 375 993 z m 251 1100 l 381 1100 l 456 1224 l 458 1224 l 532 1100 l 663 1100 l 531 1292 l 383 1292 z m 294 368 l 456 851 l 458 851 l 621 368 z "},"Ã":{"ha":917,"x_min":0,"x_max":0,"o":"m 6 0 l 167 0 l 249 239 l 664 239 l 746 0 l 913 0 l 540 993 l 375 993 z m 250 1108 l 342 1108 b 378 1157 342 1126 346 1157 b 551 1106 418 1157 482 1106 b 658 1253 608 1106 658 1146 l 567 1253 b 532 1204 567 1232 563 1204 b 357 1256 490 1204 428 1256 b 250 1108 300 1256 250 1213 z m 294 368 l 456 851 l 458 851 l 621 368 z "},"Ä":{"ha":917,"x_min":0,"x_max":0,"o":"m 6 0 l 167 0 l 249 239 l 664 239 l 746 0 l 913 0 l 540 993 l 375 993 z m 264 1119 l 418 1119 l 418 1267 l 264 1267 z m 294 368 l 456 851 l 458 851 l 621 368 z m 497 1119 l 651 1119 l 651 1267 l 497 1267 z "},"Å":{"ha":917,"x_min":0,"x_max":0,"o":"m 6 0 l 167 0 l 249 239 l 664 239 l 746 0 l 913 0 l 540 993 l 375 993 z m 294 368 l 456 851 l 458 851 l 621 368 z m 328 1183 b 456 1056 328 1107 383 1056 b 585 1183 531 1056 585 1107 b 456 1311 585 1260 531 1311 b 328 1183 383 1311 328 1260 z m 393 1183 b 456 1250 393 1222 419 1250 b 521 1183 494 1250 521 1222 b 456 1117 521 1143 494 1117 b 393 1183 419 1117 393 1143 z "},"Æ":{"ha":1361,"x_min":0,"x_max":0,"o":"m 6 0 l 163 0 l 244 239 l 600 239 l 600 0 l 1317 0 l 1317 132 l 753 132 l 753 447 l 1235 447 l 1235 579 l 753 579 l 753 861 l 1303 861 l 1303 993 l 374 993 z m 290 368 l 456 857 l 599 857 l 599 368 z "},"Ç":{"ha":981,"x_min":0,"x_max":0,"o":"m 485 -275 b 638 -167 563 -275 638 -243 b 500 -76 638 -90 560 -68 l 500 -74 l 547 -18 b 942 361 778 -6 921 150 l 782 361 b 513 113 772 240 704 113 b 210 497 293 113 210 299 b 513 881 210 694 293 881 b 782 656 703 881 764 753 l 942 656 b 515 1013 918 854 764 1013 b 50 496 233 1013 50 796 b 471 -18 50 213 214 3 l 400 -103 l 421 -133 b 476 -124 435 -128 460 -124 b 529 -165 510 -124 529 -135 b 461 -214 529 -194 506 -214 b 367 -193 425 -214 397 -206 l 335 -232 b 485 -275 372 -256 425 -275 z "},"È":{"ha":860,"x_min":0,"x_max":0,"o":"m 99 0 l 815 0 l 815 132 l 251 132 l 251 447 l 733 447 l 733 579 l 251 579 l 251 861 l 801 861 l 801 993 l 99 993 z m 278 1292 l 394 1100 l 501 1100 l 431 1292 z "},"É":{"ha":860,"x_min":0,"x_max":0,"o":"m 99 0 l 815 0 l 815 132 l 251 132 l 251 447 l 733 447 l 733 579 l 251 579 l 251 861 l 801 861 l 801 993 l 99 993 z m 386 1100 l 494 1100 l 628 1292 l 468 1292 z "},"Ê":{"ha":860,"x_min":0,"x_max":0,"o":"m 99 0 l 815 0 l 815 132 l 251 132 l 251 447 l 733 447 l 733 579 l 251 579 l 251 861 l 801 861 l 801 993 l 99 993 z m 247 1100 l 376 1100 l 451 1224 l 454 1224 l 528 1100 l 658 1100 l 526 1292 l 379 1292 z "},"Ë":{"ha":860,"x_min":0,"x_max":0,"o":"m 99 0 l 815 0 l 815 132 l 251 132 l 251 447 l 733 447 l 733 579 l 251 579 l 251 861 l 801 861 l 801 993 l 99 993 z m 258 1119 l 413 1119 l 413 1267 l 258 1267 z m 492 1119 l 646 1119 l 646 1267 l 492 1267 z "},"Ì":{"ha":350,"x_min":0,"x_max":0,"o":"m 99 0 l 251 0 l 251 993 l 99 993 z m 0 1292 l 117 1100 l 224 1100 l 153 1292 z "},"Í":{"ha":350,"x_min":0,"x_max":0,"o":"m 99 0 l 251 0 l 251 993 l 99 993 z m 110 1100 l 218 1100 l 351 1292 l 192 1292 z "},"Î":{"ha":350,"x_min":0,"x_max":0,"o":"m 99 0 l 251 0 l 251 993 l 99 993 z m -31 1100 l 99 1100 l 174 1224 l 176 1224 l 250 1100 l 381 1100 l 249 1292 l 101 1292 z "},"Ï":{"ha":350,"x_min":0,"x_max":0,"o":"m 99 0 l 251 0 l 251 993 l 99 993 z m -19 1119 l 135 1119 l 135 1267 l -19 1267 z m 214 1119 l 368 1119 l 368 1267 l 214 1267 z "},"Ð":{"ha":1006,"x_min":0,"x_max":0,"o":"m 132 0 l 513 0 b 951 496 788 0 951 176 b 510 993 951 815 785 993 l 132 993 l 132 565 l 17 565 l 17 463 l 132 463 z m 285 132 l 285 463 l 553 463 l 553 565 l 285 565 l 285 861 l 503 861 b 793 496 733 861 793 688 b 503 132 793 304 733 132 z "},"Ñ":{"ha":990,"x_min":0,"x_max":0,"o":"m 99 0 l 251 0 l 251 764 l 254 764 l 717 0 l 892 0 l 892 993 l 738 993 l 738 229 l 735 229 l 274 993 l 99 993 z m 289 1108 l 381 1108 b 417 1157 381 1126 385 1157 b 590 1106 457 1157 521 1106 b 697 1253 647 1106 697 1146 l 606 1253 b 571 1204 606 1232 601 1204 b 396 1256 529 1204 467 1256 b 289 1108 339 1256 289 1213 z "},"Ò":{"ha":1075,"x_min":0,"x_max":0,"o":"m 538 -19 b 1025 497 835 -19 1025 199 b 538 1013 1025 796 835 1013 b 50 497 240 1013 50 796 b 538 -19 50 199 240 -19 z m 210 497 b 538 881 210 701 303 881 b 865 497 772 881 865 701 b 538 113 865 293 772 113 b 210 497 303 113 210 293 z m 363 1292 l 479 1100 l 586 1100 l 515 1292 z "},"Ó":{"ha":1075,"x_min":0,"x_max":0,"o":"m 538 -19 b 1025 497 835 -19 1025 199 b 538 1013 1025 796 835 1013 b 50 497 240 1013 50 796 b 538 -19 50 199 240 -19 z m 210 497 b 538 881 210 701 303 881 b 865 497 772 881 865 701 b 538 113 865 293 772 113 b 210 497 303 113 210 293 z m 472 1100 l 581 1100 l 714 1292 l 554 1292 z "},"Ô":{"ha":1075,"x_min":0,"x_max":0,"o":"m 538 -19 b 1025 497 835 -19 1025 199 b 538 1013 1025 796 835 1013 b 50 497 240 1013 50 796 b 538 -19 50 199 240 -19 z m 210 497 b 538 881 210 701 303 881 b 865 497 772 881 865 701 b 538 113 865 293 772 113 b 210 497 303 113 210 293 z m 332 1100 l 461 1100 l 536 1224 l 539 1224 l 613 1100 l 743 1100 l 611 1292 l 464 1292 z "},"Õ":{"ha":1075,"x_min":0,"x_max":0,"o":"m 538 -19 b 1025 497 835 -19 1025 199 b 538 1013 1025 796 835 1013 b 50 497 240 1013 50 796 b 538 -19 50 199 240 -19 z m 210 497 b 538 881 210 701 303 881 b 865 497 772 881 865 701 b 538 113 865 293 772 113 b 210 497 303 113 210 293 z m 331 1108 l 422 1108 b 458 1157 422 1126 426 1157 b 632 1106 499 1157 563 1106 b 739 1253 689 1106 739 1146 l 647 1253 b 613 1204 647 1232 643 1204 b 438 1256 571 1204 508 1256 b 331 1108 381 1256 331 1213 z "},"Ö":{"ha":1075,"x_min":0,"x_max":0,"o":"m 538 -19 b 1025 497 835 -19 1025 199 b 538 1013 1025 796 835 1013 b 50 497 240 1013 50 796 b 538 -19 50 199 240 -19 z m 210 497 b 538 881 210 701 303 881 b 865 497 772 881 865 701 b 538 113 865 293 772 113 b 210 497 303 113 210 293 z m 343 1119 l 497 1119 l 497 1267 l 343 1267 z m 576 1119 l 731 1119 l 731 1267 l 576 1267 z "},"×":{"ha":774,"x_min":0,"x_max":0,"o":"m 179 153 l 388 361 l 594 153 l 686 246 l 479 453 l 686 660 l 594 751 l 388 544 l 179 751 l 88 660 l 294 453 l 88 246 z "},"Ø":{"ha":1082,"x_min":0,"x_max":0,"o":"m 100 6 l 204 110 b 542 -19 288 28 403 -19 b 1029 497 839 -19 1029 199 b 925 832 1029 629 992 744 l 1032 939 l 979 989 l 878 886 b 542 1013 794 967 679 1013 b 54 497 244 1013 54 796 b 156 164 54 367 90 251 l 50 57 z m 214 497 b 542 881 214 701 307 881 b 776 786 647 881 724 844 l 263 271 b 214 497 229 335 214 414 z m 304 210 l 819 725 b 869 497 854 661 869 581 b 542 113 869 293 776 113 b 304 210 435 113 357 150 z "},"Ù":{"ha":960,"x_min":0,"x_max":0,"o":"m 479 -19 b 868 338 753 -19 868 124 l 868 993 l 714 993 l 714 338 b 479 113 714 183 638 113 b 244 338 322 113 244 183 l 244 993 l 92 993 l 92 338 b 479 -19 92 124 207 -19 z m 304 1292 l 421 1100 l 528 1100 l 457 1292 z "},"Ú":{"ha":960,"x_min":0,"x_max":0,"o":"m 479 -19 b 868 338 753 -19 868 124 l 868 993 l 714 993 l 714 338 b 479 113 714 183 638 113 b 244 338 322 113 244 183 l 244 993 l 92 993 l 92 338 b 479 -19 92 124 207 -19 z m 414 1100 l 522 1100 l 656 1292 l 496 1292 z "},"Û":{"ha":960,"x_min":0,"x_max":0,"o":"m 479 -19 b 868 338 753 -19 868 124 l 868 993 l 714 993 l 714 338 b 479 113 714 183 638 113 b 244 338 322 113 244 183 l 244 993 l 92 993 l 92 338 b 479 -19 92 124 207 -19 z m 274 1100 l 403 1100 l 478 1224 l 481 1224 l 554 1100 l 685 1100 l 553 1292 l 406 1292 z "},"Ü":{"ha":960,"x_min":0,"x_max":0,"o":"m 479 -19 b 868 338 753 -19 868 124 l 868 993 l 714 993 l 714 338 b 479 113 714 183 638 113 b 244 338 322 113 244 183 l 244 993 l 92 993 l 92 338 b 479 -19 92 124 207 -19 z m 286 1119 l 440 1119 l 440 1267 l 286 1267 z m 519 1119 l 674 1119 l 674 1267 l 519 1267 z "},"Ý":{"ha":885,"x_min":0,"x_max":0,"o":"m 365 0 l 519 0 l 519 397 l 875 993 l 711 993 l 444 518 l 442 518 l 175 993 l 10 993 l 365 397 z m 378 1100 l 486 1100 l 619 1292 l 460 1292 z "},"Þ":{"ha":867,"x_min":0,"x_max":0,"o":"m 99 0 l 251 0 l 251 242 l 513 242 b 838 538 700 242 838 329 b 513 833 838 746 700 833 l 251 833 l 251 993 l 99 993 z m 251 375 l 251 700 l 511 700 b 685 538 626 700 685 650 b 511 375 685 425 626 375 z "},"ß":{"ha":740,"x_min":0,"x_max":0,"o":"m 425 -19 b 701 267 597 -19 701 93 b 501 549 701 421 621 508 l 501 551 b 657 765 586 588 657 649 b 369 1013 657 913 546 1013 b 76 713 185 1013 76 901 l 76 0 l 213 0 l 213 694 b 369 900 213 814 247 900 b 514 760 478 900 514 832 b 339 603 514 651 426 603 l 304 603 l 304 496 l 343 496 b 560 285 460 496 560 431 b 392 94 560 176 504 94 b 293 113 361 94 329 100 l 293 0 b 425 -19 338 -12 382 -19 z "},"à":{"ha":738,"x_min":0,"x_max":0,"o":"m 272 -19 b 514 100 388 -19 468 26 l 517 100 b 629 -7 525 19 561 -7 b 699 1 651 -7 675 -4 l 699 85 b 682 83 690 83 686 83 b 649 161 656 83 649 110 l 649 486 b 386 731 649 669 532 731 b 74 488 169 731 81 624 l 213 488 b 381 621 219 582 257 621 b 515 526 485 621 515 578 b 336 422 515 457 447 443 b 40 183 160 389 40 342 b 272 -19 40 63 131 -19 z m 182 193 b 360 326 182 267 235 301 b 515 378 432 342 493 357 l 515 276 b 303 90 515 153 425 90 b 182 193 218 90 182 126 z m 206 1007 l 322 815 l 429 815 l 358 1007 z "},"á":{"ha":738,"x_min":0,"x_max":0,"o":"m 272 -19 b 514 100 388 -19 468 26 l 517 100 b 629 -7 525 19 561 -7 b 699 1 651 -7 675 -4 l 699 85 b 682 83 690 83 686 83 b 649 161 656 83 649 110 l 649 486 b 386 731 649 669 532 731 b 74 488 169 731 81 624 l 213 488 b 381 621 219 582 257 621 b 515 526 485 621 515 578 b 336 422 515 457 447 443 b 40 183 160 389 40 342 b 272 -19 40 63 131 -19 z m 182 193 b 360 326 182 267 235 301 b 515 378 432 342 493 357 l 515 276 b 303 90 515 153 425 90 b 182 193 218 90 182 126 z m 314 815 l 422 815 l 556 1007 l 396 1007 z "},"â":{"ha":738,"x_min":0,"x_max":0,"o":"m 272 -19 b 514 100 388 -19 468 26 l 517 100 b 629 -7 525 19 561 -7 b 699 1 651 -7 675 -4 l 699 85 b 682 83 690 83 686 83 b 649 161 656 83 649 110 l 649 486 b 386 731 649 669 532 731 b 74 488 169 731 81 624 l 213 488 b 381 621 219 582 257 621 b 515 526 485 621 515 578 b 336 422 515 457 447 443 b 40 183 160 389 40 342 b 272 -19 40 63 131 -19 z m 174 815 l 303 815 l 378 939 l 381 939 l 454 815 l 585 815 l 453 1007 l 306 1007 z m 182 193 b 360 326 182 267 235 301 b 515 378 432 342 493 357 l 515 276 b 303 90 515 153 425 90 b 182 193 218 90 182 126 z "},"ã":{"ha":738,"x_min":0,"x_max":0,"o":"m 272 -19 b 514 100 388 -19 468 26 l 517 100 b 629 -7 525 19 561 -7 b 699 1 651 -7 675 -4 l 699 85 b 682 83 690 83 686 83 b 649 161 656 83 649 110 l 649 486 b 386 731 649 669 532 731 b 74 488 169 731 81 624 l 213 488 b 381 621 219 582 257 621 b 515 526 485 621 515 578 b 336 422 515 457 447 443 b 40 183 160 389 40 342 b 272 -19 40 63 131 -19 z m 174 824 l 265 824 b 301 872 265 842 269 872 b 475 821 342 872 406 821 b 582 968 532 821 582 861 l 490 968 b 456 919 490 947 486 919 b 281 971 414 919 351 971 b 174 824 224 971 174 928 z m 182 193 b 360 326 182 267 235 301 b 515 378 432 342 493 357 l 515 276 b 303 90 515 153 425 90 b 182 193 218 90 182 126 z "},"ä":{"ha":738,"x_min":0,"x_max":0,"o":"m 272 -19 b 514 100 388 -19 468 26 l 517 100 b 629 -7 525 19 561 -7 b 699 1 651 -7 675 -4 l 699 85 b 682 83 690 83 686 83 b 649 161 656 83 649 110 l 649 486 b 386 731 649 669 532 731 b 74 488 169 731 81 624 l 213 488 b 381 621 219 582 257 621 b 515 526 485 621 515 578 b 336 422 515 457 447 443 b 40 183 160 389 40 342 b 272 -19 40 63 131 -19 z m 182 193 b 360 326 182 267 235 301 b 515 378 432 342 493 357 l 515 276 b 303 90 515 153 425 90 b 182 193 218 90 182 126 z m 186 835 l 340 835 l 340 982 l 186 982 z m 419 835 l 574 835 l 574 982 l 419 982 z "},"å":{"ha":738,"x_min":0,"x_max":0,"o":"m 272 -19 b 514 100 388 -19 468 26 l 517 100 b 629 -7 525 19 561 -7 b 699 1 651 -7 675 -4 l 699 85 b 682 83 690 83 686 83 b 649 161 656 83 649 110 l 649 486 b 386 731 649 669 532 731 b 74 488 169 731 81 624 l 213 488 b 381 621 219 582 257 621 b 515 526 485 621 515 578 b 336 422 515 457 447 443 b 40 183 160 389 40 342 b 272 -19 40 63 131 -19 z m 182 193 b 360 326 182 267 235 301 b 515 378 432 342 493 357 l 515 276 b 303 90 515 153 425 90 b 182 193 218 90 182 126 z m 250 899 b 378 771 250 822 306 771 b 507 899 453 771 507 822 b 378 1026 507 975 453 1026 b 250 899 306 1026 250 975 z m 315 899 b 378 965 315 938 342 965 b 443 899 417 965 443 938 b 378 832 443 858 417 832 b 315 899 342 832 315 858 z "},"æ":{"ha":1238,"x_min":0,"x_max":0,"o":"m 281 -19 b 575 124 393 -19 506 21 b 863 -21 633 35 731 -21 b 1190 218 1049 -21 1153 82 l 1051 218 b 865 90 1039 171 990 90 b 653 318 725 90 656 200 l 1197 318 b 1199 369 1199 329 1199 350 b 863 731 1199 589 1078 731 b 611 631 757 731 671 694 b 379 731 564 703 476 731 b 74 488 169 731 81 625 l 213 488 b 381 621 219 583 257 621 b 515 526 485 621 515 578 b 336 422 515 457 447 443 b 40 183 160 389 40 342 b 281 -19 40 63 129 -19 z m 182 193 b 360 326 182 267 235 301 b 513 375 428 342 490 357 l 513 356 b 514 317 513 342 513 329 l 514 275 b 301 90 514 165 446 90 b 182 193 218 90 182 126 z m 653 425 b 858 619 661 542 744 619 b 1057 425 979 619 1057 536 z "},"ç":{"ha":738,"x_min":0,"x_max":0,"o":"m 367 -275 b 519 -167 444 -275 519 -243 b 382 -76 519 -90 442 -68 l 382 -74 l 429 -18 b 706 263 589 -1 697 113 l 565 263 b 388 93 558 182 518 93 b 181 354 236 93 181 221 b 388 617 181 488 236 617 b 565 451 517 617 558 525 l 706 451 b 386 729 689 611 568 729 b 39 354 176 729 39 576 b 351 -19 39 144 161 -3 l 282 -103 l 303 -133 b 358 -124 317 -128 342 -124 b 411 -165 392 -124 411 -135 b 343 -214 411 -194 388 -214 b 249 -193 307 -214 279 -206 l 217 -232 b 367 -275 254 -256 307 -275 z "},"è":{"ha":765,"x_min":0,"x_max":0,"o":"m 390 -21 b 718 218 576 -21 681 82 l 579 218 b 393 90 567 171 518 90 b 181 318 253 90 183 200 l 725 318 b 726 369 726 329 726 350 b 390 731 726 589 606 731 b 40 356 174 731 40 578 b 390 -21 40 139 165 -21 z m 181 425 b 386 619 189 542 272 619 b 585 425 507 619 585 536 z m 208 1010 l 325 818 l 432 818 l 361 1010 z "},"é":{"ha":765,"x_min":0,"x_max":0,"o":"m 390 -21 b 718 218 576 -21 681 82 l 579 218 b 393 90 567 171 518 90 b 181 318 253 90 183 200 l 725 318 b 726 369 726 329 726 350 b 390 731 726 589 606 731 b 40 356 174 731 40 578 b 390 -21 40 139 165 -21 z m 181 425 b 386 619 189 542 272 619 b 585 425 507 619 585 536 z m 318 818 l 426 818 l 560 1010 l 400 1010 z "},"ê":{"ha":765,"x_min":0,"x_max":0,"o":"m 390 -21 b 718 218 576 -21 681 82 l 579 218 b 393 90 567 171 518 90 b 181 318 253 90 183 200 l 725 318 b 726 369 726 329 726 350 b 390 731 726 589 606 731 b 40 356 174 731 40 578 b 390 -21 40 139 165 -21 z m 178 818 l 307 818 l 382 942 l 385 942 l 458 818 l 589 818 l 457 1010 l 310 1010 z m 181 425 b 386 619 189 542 272 619 b 585 425 507 619 585 536 z "},"ë":{"ha":765,"x_min":0,"x_max":0,"o":"m 390 -21 b 718 218 576 -21 681 82 l 579 218 b 393 90 567 171 518 90 b 181 318 253 90 183 200 l 725 318 b 726 369 726 329 726 350 b 390 731 726 589 606 731 b 40 356 174 731 40 578 b 390 -21 40 139 165 -21 z m 181 425 b 386 619 189 542 272 619 b 585 425 507 619 585 536 z m 189 838 l 343 838 l 343 985 l 189 985 z m 422 838 l 576 838 l 576 985 l 422 985 z "},"ì":{"ha":289,"x_min":0,"x_max":0,"o":"m 76 0 l 213 0 l 213 708 l 76 708 z m -31 1007 l 86 815 l 193 815 l 122 1007 z "},"í":{"ha":289,"x_min":0,"x_max":0,"o":"m 76 0 l 213 0 l 213 708 l 76 708 z m 79 815 l 188 815 l 321 1007 l 161 1007 z "},"î":{"ha":289,"x_min":0,"x_max":0,"o":"m 76 0 l 213 0 l 213 708 l 76 708 z m -61 815 l 68 815 l 143 939 l 146 939 l 219 815 l 350 815 l 218 1007 l 71 1007 z "},"ï":{"ha":289,"x_min":0,"x_max":0,"o":"m 76 0 l 213 0 l 213 708 l 76 708 z m -50 835 l 104 835 l 104 982 l -50 982 z m 183 835 l 338 835 l 338 982 l 183 982 z "},"ð":{"ha":792,"x_min":0,"x_max":0,"o":"m 386 -22 b 746 418 650 -22 746 203 b 576 858 746 614 664 760 l 704 893 l 683 975 l 506 928 b 413 993 471 957 439 979 l 232 993 b 376 893 285 961 333 928 l 215 850 l 235 768 l 451 825 b 585 619 517 760 563 690 b 375 729 539 685 461 729 b 39 357 193 729 39 592 b 386 -22 39 129 164 -22 z m 175 357 b 386 618 175 501 247 618 b 607 357 524 618 607 501 b 386 93 607 213 524 93 b 175 357 247 93 175 213 z "},"ñ":{"ha":756,"x_min":0,"x_max":0,"o":"m 549 454 l 549 0 l 685 0 l 685 492 b 449 729 685 654 579 729 b 215 619 326 729 253 674 l 213 619 l 213 708 l 76 708 l 76 0 l 213 0 l 213 435 b 404 613 213 542 288 613 b 549 454 507 613 549 549 z m 183 824 l 275 824 b 311 872 275 842 279 872 b 485 821 351 872 415 821 b 592 968 542 821 592 861 l 500 968 b 465 919 500 947 496 919 b 290 971 424 919 361 971 b 183 824 233 971 183 928 z "},"ò":{"ha":786,"x_min":0,"x_max":0,"o":"m 393 -21 b 747 356 614 -21 747 133 b 394 731 747 576 614 731 b 39 354 172 731 39 575 b 393 -21 39 132 172 -21 z m 181 354 b 394 617 181 503 247 617 b 606 354 539 617 606 503 b 394 92 606 207 539 92 b 181 354 247 92 181 207 z m 219 1010 l 336 818 l 443 818 l 372 1010 z "},"ó":{"ha":786,"x_min":0,"x_max":0,"o":"m 393 -21 b 747 356 614 -21 747 133 b 394 731 747 576 614 731 b 39 354 172 731 39 575 b 393 -21 39 132 172 -21 z m 181 354 b 394 617 181 503 247 617 b 606 354 539 617 606 503 b 394 92 606 207 539 92 b 181 354 247 92 181 207 z m 328 818 l 436 818 l 569 1010 l 410 1010 z "},"ô":{"ha":786,"x_min":0,"x_max":0,"o":"m 393 -21 b 747 356 614 -21 747 133 b 394 731 747 576 614 731 b 39 354 172 731 39 575 b 393 -21 39 132 172 -21 z m 181 354 b 394 617 181 503 247 617 b 606 354 539 617 606 503 b 394 92 606 207 539 92 b 181 354 247 92 181 207 z m 189 818 l 318 818 l 393 942 l 396 942 l 469 818 l 600 818 l 468 1010 l 321 1010 z "},"õ":{"ha":786,"x_min":0,"x_max":0,"o":"m 393 -21 b 747 356 614 -21 747 133 b 394 731 747 576 614 731 b 39 354 172 731 39 575 b 393 -21 39 132 172 -21 z m 181 354 b 394 617 181 503 247 617 b 606 354 539 617 606 503 b 394 92 606 207 539 92 b 181 354 247 92 181 207 z m 188 826 l 279 826 b 315 875 279 844 283 875 b 489 824 356 875 419 824 b 596 971 546 824 596 864 l 504 971 b 469 922 504 950 500 922 b 294 974 428 922 365 974 b 188 826 238 974 188 931 z "},"ö":{"ha":786,"x_min":0,"x_max":0,"o":"m 393 -21 b 747 356 614 -21 747 133 b 394 731 747 576 614 731 b 39 354 172 731 39 575 b 393 -21 39 132 172 -21 z m 181 354 b 394 617 181 503 247 617 b 606 354 539 617 606 503 b 394 92 606 207 539 92 b 181 354 247 92 181 207 z m 200 838 l 354 838 l 354 985 l 200 985 z m 433 838 l 588 838 l 588 985 l 433 985 z "},"÷":{"ha":774,"x_min":0,"x_max":0,"o":"m 311 621 l 463 621 l 463 772 l 311 772 z m 67 389 l 707 389 l 707 518 l 67 518 z m 311 138 l 463 138 l 463 289 l 311 289 z "},"ø":{"ha":799,"x_min":0,"x_max":0,"o":"m 81 -15 l 160 64 b 400 -21 219 10 301 -21 b 754 356 621 -21 754 133 b 688 592 754 449 731 529 l 767 672 l 717 724 l 639 646 b 401 731 581 700 500 731 b 46 354 179 731 46 575 b 113 117 46 261 69 181 l 32 36 z m 188 354 b 401 617 188 503 254 617 b 550 556 465 617 515 594 l 213 217 b 188 354 196 257 188 303 z m 250 154 l 588 493 b 613 354 604 453 613 406 b 401 92 613 207 546 92 b 250 154 335 92 285 115 z "},"ù":{"ha":756,"x_min":0,"x_max":0,"o":"m 307 -19 b 540 89 429 -19 503 35 l 543 89 l 543 0 l 679 0 l 679 708 l 543 708 l 543 274 b 351 96 543 167 468 96 b 207 256 249 96 207 160 l 207 708 l 71 708 l 71 218 b 307 -19 71 56 176 -19 z m 189 1007 l 306 815 l 413 815 l 342 1007 z "},"ú":{"ha":756,"x_min":0,"x_max":0,"o":"m 307 -19 b 540 89 429 -19 503 35 l 543 89 l 543 0 l 679 0 l 679 708 l 543 708 l 543 274 b 351 96 543 167 468 96 b 207 256 249 96 207 160 l 207 708 l 71 708 l 71 218 b 307 -19 71 56 176 -19 z m 299 815 l 407 815 l 540 1007 l 381 1007 z "},"û":{"ha":756,"x_min":0,"x_max":0,"o":"m 307 -19 b 540 89 429 -19 503 35 l 543 89 l 543 0 l 679 0 l 679 708 l 543 708 l 543 274 b 351 96 543 167 468 96 b 207 256 249 96 207 160 l 207 708 l 71 708 l 71 218 b 307 -19 71 56 176 -19 z m 158 815 l 288 815 l 363 939 l 365 939 l 439 815 l 569 815 l 438 1007 l 290 1007 z "},"ü":{"ha":756,"x_min":0,"x_max":0,"o":"m 307 -19 b 540 89 429 -19 503 35 l 543 89 l 543 0 l 679 0 l 679 708 l 543 708 l 543 274 b 351 96 543 167 468 96 b 207 256 249 96 207 160 l 207 708 l 71 708 l 71 218 b 307 -19 71 56 176 -19 z m 169 835 l 324 835 l 324 982 l 169 982 z m 403 835 l 557 835 l 557 982 l 403 982 z "},"ý":{"ha":701,"x_min":0,"x_max":0,"o":"m 168 -249 b 414 -17 278 -249 346 -192 l 694 708 l 551 708 l 357 167 l 354 167 l 147 708 l -1 708 l 285 7 b 139 -132 257 -104 193 -132 b 81 -128 117 -132 104 -131 l 81 -239 b 168 -249 117 -246 138 -249 z m 282 815 l 390 815 l 524 1007 l 364 1007 z "},"þ":{"ha":792,"x_min":0,"x_max":0,"o":"m 433 -19 b 751 354 614 -19 751 121 b 433 729 751 588 614 729 b 215 625 322 729 254 675 l 213 625 l 213 993 l 76 993 l 76 -246 l 213 -246 l 213 88 l 215 88 b 433 -19 254 31 322 -19 z m 214 354 b 411 615 214 515 289 615 b 608 354 544 615 608 493 b 411 93 608 215 544 93 b 214 354 289 93 214 194 z "},"ÿ":{"ha":701,"x_min":0,"x_max":0,"o":"m 168 -249 b 414 -17 278 -249 346 -192 l 694 708 l 551 708 l 357 167 l 354 167 l 147 708 l -1 708 l 285 7 b 139 -132 257 -104 193 -132 b 81 -128 117 -132 104 -131 l 81 -239 b 168 -249 117 -246 138 -249 z m 153 835 l 307 835 l 307 982 l 153 982 z m 386 835 l 540 835 l 540 982 l 386 982 z "},"Ā":{"ha":917,"x_min":0,"x_max":0,"o":"m 6 0 l 167 0 l 249 239 l 664 239 l 746 0 l 913 0 l 540 993 l 375 993 z m 274 1119 l 640 1119 l 640 1226 l 274 1226 z m 294 368 l 456 851 l 458 851 l 621 368 z "},"ā":{"ha":738,"x_min":0,"x_max":0,"o":"m 272 -19 b 514 100 388 -19 468 26 l 517 100 b 629 -7 525 19 561 -7 b 699 1 651 -7 675 -4 l 699 85 b 682 83 690 83 686 83 b 649 161 656 83 649 110 l 649 486 b 386 731 649 669 532 731 b 74 488 169 731 81 624 l 213 488 b 381 621 219 582 257 621 b 515 526 485 621 515 578 b 336 422 515 457 447 443 b 40 183 160 389 40 342 b 272 -19 40 63 131 -19 z m 182 193 b 360 326 182 267 235 301 b 515 378 432 342 493 357 l 515 276 b 303 90 515 153 425 90 b 182 193 218 90 182 126 z m 196 835 l 563 835 l 563 942 l 196 942 z "},"Ă":{"ha":917,"x_min":0,"x_max":0,"o":"m 6 0 l 167 0 l 249 239 l 664 239 l 746 0 l 913 0 l 540 993 l 375 993 z m 271 1278 b 458 1086 275 1150 353 1086 b 644 1278 565 1086 639 1154 l 551 1278 b 458 1182 547 1211 518 1182 b 364 1278 399 1182 368 1211 z m 294 368 l 456 851 l 458 851 l 621 368 z "},"ă":{"ha":738,"x_min":0,"x_max":0,"o":"m 272 -19 b 514 100 388 -19 468 26 l 517 100 b 629 -7 525 19 561 -7 b 699 1 651 -7 675 -4 l 699 85 b 682 83 690 83 686 83 b 649 161 656 83 649 110 l 649 486 b 386 731 649 669 532 731 b 74 488 169 731 81 624 l 213 488 b 381 621 219 582 257 621 b 515 526 485 621 515 578 b 336 422 515 457 447 443 b 40 183 160 389 40 342 b 272 -19 40 63 131 -19 z m 182 193 b 360 326 182 267 235 301 b 515 378 432 342 493 357 l 515 276 b 303 90 515 153 425 90 b 182 193 218 90 182 126 z m 193 993 b 381 801 197 865 275 801 b 567 993 488 801 561 869 l 474 993 b 381 897 469 926 440 897 b 286 993 321 897 290 926 z "},"Ą":{"ha":917,"x_min":0,"x_max":0,"o":"m 6 0 l 167 0 l 249 239 l 664 239 l 746 0 l 779 0 b 675 -140 731 -24 675 -75 b 808 -246 675 -204 721 -246 b 904 -232 842 -246 876 -240 l 904 -139 b 839 -151 885 -146 864 -151 b 789 -111 811 -151 789 -137 b 875 0 789 -82 821 -43 l 913 0 l 540 993 l 375 993 z m 294 368 l 456 851 l 458 851 l 621 368 z "},"ą":{"ha":738,"x_min":0,"x_max":0,"o":"m 272 -19 b 514 100 388 -19 468 26 l 517 100 b 593 -4 524 35 549 6 b 499 -139 547 -29 499 -78 b 632 -244 499 -203 544 -244 b 728 -231 665 -244 700 -239 l 728 -137 b 663 -150 708 -144 688 -150 b 613 -110 635 -150 613 -136 b 699 1 613 -81 644 -42 l 699 85 b 682 83 690 83 686 83 b 649 161 656 83 649 110 l 649 486 b 386 731 649 669 532 731 b 74 488 169 731 81 624 l 213 488 b 381 621 219 582 257 621 b 515 526 485 621 515 578 b 336 422 515 457 447 443 b 40 183 160 389 40 342 b 272 -19 40 63 131 -19 z m 182 193 b 360 326 182 267 235 301 b 515 378 432 342 493 357 l 515 276 b 303 90 515 153 425 90 b 182 193 218 90 182 126 z "},"Ć":{"ha":981,"x_min":0,"x_max":0,"o":"m 514 -19 b 942 361 764 -19 919 140 l 782 361 b 513 113 772 240 704 113 b 210 497 293 113 210 299 b 513 881 210 694 293 881 b 782 656 703 881 764 753 l 942 656 b 515 1013 918 854 764 1013 b 50 496 233 1013 50 796 b 514 -19 50 197 232 -19 z m 450 1100 l 558 1100 l 692 1292 l 532 1292 z "},"ć":{"ha":738,"x_min":0,"x_max":0,"o":"m 388 -21 b 706 263 569 -21 696 100 l 565 263 b 388 93 558 182 518 93 b 181 354 236 93 181 221 b 388 617 181 488 236 617 b 565 451 517 617 558 525 l 706 451 b 386 729 689 611 568 729 b 39 354 176 729 39 576 b 388 -21 39 132 176 -21 z m 321 815 l 429 815 l 563 1007 l 403 1007 z "},"Ĉ":{"ha":981,"x_min":0,"x_max":0,"o":"m 514 -19 b 942 361 764 -19 919 140 l 782 361 b 513 113 772 240 704 113 b 210 497 293 113 210 299 b 513 881 210 694 293 881 b 782 656 703 881 764 753 l 942 656 b 515 1013 918 854 764 1013 b 50 496 233 1013 50 796 b 514 -19 50 197 232 -19 z m 310 1100 l 439 1100 l 514 1224 l 517 1224 l 590 1100 l 721 1100 l 589 1292 l 442 1292 z "},"ĉ":{"ha":738,"x_min":0,"x_max":0,"o":"m 388 -21 b 706 263 569 -21 696 100 l 565 263 b 388 93 558 182 518 93 b 181 354 236 93 181 221 b 388 617 181 488 236 617 b 565 451 517 617 558 525 l 706 451 b 386 729 689 611 568 729 b 39 354 176 729 39 576 b 388 -21 39 132 176 -21 z m 181 815 l 310 815 l 385 939 l 388 939 l 461 815 l 592 815 l 460 1007 l 313 1007 z "},"Ċ":{"ha":981,"x_min":0,"x_max":0,"o":"m 514 -19 b 942 361 764 -19 919 140 l 782 361 b 513 113 772 240 704 113 b 210 497 293 113 210 299 b 513 881 210 694 293 881 b 782 656 703 881 764 753 l 942 656 b 515 1013 918 854 764 1013 b 50 496 233 1013 50 796 b 514 -19 50 197 232 -19 z m 439 1119 l 593 1119 l 593 1267 l 439 1267 z "},"ċ":{"ha":738,"x_min":0,"x_max":0,"o":"m 388 -21 b 706 263 569 -21 696 100 l 565 263 b 388 93 558 182 518 93 b 181 354 236 93 181 221 b 388 617 181 488 236 617 b 565 451 517 617 558 525 l 706 451 b 386 729 689 611 568 729 b 39 354 176 729 39 576 b 388 -21 39 132 176 -21 z m 310 835 l 464 835 l 464 982 l 310 982 z "},"Č":{"ha":981,"x_min":0,"x_max":0,"o":"m 514 -19 b 942 361 764 -19 919 140 l 782 361 b 513 113 772 240 704 113 b 210 497 293 113 210 299 b 513 881 210 694 293 881 b 782 656 703 881 764 753 l 942 656 b 515 1013 918 854 764 1013 b 50 496 233 1013 50 796 b 514 -19 50 197 232 -19 z m 310 1292 l 442 1100 l 589 1100 l 721 1292 l 590 1292 l 517 1168 l 514 1168 l 439 1292 z "},"č":{"ha":738,"x_min":0,"x_max":0,"o":"m 388 -21 b 706 263 569 -21 696 100 l 565 263 b 388 93 558 182 518 93 b 181 354 236 93 181 221 b 388 617 181 488 236 617 b 565 451 517 617 558 525 l 706 451 b 386 729 689 611 568 729 b 39 354 176 729 39 576 b 388 -21 39 132 176 -21 z m 181 1007 l 313 815 l 460 815 l 592 1007 l 461 1007 l 388 883 l 385 883 l 310 1007 z "},"Ď":{"ha":971,"x_min":0,"x_max":0,"o":"m 99 0 l 479 0 b 918 496 754 0 918 176 b 476 993 918 815 751 993 l 99 993 z m 192 1292 l 324 1100 l 471 1100 l 603 1292 l 472 1292 l 399 1168 l 396 1168 l 321 1292 z m 251 132 l 251 861 l 469 861 b 760 496 700 861 760 688 b 469 132 760 304 700 132 z "},"ď":{"ha":832,"x_min":0,"x_max":0,"o":"m 358 -19 b 576 83 469 -19 538 33 l 579 83 l 579 0 l 715 0 l 715 993 l 579 993 l 579 622 l 576 622 b 358 729 538 678 469 729 b 40 354 178 729 40 588 b 358 -19 40 121 178 -19 z m 182 354 b 381 615 182 493 247 615 b 578 354 503 615 578 515 b 381 93 578 194 503 93 b 182 354 247 93 182 215 z m 769 722 l 871 722 l 957 993 l 801 993 z "},"Đ":{"ha":1006,"x_min":0,"x_max":0,"o":"m 132 0 l 513 0 b 951 496 788 0 951 176 b 510 993 951 815 785 993 l 132 993 l 132 565 l 17 565 l 17 463 l 132 463 z m 285 132 l 285 463 l 553 463 l 553 565 l 285 565 l 285 861 l 503 861 b 793 496 733 861 793 688 b 503 132 793 304 733 132 z "},"đ":{"ha":792,"x_min":0,"x_max":0,"o":"m 381 811 l 579 811 l 579 622 l 576 622 b 358 729 538 678 469 729 b 40 354 178 729 40 588 b 358 -19 40 121 178 -19 b 576 83 469 -19 538 33 l 579 83 l 579 0 l 715 0 l 715 811 l 811 811 l 811 904 l 715 904 l 715 993 l 579 993 l 579 904 l 381 904 z m 182 354 b 381 615 182 493 247 615 b 578 354 503 615 578 515 b 381 93 578 194 503 93 b 182 354 247 93 182 215 z "},"Ē":{"ha":860,"x_min":0,"x_max":0,"o":"m 99 0 l 815 0 l 815 132 l 251 132 l 251 447 l 733 447 l 733 579 l 251 579 l 251 861 l 801 861 l 801 993 l 99 993 z m 268 1119 l 635 1119 l 635 1226 l 268 1226 z "},"ē":{"ha":765,"x_min":0,"x_max":0,"o":"m 390 -21 b 718 218 576 -21 681 82 l 579 218 b 393 90 567 171 518 90 b 181 318 253 90 183 200 l 725 318 b 726 369 726 329 726 350 b 390 731 726 589 606 731 b 40 356 174 731 40 578 b 390 -21 40 139 165 -21 z m 181 425 b 386 619 189 542 272 619 b 585 425 507 619 585 536 z m 200 838 l 567 838 l 567 944 l 200 944 z "},"Ė":{"ha":860,"x_min":0,"x_max":0,"o":"m 99 0 l 815 0 l 815 132 l 251 132 l 251 447 l 733 447 l 733 579 l 251 579 l 251 861 l 801 861 l 801 993 l 99 993 z m 375 1119 l 529 1119 l 529 1267 l 375 1267 z "},"ė":{"ha":765,"x_min":0,"x_max":0,"o":"m 390 -21 b 718 218 576 -21 681 82 l 579 218 b 393 90 567 171 518 90 b 181 318 253 90 183 200 l 725 318 b 726 369 726 329 726 350 b 390 731 726 589 606 731 b 40 356 174 731 40 578 b 390 -21 40 139 165 -21 z m 181 425 b 386 619 189 542 272 619 b 585 425 507 619 585 536 z m 307 838 l 461 838 l 461 985 l 307 985 z "},"Ę":{"ha":860,"x_min":0,"x_max":0,"o":"m 99 0 l 701 0 b 597 -140 653 -24 597 -75 b 731 -246 597 -204 643 -246 b 826 -232 764 -246 799 -240 l 826 -139 b 761 -151 807 -146 786 -151 b 711 -111 733 -151 711 -137 b 797 0 711 -82 743 -43 l 815 0 l 815 132 l 251 132 l 251 447 l 733 447 l 733 579 l 251 579 l 251 861 l 801 861 l 801 993 l 99 993 z "},"ę":{"ha":765,"x_min":0,"x_max":0,"o":"m 440 -246 b 536 -232 474 -246 508 -240 l 536 -139 b 471 -151 517 -146 496 -151 b 421 -111 443 -151 421 -137 b 497 -8 421 -83 449 -47 b 718 218 618 24 689 111 l 579 218 b 393 90 567 171 518 90 b 181 318 253 90 183 200 l 725 318 b 726 369 726 329 726 350 b 390 731 726 589 606 731 b 40 356 174 731 40 578 b 376 -21 40 143 160 -14 b 307 -140 340 -49 307 -90 b 440 -246 307 -204 353 -246 z m 181 425 b 386 619 189 542 272 619 b 585 425 507 619 585 536 z "},"Ě":{"ha":860,"x_min":0,"x_max":0,"o":"m 99 0 l 815 0 l 815 132 l 251 132 l 251 447 l 733 447 l 733 579 l 251 579 l 251 861 l 801 861 l 801 993 l 99 993 z m 247 1292 l 379 1100 l 526 1100 l 658 1292 l 528 1292 l 454 1168 l 451 1168 l 376 1292 z "},"ě":{"ha":765,"x_min":0,"x_max":0,"o":"m 390 -21 b 718 218 576 -21 681 82 l 579 218 b 393 90 567 171 518 90 b 181 318 253 90 183 200 l 725 318 b 726 369 726 329 726 350 b 390 731 726 589 606 731 b 40 356 174 731 40 578 b 390 -21 40 139 165 -21 z m 178 1010 l 310 818 l 457 818 l 589 1010 l 458 1010 l 385 886 l 382 886 l 307 1010 z m 181 425 b 386 619 189 542 272 619 b 585 425 507 619 585 536 z "},"Ĝ":{"ha":1024,"x_min":0,"x_max":0,"o":"m 499 -19 b 813 138 650 -19 743 36 l 815 138 l 853 0 l 958 0 l 958 519 l 510 519 l 510 392 l 803 392 b 507 113 801 226 671 113 b 211 497 275 113 211 310 b 515 881 211 683 296 881 b 782 686 663 881 756 811 l 942 686 b 517 1013 910 875 774 1013 b 51 497 233 1013 51 796 b 499 -19 51 197 213 -19 z m 306 1100 l 435 1100 l 510 1224 l 513 1224 l 586 1100 l 717 1100 l 585 1292 l 438 1292 z "},"ĝ":{"ha":788,"x_min":0,"x_max":0,"o":"m 381 -254 b 713 56 583 -254 713 -158 l 713 708 l 576 708 l 576 625 l 574 625 b 356 729 535 675 469 729 b 43 382 179 729 43 610 b 356 36 43 156 179 36 b 574 143 469 36 535 86 l 576 143 l 576 47 b 381 -143 576 -86 510 -143 b 204 -29 265 -143 218 -93 l 63 -29 b 381 -254 76 -157 178 -254 z m 169 815 l 299 815 l 374 939 l 376 939 l 450 815 l 581 815 l 449 1007 l 301 1007 z m 185 382 b 381 615 185 515 247 615 b 575 382 503 615 575 538 b 381 149 575 228 503 149 b 185 382 247 149 185 249 z "},"Ğ":{"ha":1024,"x_min":0,"x_max":0,"o":"m 499 -19 b 813 138 650 -19 743 36 l 815 138 l 853 0 l 958 0 l 958 519 l 510 519 l 510 392 l 803 392 b 507 113 801 226 671 113 b 211 497 275 113 211 310 b 515 881 211 683 296 881 b 782 686 663 881 756 811 l 942 686 b 517 1013 910 875 774 1013 b 51 497 233 1013 51 796 b 499 -19 51 197 213 -19 z m 325 1278 b 513 1086 329 1150 407 1086 b 699 1278 619 1086 693 1154 l 606 1278 b 513 1182 601 1211 572 1182 b 418 1278 453 1182 422 1211 z "},"ğ":{"ha":788,"x_min":0,"x_max":0,"o":"m 381 -254 b 713 56 583 -254 713 -158 l 713 708 l 576 708 l 576 625 l 574 625 b 356 729 535 675 469 729 b 43 382 179 729 43 610 b 356 36 43 156 179 36 b 574 143 469 36 535 86 l 576 143 l 576 47 b 381 -143 576 -86 510 -143 b 204 -29 265 -143 218 -93 l 63 -29 b 381 -254 76 -157 178 -254 z m 185 382 b 381 615 185 515 247 615 b 575 382 503 615 575 538 b 381 149 575 228 503 149 b 185 382 247 149 185 249 z m 188 993 b 375 801 192 865 269 801 b 561 993 482 801 556 869 l 468 993 b 375 897 464 926 435 897 b 281 993 315 897 285 926 z "},"Ġ":{"ha":1024,"x_min":0,"x_max":0,"o":"m 499 -19 b 813 138 650 -19 743 36 l 815 138 l 853 0 l 958 0 l 958 519 l 510 519 l 510 392 l 803 392 b 507 113 801 226 671 113 b 211 497 275 113 211 310 b 515 881 211 683 296 881 b 782 686 663 881 756 811 l 942 686 b 517 1013 910 875 774 1013 b 51 497 233 1013 51 796 b 499 -19 51 197 213 -19 z m 435 1119 l 589 1119 l 589 1267 l 435 1267 z "},"ġ":{"ha":788,"x_min":0,"x_max":0,"o":"m 381 -254 b 713 56 583 -254 713 -158 l 713 708 l 576 708 l 576 625 l 574 625 b 356 729 535 675 469 729 b 43 382 179 729 43 610 b 356 36 43 156 179 36 b 574 143 469 36 535 86 l 576 143 l 576 47 b 381 -143 576 -86 510 -143 b 204 -29 265 -143 218 -93 l 63 -29 b 381 -254 76 -157 178 -254 z m 185 382 b 381 615 185 515 247 615 b 575 382 503 615 575 538 b 381 149 575 228 503 149 b 185 382 247 149 185 249 z m 299 835 l 453 835 l 453 982 l 299 982 z "},"Ģ":{"ha":1024,"x_min":0,"x_max":0,"o":"m 499 -19 b 813 138 650 -19 743 36 l 815 138 l 853 0 l 958 0 l 958 519 l 510 519 l 510 392 l 803 392 b 507 113 801 226 671 113 b 211 497 275 113 211 310 b 515 881 211 683 296 881 b 782 686 663 881 756 811 l 942 686 b 517 1013 910 875 774 1013 b 51 497 233 1013 51 796 b 499 -19 51 197 213 -19 z m 449 -331 b 600 -183 560 -307 600 -253 l 600 -68 l 449 -68 l 449 -183 l 521 -183 b 449 -272 521 -239 499 -260 z "},"ģ":{"ha":788,"x_min":0,"x_max":0,"o":"m 381 -254 b 713 56 583 -254 713 -158 l 713 708 l 576 708 l 576 625 l 574 625 b 356 729 535 675 469 729 b 43 382 179 729 43 610 b 356 36 43 156 179 36 b 574 143 469 36 535 86 l 576 143 l 576 47 b 381 -143 576 -86 510 -143 b 204 -29 265 -143 218 -93 l 63 -29 b 381 -254 76 -157 178 -254 z m 185 382 b 381 615 185 515 247 615 b 575 382 503 615 575 538 b 381 149 575 228 503 149 b 185 382 247 149 185 249 z m 304 815 l 456 815 l 456 942 l 383 942 b 456 1038 382 1003 404 1025 l 456 1103 b 304 942 344 1078 304 1018 z "},"Ĥ":{"ha":990,"x_min":0,"x_max":0,"o":"m 99 0 l 251 0 l 251 446 l 739 446 l 739 0 l 893 0 l 893 993 l 739 993 l 739 578 l 251 578 l 251 993 l 99 993 z m 290 1100 l 419 1100 l 494 1224 l 497 1224 l 571 1100 l 701 1100 l 569 1292 l 422 1292 z "},"ĥ":{"ha":756,"x_min":0,"x_max":0,"o":"m 549 454 l 549 0 l 685 0 l 685 492 b 449 729 685 654 579 729 b 215 619 326 729 253 674 l 213 619 l 213 993 l 76 993 l 76 0 l 213 0 l 213 435 b 404 613 213 542 288 613 b 549 454 507 613 549 549 z m -61 1040 l 68 1040 l 143 1164 l 146 1164 l 219 1040 l 350 1040 l 218 1232 l 71 1232 z "},"Ħ":{"ha":1028,"x_min":0,"x_max":0,"o":"m 22 740 l 125 740 l 125 0 l 278 0 l 278 446 l 765 446 l 765 0 l 919 0 l 919 740 l 1000 740 l 1000 844 l 919 844 l 919 993 l 765 993 l 765 844 l 278 844 l 278 993 l 125 993 l 125 844 l 22 844 z m 278 578 l 278 740 l 765 740 l 765 578 z "},"ħ":{"ha":756,"x_min":0,"x_max":0,"o":"m -7 811 l 76 811 l 76 0 l 213 0 l 213 435 b 404 613 213 542 288 613 b 549 454 507 613 549 549 l 549 0 l 685 0 l 685 492 b 449 729 685 654 579 729 b 215 619 326 729 253 674 l 213 619 l 213 811 l 431 811 l 431 904 l 213 904 l 213 993 l 76 993 l 76 904 l -7 904 z "},"Ĩ":{"ha":350,"x_min":0,"x_max":0,"o":"m 99 0 l 251 0 l 251 993 l 99 993 z m -32 1108 l 60 1108 b 96 1157 60 1126 64 1157 b 269 1106 136 1157 200 1106 b 376 1253 326 1106 376 1146 l 285 1253 b 250 1204 285 1232 281 1204 b 75 1256 208 1204 146 1256 b -32 1108 18 1256 -32 1213 z "},"ĩ":{"ha":289,"x_min":0,"x_max":0,"o":"m 76 0 l 213 0 l 213 708 l 76 708 z m -62 824 l 29 824 b 65 872 29 842 33 872 b 239 821 106 872 169 821 b 346 968 296 821 346 861 l 254 968 b 219 919 254 947 250 919 b 44 971 178 919 115 971 b -62 824 -12 971 -62 928 z "},"Ī":{"ha":350,"x_min":0,"x_max":0,"o":"m 99 0 l 251 0 l 251 993 l 99 993 z m -8 1119 l 358 1119 l 358 1226 l -8 1226 z "},"ī":{"ha":289,"x_min":0,"x_max":0,"o":"m 76 0 l 213 0 l 213 708 l 76 708 z m -39 835 l 328 835 l 328 942 l -39 942 z "},"Į":{"ha":350,"x_min":0,"x_max":0,"o":"m 99 0 l 138 0 b 33 -140 89 -24 33 -75 b 167 -246 33 -204 79 -246 b 263 -232 200 -246 235 -240 l 263 -139 b 197 -151 243 -146 222 -151 b 147 -111 169 -151 147 -137 b 233 0 147 -82 179 -43 l 251 0 l 251 993 l 99 993 z "},"į":{"ha":289,"x_min":0,"x_max":0,"o":"m 76 0 l 99 0 b -6 -140 50 -24 -6 -75 b 128 -246 -6 -204 40 -246 b 224 -232 161 -246 196 -240 l 224 -139 b 158 -151 204 -146 183 -151 b 108 -111 131 -151 108 -137 b 194 0 108 -82 140 -43 l 213 0 l 213 708 l 76 708 z m 68 835 l 222 835 l 222 982 l 68 982 z "},"İ":{"ha":350,"x_min":0,"x_max":0,"o":"m 99 0 l 251 0 l 251 993 l 99 993 z m 96 1119 l 254 1119 l 254 1267 l 96 1267 z "},"ı":{"ha":289,"x_min":0,"x_max":0,"o":"m 76 0 l 213 0 l 213 708 l 76 708 z "},"Ĵ":{"ha":719,"x_min":0,"x_max":0,"o":"m 325 -19 b 626 310 560 -19 626 142 l 626 993 l 474 993 l 474 310 b 322 113 474 196 451 113 b 172 310 192 113 172 196 l 172 350 l 25 350 l 25 310 b 325 -19 25 142 90 -19 z m 344 1100 l 474 1100 l 549 1224 l 551 1224 l 625 1100 l 756 1100 l 624 1292 l 476 1292 z "},"ĵ":{"ha":289,"x_min":0,"x_max":0,"o":"m 43 -251 b 213 -37 143 -251 213 -189 l 213 708 l 76 708 l 76 -32 b 13 -135 76 -111 56 -135 b -42 -131 -8 -135 -19 -133 l -42 -243 b 43 -251 -7 -249 14 -251 z m -61 815 l 68 815 l 143 939 l 146 939 l 219 815 l 350 815 l 218 1007 l 71 1007 z "},"Ķ":{"ha":904,"x_min":0,"x_max":0,"o":"m 99 0 l 251 0 l 251 310 l 410 478 l 746 0 l 925 0 l 504 579 l 893 993 l 722 993 l 251 490 l 251 993 l 99 993 z m 410 -331 b 561 -183 521 -307 561 -253 l 561 -68 l 410 -68 l 410 -183 l 482 -183 b 410 -272 482 -239 460 -260 z "},"ķ":{"ha":688,"x_min":0,"x_max":0,"o":"m 76 0 l 213 0 l 213 264 l 315 363 l 547 0 l 708 0 l 407 449 l 679 708 l 522 708 l 213 408 l 213 993 l 76 993 z m 307 -331 b 458 -183 418 -307 458 -253 l 458 -68 l 307 -68 l 307 -183 l 379 -183 b 307 -272 379 -239 357 -260 z "},"ĸ":{"ha":694,"x_min":0,"x_max":0,"o":"m 76 0 l 213 0 l 213 249 l 322 351 l 547 0 l 708 0 l 414 439 l 700 708 l 540 708 l 213 396 l 213 708 l 76 708 z "},"Ĺ":{"ha":775,"x_min":0,"x_max":0,"o":"m 99 0 l 754 0 l 754 132 l 251 132 l 251 993 l 99 993 z m 111 1100 l 219 1100 l 353 1292 l 193 1292 z "},"ĺ":{"ha":289,"x_min":0,"x_max":0,"o":"m 76 0 l 213 0 l 213 993 l 76 993 z m 79 1040 l 188 1040 l 321 1232 l 161 1232 z "},"Ļ":{"ha":775,"x_min":0,"x_max":0,"o":"m 99 0 l 754 0 l 754 132 l 251 132 l 251 993 l 99 993 z m 351 -331 b 503 -183 463 -307 503 -253 l 503 -68 l 351 -68 l 351 -183 l 424 -183 b 351 -272 424 -239 401 -260 z "},"ļ":{"ha":289,"x_min":0,"x_max":0,"o":"m 76 0 l 213 0 l 213 993 l 76 993 z m 69 -331 b 221 -183 181 -307 221 -253 l 221 -68 l 69 -68 l 69 -183 l 142 -183 b 69 -272 142 -239 119 -260 z "},"Ľ":{"ha":775,"x_min":0,"x_max":0,"o":"m 99 0 l 754 0 l 754 132 l 251 132 l 251 993 l 99 993 z m 408 722 l 510 722 l 596 993 l 440 993 z "},"ľ":{"ha":329,"x_min":0,"x_max":0,"o":"m 76 0 l 213 0 l 213 993 l 76 993 z m 256 725 l 357 725 l 443 996 l 288 996 z "},"Ł":{"ha":828,"x_min":0,"x_max":0,"o":"m 39 258 l 151 342 l 151 0 l 807 0 l 807 132 l 304 132 l 304 453 l 526 617 l 526 736 l 304 574 l 304 993 l 151 993 l 151 461 l 39 379 z "},"ł":{"ha":396,"x_min":0,"x_max":0,"o":"m 32 350 l 131 421 l 131 0 l 267 0 l 267 519 l 365 590 l 365 710 l 267 639 l 267 993 l 131 993 l 131 540 l 32 469 z "},"Ń":{"ha":990,"x_min":0,"x_max":0,"o":"m 99 0 l 251 0 l 251 764 l 254 764 l 717 0 l 892 0 l 892 993 l 738 993 l 738 229 l 735 229 l 274 993 l 99 993 z m 431 1100 l 539 1100 l 672 1292 l 513 1292 z "},"ń":{"ha":756,"x_min":0,"x_max":0,"o":"m 549 454 l 549 0 l 685 0 l 685 492 b 449 729 685 654 579 729 b 215 619 326 729 253 674 l 213 619 l 213 708 l 76 708 l 76 0 l 213 0 l 213 435 b 404 613 213 542 288 613 b 549 454 507 613 549 549 z m 325 815 l 433 815 l 567 1007 l 407 1007 z "},"Ņ":{"ha":990,"x_min":0,"x_max":0,"o":"m 99 0 l 251 0 l 251 764 l 254 764 l 717 0 l 892 0 l 892 993 l 738 993 l 738 229 l 735 229 l 274 993 l 99 993 z m 421 -331 b 572 -183 532 -307 572 -253 l 572 -68 l 421 -68 l 421 -183 l 493 -183 b 421 -272 493 -239 471 -260 z "},"ņ":{"ha":756,"x_min":0,"x_max":0,"o":"m 549 454 l 549 0 l 685 0 l 685 492 b 449 729 685 654 579 729 b 215 619 326 729 253 674 l 213 619 l 213 708 l 76 708 l 76 0 l 213 0 l 213 435 b 404 613 213 542 288 613 b 549 454 507 613 549 549 z m 306 -331 b 457 -183 417 -307 457 -253 l 457 -68 l 306 -68 l 306 -183 l 378 -183 b 306 -272 378 -239 356 -260 z "},"Ň":{"ha":990,"x_min":0,"x_max":0,"o":"m 99 0 l 251 0 l 251 764 l 254 764 l 717 0 l 892 0 l 892 993 l 738 993 l 738 229 l 735 229 l 274 993 l 99 993 z m 290 1292 l 422 1100 l 569 1100 l 701 1292 l 571 1292 l 497 1168 l 494 1168 l 419 1292 z "},"ň":{"ha":756,"x_min":0,"x_max":0,"o":"m 549 454 l 549 0 l 685 0 l 685 492 b 449 729 685 654 579 729 b 215 619 326 729 253 674 l 213 619 l 213 708 l 76 708 l 76 0 l 213 0 l 213 435 b 404 613 213 542 288 613 b 549 454 507 613 549 549 z m 185 1007 l 317 815 l 464 815 l 596 1007 l 465 1007 l 392 883 l 389 883 l 314 1007 z "},"Ŋ":{"ha":990,"x_min":0,"x_max":0,"o":"m 639 -247 b 892 15 793 -247 892 -167 l 892 993 l 738 993 l 738 226 l 735 226 l 274 993 l 99 993 l 99 0 l 251 0 l 251 764 l 254 764 l 729 -21 b 547 -125 724 -110 657 -135 l 547 -237 b 639 -247 572 -244 603 -247 z "},"ŋ":{"ha":756,"x_min":0,"x_max":0,"o":"m 508 -237 b 685 -42 618 -237 685 -189 l 685 492 b 449 729 685 654 579 729 b 215 619 326 729 253 674 l 213 619 l 213 708 l 76 708 l 76 0 l 213 0 l 213 435 b 404 613 213 542 288 613 b 549 454 507 613 549 549 l 549 -29 b 413 -115 549 -110 507 -121 l 413 -228 b 508 -237 442 -235 472 -237 z "},"Ō":{"ha":1075,"x_min":0,"x_max":0,"o":"m 538 -19 b 1025 497 835 -19 1025 199 b 538 1013 1025 796 835 1013 b 50 497 240 1013 50 796 b 538 -19 50 199 240 -19 z m 210 497 b 538 881 210 701 303 881 b 865 497 772 881 865 701 b 538 113 865 293 772 113 b 210 497 303 113 210 293 z m 354 1119 l 721 1119 l 721 1226 l 354 1226 z "},"ō":{"ha":786,"x_min":0,"x_max":0,"o":"m 393 -21 b 747 356 614 -21 747 133 b 394 731 747 576 614 731 b 39 354 172 731 39 575 b 393 -21 39 132 172 -21 z m 181 354 b 394 617 181 503 247 617 b 606 354 539 617 606 503 b 394 92 606 207 539 92 b 181 354 247 92 181 207 z m 210 838 l 576 838 l 576 944 l 210 944 z "},"Ő":{"ha":1075,"x_min":0,"x_max":0,"o":"m 538 -19 b 1025 497 835 -19 1025 199 b 538 1013 1025 796 835 1013 b 50 497 240 1013 50 796 b 538 -19 50 199 240 -19 z m 210 497 b 538 881 210 701 303 881 b 865 497 772 881 865 701 b 538 113 865 293 772 113 b 210 497 303 113 210 293 z m 372 1100 l 478 1100 l 608 1292 l 457 1292 z m 581 1100 l 686 1100 l 822 1292 l 671 1292 z "},"ő":{"ha":786,"x_min":0,"x_max":0,"o":"m 393 -21 b 747 356 614 -21 747 133 b 394 731 747 576 614 731 b 39 354 172 731 39 575 b 393 -21 39 132 172 -21 z m 181 354 b 394 617 181 503 247 617 b 606 354 539 617 606 503 b 394 92 606 207 539 92 b 181 354 247 92 181 207 z m 229 818 l 335 818 l 465 1010 l 314 1010 z m 438 818 l 543 818 l 679 1010 l 528 1010 z "},"Œ":{"ha":1546,"x_min":0,"x_max":0,"o":"m 465 -19 b 785 183 611 -19 721 50 l 785 0 l 1501 0 l 1501 132 l 938 132 l 938 447 l 1419 447 l 1419 579 l 938 579 l 938 861 l 1488 861 l 1488 993 l 785 993 l 785 811 b 465 1013 721 943 611 1013 b 51 497 221 1013 51 796 b 465 -19 51 199 221 -19 z m 211 497 b 496 881 211 701 283 881 b 774 497 649 881 774 756 b 496 113 774 239 649 113 b 211 497 283 113 211 293 z "},"œ":{"ha":1332,"x_min":0,"x_max":0,"o":"m 393 -21 b 676 113 518 -21 615 29 b 957 -21 735 29 831 -21 b 1285 218 1143 -21 1247 82 l 1146 218 b 960 90 1133 171 1085 90 b 747 318 819 90 750 200 l 1292 318 b 1293 369 1293 329 1293 350 b 957 731 1293 589 1172 731 b 676 597 833 731 736 681 b 394 729 617 679 519 729 b 39 354 172 729 39 575 b 393 -21 39 132 172 -21 z m 181 354 b 394 617 181 503 247 617 b 606 354 539 617 606 503 b 394 93 606 207 539 93 b 181 354 247 93 181 207 z m 747 425 b 953 619 756 542 839 619 b 1151 425 1074 619 1151 536 z "},"Ŕ":{"ha":911,"x_min":0,"x_max":0,"o":"m 99 0 l 251 0 l 251 389 l 507 389 b 700 0 750 389 656 42 l 864 0 l 864 10 b 664 461 810 26 894 418 l 664 464 b 850 707 774 489 850 581 b 513 993 850 890 732 993 l 99 993 z m 251 521 l 251 861 l 482 861 b 696 696 635 861 696 803 b 479 521 696 582 619 521 z m 374 1100 l 482 1100 l 615 1292 l 456 1292 z "},"ŕ":{"ha":483,"x_min":0,"x_max":0,"o":"m 213 367 b 425 594 213 501 301 594 b 471 590 442 594 454 593 l 471 721 b 406 725 450 724 431 725 b 215 574 310 725 253 663 l 213 574 l 213 708 l 76 708 l 76 0 l 213 0 z m 208 815 l 317 815 l 450 1007 l 290 1007 z "},"Ŗ":{"ha":911,"x_min":0,"x_max":0,"o":"m 99 0 l 251 0 l 251 389 l 507 389 b 700 0 750 389 656 42 l 864 0 l 864 10 b 664 461 810 26 894 418 l 664 464 b 850 707 774 489 850 581 b 513 993 850 890 732 993 l 99 993 z m 251 521 l 251 861 l 482 861 b 696 696 635 861 696 803 b 479 521 696 582 619 521 z m 394 -331 b 546 -183 506 -307 546 -253 l 546 -68 l 394 -68 l 394 -183 l 467 -183 b 394 -272 467 -239 444 -260 z "},"ŗ":{"ha":483,"x_min":0,"x_max":0,"o":"m 213 367 b 425 594 213 501 301 594 b 471 590 442 594 454 593 l 471 721 b 406 725 450 724 431 725 b 215 574 310 725 253 663 l 213 574 l 213 708 l 76 708 l 76 0 l 213 0 z m 69 -331 b 221 -183 181 -307 221 -253 l 221 -68 l 69 -68 l 69 -183 l 142 -183 b 69 -272 142 -239 119 -260 z "},"Ř":{"ha":911,"x_min":0,"x_max":0,"o":"m 99 0 l 251 0 l 251 389 l 507 389 b 700 0 750 389 656 42 l 864 0 l 864 10 b 664 461 810 26 894 418 l 664 464 b 850 707 774 489 850 581 b 513 993 850 890 732 993 l 99 993 z m 233 1292 l 365 1100 l 513 1100 l 644 1292 l 514 1292 l 440 1168 l 438 1168 l 363 1292 z m 251 521 l 251 861 l 482 861 b 696 696 635 861 696 803 b 479 521 696 582 619 521 z "},"ř":{"ha":483,"x_min":0,"x_max":0,"o":"m 213 367 b 425 594 213 501 301 594 b 471 590 442 594 454 593 l 471 721 b 406 725 450 724 431 725 b 215 574 310 725 253 663 l 213 574 l 213 708 l 76 708 l 76 0 l 213 0 z m 68 1007 l 200 815 l 347 815 l 479 1007 l 349 1007 l 275 883 l 272 883 l 197 1007 z "},"Ś":{"ha":878,"x_min":0,"x_max":0,"o":"m 472 -19 b 836 279 721 -19 836 108 b 464 583 836 489 656 535 b 232 750 336 615 232 639 b 421 882 232 836 296 882 b 650 697 565 882 633 817 l 808 697 b 419 1013 793 897 646 1013 b 72 742 206 1013 72 914 b 399 461 72 553 243 503 b 676 271 579 415 676 397 b 468 111 676 181 628 111 b 192 335 282 111 203 201 l 33 335 b 472 -19 44 111 221 -19 z m 364 1100 l 472 1100 l 606 1292 l 446 1292 z "},"ś":{"ha":678,"x_min":0,"x_max":0,"o":"m 356 -19 b 647 201 542 -19 647 64 b 375 428 647 360 506 397 b 196 531 275 450 196 457 b 326 619 196 583 235 619 b 483 503 444 619 474 557 l 621 503 b 324 729 611 625 518 729 b 54 525 153 729 54 647 b 319 313 54 378 196 342 b 506 194 411 293 506 283 b 354 90 506 143 474 90 b 167 236 222 90 172 154 l 29 236 b 356 -19 33 92 140 -19 z m 272 815 l 381 815 l 514 1007 l 354 1007 z "},"Ŝ":{"ha":878,"x_min":0,"x_max":0,"o":"m 472 -19 b 836 279 721 -19 836 108 b 464 583 836 489 656 535 b 232 750 336 615 232 639 b 421 882 232 836 296 882 b 650 697 565 882 633 817 l 808 697 b 419 1013 793 897 646 1013 b 72 742 206 1013 72 914 b 399 461 72 553 243 503 b 676 271 579 415 676 397 b 468 111 676 181 628 111 b 192 335 282 111 203 201 l 33 335 b 472 -19 44 111 221 -19 z m 224 1100 l 353 1100 l 428 1224 l 431 1224 l 504 1100 l 635 1100 l 503 1292 l 356 1292 z "},"ŝ":{"ha":678,"x_min":0,"x_max":0,"o":"m 356 -19 b 647 201 542 -19 647 64 b 375 428 647 360 506 397 b 196 531 275 450 196 457 b 326 619 196 583 235 619 b 483 503 444 619 474 557 l 621 503 b 324 729 611 625 518 729 b 54 525 153 729 54 647 b 319 313 54 378 196 342 b 506 194 411 293 506 283 b 354 90 506 143 474 90 b 167 236 222 90 172 154 l 29 236 b 356 -19 33 92 140 -19 z m 133 815 l 263 815 l 338 939 l 340 939 l 414 815 l 544 815 l 413 1007 l 265 1007 z "},"Ş":{"ha":878,"x_min":0,"x_max":0,"o":"m 454 -275 b 607 -167 532 -275 607 -243 b 469 -76 607 -90 529 -68 l 469 -74 l 517 -18 b 836 279 735 -4 836 119 b 464 583 836 489 656 535 b 232 750 336 615 232 639 b 421 882 232 836 296 882 b 650 697 565 882 633 817 l 808 697 b 419 1013 793 897 646 1013 b 72 742 206 1013 72 914 b 399 461 72 553 243 503 b 676 271 579 415 676 397 b 468 111 676 181 628 111 b 192 335 282 111 203 201 l 33 335 b 440 -18 44 121 206 -8 l 369 -103 l 390 -133 b 446 -124 404 -128 429 -124 b 499 -165 479 -124 499 -135 b 431 -214 499 -194 475 -214 b 336 -193 394 -214 367 -206 l 304 -232 b 454 -275 342 -256 394 -275 z "},"ş":{"ha":678,"x_min":0,"x_max":0,"o":"m 313 -275 b 465 -167 390 -275 465 -243 b 328 -76 465 -90 388 -68 l 328 -74 l 374 -19 b 647 201 549 -14 647 68 b 375 428 647 360 506 397 b 196 531 275 450 196 457 b 326 619 196 583 235 619 b 483 503 444 619 474 557 l 621 503 b 324 729 611 625 518 729 b 54 525 153 729 54 647 b 319 313 54 378 196 342 b 506 194 411 293 506 283 b 354 90 506 143 474 90 b 167 236 222 90 172 154 l 29 236 b 300 -17 33 104 122 1 l 228 -103 l 249 -133 b 304 -124 263 -128 288 -124 b 357 -165 338 -124 357 -135 b 289 -214 357 -194 333 -214 b 194 -193 253 -214 225 -206 l 163 -232 b 313 -275 200 -256 253 -275 z "},"Š":{"ha":878,"x_min":0,"x_max":0,"o":"m 472 -19 b 836 279 721 -19 836 108 b 464 583 836 489 656 535 b 232 750 336 615 232 639 b 421 882 232 836 296 882 b 650 697 565 882 633 817 l 808 697 b 419 1013 793 897 646 1013 b 72 742 206 1013 72 914 b 399 461 72 553 243 503 b 676 271 579 415 676 397 b 468 111 676 181 628 111 b 192 335 282 111 203 201 l 33 335 b 472 -19 44 111 221 -19 z m 224 1292 l 356 1100 l 503 1100 l 635 1292 l 504 1292 l 431 1168 l 428 1168 l 353 1292 z "},"š":{"ha":678,"x_min":0,"x_max":0,"o":"m 356 -19 b 647 201 542 -19 647 64 b 375 428 647 360 506 397 b 196 531 275 450 196 457 b 326 619 196 583 235 619 b 483 503 444 619 474 557 l 621 503 b 324 729 611 625 518 729 b 54 525 153 729 54 647 b 319 313 54 378 196 342 b 506 194 411 293 506 283 b 354 90 506 143 474 90 b 167 236 222 90 172 154 l 29 236 b 356 -19 33 92 140 -19 z m 133 1007 l 265 815 l 413 815 l 544 1007 l 414 1007 l 340 883 l 338 883 l 263 1007 z "},"Ţ":{"ha":838,"x_min":0,"x_max":0,"o":"m 342 0 l 389 0 l 303 -103 l 324 -133 b 379 -124 338 -128 363 -124 b 432 -165 413 -124 432 -135 b 364 -214 432 -194 408 -214 b 269 -193 328 -214 300 -206 l 238 -232 b 388 -275 275 -256 328 -275 b 540 -167 465 -275 540 -243 b 403 -76 540 -90 463 -68 l 403 -74 l 465 0 l 496 0 l 496 861 l 817 861 l 817 993 l 21 993 l 21 861 l 342 861 z "},"ţ":{"ha":432,"x_min":0,"x_max":0,"o":"m 310 -8 b 396 0 339 -8 361 -7 l 396 110 b 338 104 372 106 361 104 b 258 196 279 104 258 121 l 258 596 l 394 596 l 394 708 l 258 708 l 258 936 l 122 936 l 122 708 l 19 708 l 19 596 l 122 596 l 122 200 b 239 -1 122 72 165 17 l 169 -85 l 190 -115 b 246 -106 204 -110 229 -106 b 299 -147 279 -106 299 -117 b 231 -196 299 -176 275 -196 b 136 -175 194 -196 167 -187 l 104 -214 b 254 -257 142 -237 194 -257 b 407 -149 332 -257 407 -225 b 269 -58 407 -72 329 -50 l 269 -56 z "},"Ť":{"ha":838,"x_min":0,"x_max":0,"o":"m 342 0 l 496 0 l 496 861 l 817 861 l 817 993 l 21 993 l 21 861 l 342 861 z m 213 1292 l 344 1100 l 492 1100 l 624 1292 l 493 1292 l 419 1168 l 417 1168 l 342 1292 z "},"ť":{"ha":432,"x_min":0,"x_max":0,"o":"m 310 -8 b 396 0 339 -8 361 -7 l 396 110 b 338 104 372 106 361 104 b 258 196 279 104 258 121 l 258 596 l 394 596 l 394 708 l 258 708 l 258 936 l 122 936 l 122 708 l 19 708 l 19 596 l 122 596 l 122 200 b 310 -8 122 36 193 -8 z m 315 775 l 411 775 l 493 993 l 347 993 z "},"Ŧ":{"ha":838,"x_min":0,"x_max":0,"o":"m 342 0 l 496 0 l 496 463 l 726 463 l 726 565 l 496 565 l 496 861 l 817 861 l 817 993 l 21 993 l 21 861 l 342 861 l 342 565 l 147 565 l 147 463 l 342 463 z "},"ŧ":{"ha":440,"x_min":0,"x_max":0,"o":"m 24 371 l 126 371 l 126 200 b 314 -8 126 36 197 -8 b 400 0 343 -8 365 -7 l 400 110 b 342 104 376 106 365 104 b 263 196 283 104 263 121 l 263 371 l 399 371 l 399 475 l 263 475 l 263 596 l 399 596 l 399 708 l 263 708 l 263 936 l 126 936 l 126 708 l 24 708 l 24 596 l 126 596 l 126 475 l 24 475 z "},"Ũ":{"ha":960,"x_min":0,"x_max":0,"o":"m 479 -19 b 868 338 753 -19 868 124 l 868 993 l 714 993 l 714 338 b 479 113 714 183 638 113 b 244 338 322 113 244 183 l 244 993 l 92 993 l 92 338 b 479 -19 92 124 207 -19 z m 272 1108 l 364 1108 b 400 1157 364 1126 368 1157 b 574 1106 440 1157 504 1106 b 681 1253 631 1106 681 1146 l 589 1253 b 554 1204 589 1232 585 1204 b 379 1256 513 1204 450 1256 b 272 1108 322 1256 272 1213 z "},"ũ":{"ha":756,"x_min":0,"x_max":0,"o":"m 307 -19 b 540 89 429 -19 503 35 l 543 89 l 543 0 l 679 0 l 679 708 l 543 708 l 543 274 b 351 96 543 167 468 96 b 207 256 249 96 207 160 l 207 708 l 71 708 l 71 218 b 307 -19 71 56 176 -19 z m 157 824 l 249 824 b 285 872 249 842 253 872 b 458 821 325 872 389 821 b 565 968 515 821 565 861 l 474 968 b 439 919 474 947 469 919 b 264 971 397 919 335 971 b 157 824 207 971 157 928 z "},"Ū":{"ha":960,"x_min":0,"x_max":0,"o":"m 479 -19 b 868 338 753 -19 868 124 l 868 993 l 714 993 l 714 338 b 479 113 714 183 638 113 b 244 338 322 113 244 183 l 244 993 l 92 993 l 92 338 b 479 -19 92 124 207 -19 z m 296 1119 l 663 1119 l 663 1226 l 296 1226 z "},"ū":{"ha":756,"x_min":0,"x_max":0,"o":"m 307 -19 b 540 89 429 -19 503 35 l 543 89 l 543 0 l 679 0 l 679 708 l 543 708 l 543 274 b 351 96 543 167 468 96 b 207 256 249 96 207 160 l 207 708 l 71 708 l 71 218 b 307 -19 71 56 176 -19 z m 181 835 l 547 835 l 547 942 l 181 942 z "},"Ŭ":{"ha":960,"x_min":0,"x_max":0,"o":"m 479 -19 b 868 338 753 -19 868 124 l 868 993 l 714 993 l 714 338 b 479 113 714 183 638 113 b 244 338 322 113 244 183 l 244 993 l 92 993 l 92 338 b 479 -19 92 124 207 -19 z m 293 1278 b 481 1086 297 1150 375 1086 b 667 1278 588 1086 661 1154 l 574 1278 b 481 1182 569 1211 540 1182 b 386 1278 421 1182 390 1211 z "},"ŭ":{"ha":756,"x_min":0,"x_max":0,"o":"m 307 -19 b 540 89 429 -19 503 35 l 543 89 l 543 0 l 679 0 l 679 708 l 543 708 l 543 274 b 351 96 543 167 468 96 b 207 256 249 96 207 160 l 207 708 l 71 708 l 71 218 b 307 -19 71 56 176 -19 z m 178 993 b 365 801 182 865 260 801 b 551 993 472 801 546 869 l 458 993 b 365 897 454 926 425 897 b 271 993 306 897 275 926 z "},"Ů":{"ha":960,"x_min":0,"x_max":0,"o":"m 479 -19 b 868 338 753 -19 868 124 l 868 993 l 714 993 l 714 338 b 479 113 714 183 638 113 b 244 338 322 113 244 183 l 244 993 l 92 993 l 92 338 b 479 -19 92 124 207 -19 z m 350 1183 b 478 1056 350 1107 406 1056 b 607 1183 553 1056 607 1107 b 478 1311 607 1260 553 1311 b 350 1183 406 1311 350 1260 z m 415 1183 b 478 1250 415 1222 442 1250 b 543 1183 517 1250 543 1222 b 478 1117 543 1143 517 1117 b 415 1183 442 1117 415 1143 z "},"ů":{"ha":756,"x_min":0,"x_max":0,"o":"m 307 -19 b 540 89 429 -19 503 35 l 543 89 l 543 0 l 679 0 l 679 708 l 543 708 l 543 274 b 351 96 543 167 468 96 b 207 256 249 96 207 160 l 207 708 l 71 708 l 71 218 b 307 -19 71 56 176 -19 z m 235 899 b 363 771 235 822 290 771 b 492 899 438 771 492 822 b 363 1026 492 975 438 1026 b 235 899 290 1026 235 975 z m 300 899 b 363 965 300 938 326 965 b 428 899 401 965 428 938 b 363 832 428 858 401 832 b 300 899 326 832 300 858 z "},"Ű":{"ha":960,"x_min":0,"x_max":0,"o":"m 479 -19 b 868 338 753 -19 868 124 l 868 993 l 714 993 l 714 338 b 479 113 714 183 638 113 b 244 338 322 113 244 183 l 244 993 l 92 993 l 92 338 b 479 -19 92 124 207 -19 z m 314 1100 l 419 1100 l 550 1292 l 399 1292 z m 522 1100 l 628 1100 l 764 1292 l 613 1292 z "},"ű":{"ha":756,"x_min":0,"x_max":0,"o":"m 307 -19 b 540 89 429 -19 503 35 l 543 89 l 543 0 l 679 0 l 679 708 l 543 708 l 543 274 b 351 96 543 167 468 96 b 207 256 249 96 207 160 l 207 708 l 71 708 l 71 218 b 307 -19 71 56 176 -19 z m 199 815 l 304 815 l 435 1007 l 283 1007 z m 407 815 l 513 815 l 649 1007 l 497 1007 z "},"Ų":{"ha":960,"x_min":0,"x_max":0,"o":"m 479 -19 l 492 -19 b 419 -140 453 -47 419 -89 b 553 -246 419 -204 465 -246 b 649 -232 586 -246 621 -240 l 649 -139 b 583 -151 629 -146 608 -151 b 533 -111 556 -151 533 -137 b 613 -6 533 -83 563 -47 b 868 338 790 35 868 163 l 868 993 l 714 993 l 714 338 b 479 113 714 183 638 113 b 244 338 322 113 244 183 l 244 993 l 92 993 l 92 338 b 479 -19 92 124 207 -19 z "},"ų":{"ha":756,"x_min":0,"x_max":0,"o":"m 307 -19 b 540 89 429 -19 503 35 l 543 89 l 543 0 l 554 0 b 450 -140 506 -24 450 -75 b 583 -246 450 -204 496 -246 b 679 -232 617 -246 651 -240 l 679 -139 b 614 -151 660 -146 639 -151 b 564 -111 586 -151 564 -137 b 650 0 564 -82 596 -43 l 679 0 l 679 708 l 543 708 l 543 274 b 351 96 543 167 468 96 b 207 256 249 96 207 160 l 207 708 l 71 708 l 71 218 b 307 -19 71 56 176 -19 z "},"Ŵ":{"ha":1288,"x_min":0,"x_max":0,"o":"m 267 0 l 432 0 l 642 799 l 644 799 l 856 0 l 1019 0 l 1268 993 l 1108 993 l 933 211 l 931 211 l 724 993 l 563 993 l 357 211 l 354 211 l 179 993 l 19 993 z m 438 1100 l 567 1100 l 642 1224 l 644 1224 l 718 1100 l 849 1100 l 717 1292 l 569 1292 z "},"ŵ":{"ha":1053,"x_min":0,"x_max":0,"o":"m 232 0 l 372 0 l 525 546 l 528 546 l 681 0 l 821 0 l 1040 708 l 899 708 l 747 160 l 744 160 l 597 708 l 460 708 l 313 160 l 310 160 l 160 708 l 13 708 z m 322 815 l 451 815 l 526 939 l 529 939 l 603 815 l 733 815 l 601 1007 l 454 1007 z "},"Ŷ":{"ha":885,"x_min":0,"x_max":0,"o":"m 365 0 l 519 0 l 519 397 l 875 993 l 711 993 l 444 518 l 442 518 l 175 993 l 10 993 l 365 397 z m 239 1100 l 368 1100 l 443 1224 l 446 1224 l 519 1100 l 650 1100 l 518 1292 l 371 1292 z "},"ŷ":{"ha":701,"x_min":0,"x_max":0,"o":"m 168 -249 b 414 -17 278 -249 346 -192 l 694 708 l 551 708 l 357 167 l 354 167 l 147 708 l -1 708 l 285 7 b 139 -132 257 -104 193 -132 b 81 -128 117 -132 104 -131 l 81 -239 b 168 -249 117 -246 138 -249 z m 142 815 l 271 815 l 346 939 l 349 939 l 422 815 l 553 815 l 421 1007 l 274 1007 z "},"Ÿ":{"ha":885,"x_min":0,"x_max":0,"o":"m 365 0 l 519 0 l 519 397 l 875 993 l 711 993 l 444 518 l 442 518 l 175 993 l 10 993 l 365 397 z m 250 1119 l 404 1119 l 404 1267 l 250 1267 z m 483 1119 l 638 1119 l 638 1267 l 483 1267 z "},"Ź":{"ha":840,"x_min":0,"x_max":0,"o":"m 31 0 l 803 0 l 803 132 l 218 132 l 218 135 l 789 861 l 789 993 l 58 993 l 58 861 l 601 861 l 601 858 l 31 132 z m 354 1100 l 463 1100 l 596 1292 l 436 1292 z "},"ź":{"ha":642,"x_min":0,"x_max":0,"o":"m 26 0 l 614 0 l 614 113 l 201 113 l 201 115 l 599 621 l 599 708 l 51 708 l 51 596 l 414 596 l 414 593 l 26 101 z m 254 815 l 363 815 l 496 1007 l 336 1007 z "},"Ż":{"ha":840,"x_min":0,"x_max":0,"o":"m 31 0 l 803 0 l 803 132 l 218 132 l 218 135 l 789 861 l 789 993 l 58 993 l 58 861 l 601 861 l 601 858 l 31 132 z m 343 1119 l 497 1119 l 497 1267 l 343 1267 z "},"ż":{"ha":642,"x_min":0,"x_max":0,"o":"m 26 0 l 614 0 l 614 113 l 201 113 l 201 115 l 599 621 l 599 708 l 51 708 l 51 596 l 414 596 l 414 593 l 26 101 z m 243 835 l 397 835 l 397 982 l 243 982 z "},"Ž":{"ha":840,"x_min":0,"x_max":0,"o":"m 31 0 l 803 0 l 803 132 l 218 132 l 218 135 l 789 861 l 789 993 l 58 993 l 58 861 l 601 861 l 601 858 l 31 132 z m 215 1292 l 347 1100 l 494 1100 l 626 1292 l 496 1292 l 422 1168 l 419 1168 l 344 1292 z "},"ž":{"ha":642,"x_min":0,"x_max":0,"o":"m 26 0 l 614 0 l 614 113 l 201 113 l 201 115 l 599 621 l 599 708 l 51 708 l 51 596 l 414 596 l 414 593 l 26 101 z m 114 1007 l 246 815 l 393 815 l 525 1007 l 394 1007 l 321 883 l 318 883 l 243 1007 z "},"ƒ":{"ha":664,"x_min":0,"x_max":0,"o":"m 108 -154 b 319 54 218 -154 288 -110 l 413 526 l 563 526 l 567 639 l 436 639 l 464 782 b 563 889 479 860 493 889 b 617 885 579 889 590 888 l 643 994 b 554 1003 604 1000 581 1003 b 331 794 439 1003 363 958 l 300 639 l 175 639 l 171 526 l 278 526 l 185 58 b 85 -40 171 -14 157 -40 b 21 -35 67 -40 51 -39 l 26 -144 b 108 -154 64 -151 85 -154 z "},"Ș":{"ha":878,"x_min":0,"x_max":0,"o":"m 472 -19 b 836 279 721 -19 836 108 b 464 583 836 489 656 535 b 232 750 336 615 232 639 b 421 882 232 836 296 882 b 650 697 565 882 633 817 l 808 697 b 419 1013 793 897 646 1013 b 72 742 206 1013 72 914 b 399 461 72 553 243 503 b 676 271 579 415 676 397 b 468 111 676 181 628 111 b 192 335 282 111 203 201 l 33 335 b 472 -19 44 111 221 -19 z m 408 -331 b 560 -183 519 -307 560 -253 l 560 -68 l 408 -68 l 408 -183 l 481 -183 b 408 -272 481 -239 458 -260 z "},"ș":{"ha":678,"x_min":0,"x_max":0,"o":"m 356 -19 b 647 201 542 -19 647 64 b 375 428 647 360 506 397 b 196 531 275 450 196 457 b 326 619 196 583 235 619 b 483 503 444 619 474 557 l 621 503 b 324 729 611 625 518 729 b 54 525 153 729 54 647 b 319 313 54 378 196 342 b 506 194 411 293 506 283 b 354 90 506 143 474 90 b 167 236 222 90 172 154 l 29 236 b 356 -19 33 92 140 -19 z m 268 -331 b 419 -183 379 -307 419 -253 l 419 -68 l 268 -68 l 268 -183 l 340 -183 b 268 -272 340 -239 318 -260 z "},"Ț":{"ha":838,"x_min":0,"x_max":0,"o":"m 342 0 l 496 0 l 496 861 l 817 861 l 817 993 l 21 993 l 21 861 l 342 861 z m 343 -331 b 494 -183 454 -307 494 -253 l 494 -68 l 343 -68 l 343 -183 l 415 -183 b 343 -272 415 -239 393 -260 z "},"ț":{"ha":432,"x_min":0,"x_max":0,"o":"m 310 -8 b 396 0 339 -8 361 -7 l 396 110 b 338 104 372 106 361 104 b 258 196 279 104 258 121 l 258 596 l 394 596 l 394 708 l 258 708 l 258 936 l 122 936 l 122 708 l 19 708 l 19 596 l 122 596 l 122 200 b 310 -8 122 36 193 -8 z m 210 -312 b 361 -165 321 -289 361 -235 l 361 -50 l 210 -50 l 210 -165 l 282 -165 b 210 -254 282 -221 260 -242 z "},"ȷ":{"ha":289,"x_min":0,"x_max":0,"o":"m 43 -251 b 213 -37 143 -251 213 -189 l 213 708 l 76 708 l 76 -32 b 13 -135 76 -111 56 -135 b -42 -131 -8 -135 -19 -133 l -42 -243 b 43 -251 -7 -249 14 -251 z "},"ˆ":{"ha":522,"x_min":0,"x_max":0,"o":"m 56 815 l 185 815 l 260 939 l 263 939 l 336 815 l 467 815 l 335 1007 l 188 1007 z "},"ˇ":{"ha":522,"x_min":0,"x_max":0,"o":"m 188 815 l 335 815 l 467 1007 l 336 1007 l 263 883 l 260 883 l 185 1007 l 56 1007 z "},"˘":{"ha":485,"x_min":0,"x_max":0,"o":"m 243 801 b 429 993 350 801 424 869 l 336 993 b 243 897 332 926 303 897 b 149 993 183 897 153 926 l 56 993 b 243 801 60 865 138 801 z "},"˙":{"ha":265,"x_min":0,"x_max":0,"o":"m 56 835 l 208 835 l 208 983 l 56 983 z "},"˚":{"ha":364,"x_min":0,"x_max":0,"o":"m 181 754 b 310 882 256 754 310 806 b 181 1010 310 958 256 1010 b 53 882 108 1010 53 958 b 181 754 53 806 108 754 z m 118 882 b 181 949 118 921 144 949 b 246 882 219 949 246 921 b 181 815 246 842 219 815 b 118 882 144 815 118 842 z "},"˛":{"ha":340,"x_min":0,"x_max":0,"o":"m 189 -246 b 285 -232 222 -246 257 -240 l 285 -139 b 219 -151 265 -146 244 -151 b 169 -111 192 -151 169 -137 b 256 0 169 -82 201 -43 l 160 0 b 56 -140 111 -24 56 -75 b 189 -246 56 -204 101 -246 z "},"˜":{"ha":519,"x_min":0,"x_max":0,"o":"m 56 824 l 147 824 b 183 872 147 842 151 872 b 357 821 224 872 288 821 b 464 968 414 821 464 861 l 372 968 b 338 919 372 947 368 919 b 163 971 296 919 233 971 b 56 824 106 971 56 928 z "},"˝":{"ha":551,"x_min":0,"x_max":0,"o":"m 261 815 l 367 815 l 503 1007 l 351 1007 z m 53 815 l 158 815 l 289 1007 l 138 1007 z "},"̀":{"ha":0,"x_min":0,"x_max":0,"o":"m 167 815 l 274 815 l 203 1007 l 50 1007 z "},"́":{"ha":0,"x_min":0,"x_max":0,"o":"m 44 815 l 153 815 l 286 1007 l 126 1007 z "},"̂":{"ha":0,"x_min":0,"x_max":0,"o":"m 56 815 l 185 815 l 260 939 l 263 939 l 336 815 l 467 815 l 335 1007 l 188 1007 z "},"̃":{"ha":0,"x_min":0,"x_max":0,"o":"m 56 824 l 147 824 b 183 872 147 842 151 872 b 357 821 224 872 288 821 b 464 968 414 821 464 861 l 372 968 b 338 919 372 947 368 919 b 163 971 296 919 233 971 b 56 824 106 971 56 928 z "},"̄":{"ha":0,"x_min":0,"x_max":0,"o":"m 56 835 l 422 835 l 422 942 l 56 942 z "},"̆":{"ha":0,"x_min":0,"x_max":0,"o":"m 243 801 b 429 993 350 801 424 869 l 336 993 b 243 897 332 926 303 897 b 149 993 183 897 153 926 l 56 993 b 243 801 60 865 138 801 z "},"̇":{"ha":0,"x_min":0,"x_max":0,"o":"m 56 835 l 210 835 l 210 982 l 56 982 z "},"̈":{"ha":0,"x_min":0,"x_max":0,"o":"m 292 835 l 446 835 l 446 982 l 292 982 z m 58 835 l 213 835 l 213 982 l 58 982 z "},"̊":{"ha":0,"x_min":0,"x_max":0,"o":"m 181 771 b 310 899 256 771 310 822 b 181 1026 310 975 256 1026 b 53 899 108 1026 53 975 b 181 771 53 822 108 771 z m 118 899 b 181 965 118 938 144 965 b 246 899 219 965 246 938 b 181 832 246 858 219 832 b 118 899 144 832 118 858 z "},"̋":{"ha":0,"x_min":0,"x_max":0,"o":"m 261 815 l 367 815 l 503 1007 l 351 1007 z m 53 815 l 158 815 l 289 1007 l 138 1007 z "},"̌":{"ha":0,"x_min":0,"x_max":0,"o":"m 188 815 l 335 815 l 467 1007 l 336 1007 l 263 883 l 260 883 l 185 1007 l 56 1007 z "},"̒":{"ha":0,"x_min":0,"x_max":0,"o":"m 60 942 l 60 815 l 211 815 l 211 942 l 139 942 b 211 1038 138 1003 160 1025 l 211 1103 b 60 942 100 1078 60 1018 z "},"̦":{"ha":0,"x_min":0,"x_max":0,"o":"m 57 -272 l 57 -331 b 208 -183 168 -307 208 -253 l 208 -68 l 57 -68 l 57 -183 l 129 -183 b 57 -272 129 -239 107 -260 z "},"̧":{"ha":0,"x_min":0,"x_max":0,"o":"m 210 -275 b 363 -167 288 -275 363 -243 b 225 -76 363 -90 285 -68 l 225 -74 l 288 0 l 211 0 l 125 -103 l 146 -133 b 201 -124 160 -128 185 -124 b 254 -165 235 -124 254 -135 b 186 -214 254 -194 231 -214 b 92 -193 150 -214 122 -206 l 60 -232 b 210 -275 97 -256 150 -275 z "},"̨":{"ha":0,"x_min":0,"x_max":0,"o":"m 189 -246 b 285 -232 222 -246 257 -240 l 285 -139 b 219 -151 265 -146 244 -151 b 169 -111 192 -151 169 -137 b 256 0 169 -82 201 -43 l 160 0 b 56 -140 111 -24 56 -75 b 189 -246 56 -204 101 -246 z "},"̵":{"ha":0,"x_min":0,"x_max":0,"o":"m 56 463 l 635 463 l 635 565 l 56 565 z "},"̶":{"ha":0,"x_min":0,"x_max":0,"o":"m 56 428 l 763 428 l 763 571 l 56 571 z "},"̷":{"ha":0,"x_min":0,"x_max":0,"o":"m 106 -14 l 792 674 l 740 725 l 56 38 z "},"̸":{"ha":0,"x_min":0,"x_max":0,"o":"m 106 -14 l 792 674 l 740 725 l 56 38 z "},"Δ":{"ha":899,"x_min":0,"x_max":0,"o":"m 29 0 l 869 0 l 869 131 l 536 993 l 360 993 l 29 131 z m 182 131 l 443 851 l 454 851 l 714 131 z "},"Ω":{"ha":1103,"x_min":0,"x_max":0,"o":"m 50 0 l 460 0 l 460 115 b 229 506 331 188 229 293 b 551 879 229 738 350 879 b 874 506 753 879 874 738 b 643 115 874 293 772 188 l 642 0 l 1053 0 l 1053 132 l 839 132 b 1029 528 950 210 1029 347 b 551 1013 1029 803 839 1013 b 72 528 264 1013 72 803 b 264 132 72 347 153 210 l 50 132 z "},"μ":{"ha":761,"x_min":0,"x_max":0,"o":"m 76 -246 l 213 -246 l 213 19 b 338 -18 246 -6 290 -18 b 546 89 438 -18 510 32 l 549 89 l 549 0 l 685 0 l 685 708 l 549 708 l 549 274 b 360 96 549 167 472 96 b 213 256 254 96 213 160 l 213 708 l 76 708 z "},"π":{"ha":785,"x_min":0,"x_max":0,"o":"m 132 0 l 268 0 l 268 596 l 500 596 l 500 196 b 654 -11 500 36 549 -11 b 740 0 682 -11 717 -7 l 740 110 b 700 104 725 106 715 104 b 638 196 653 104 638 121 l 638 596 l 743 596 l 743 708 l 19 708 l 19 596 l 132 596 z "},"Ẁ":{"ha":1288,"x_min":0,"x_max":0,"o":"m 267 0 l 432 0 l 642 799 l 644 799 l 856 0 l 1019 0 l 1268 993 l 1108 993 l 933 211 l 931 211 l 724 993 l 563 993 l 357 211 l 354 211 l 179 993 l 19 993 z m 469 1292 l 586 1100 l 693 1100 l 622 1292 z "},"ẁ":{"ha":1053,"x_min":0,"x_max":0,"o":"m 232 0 l 372 0 l 525 546 l 528 546 l 681 0 l 821 0 l 1040 708 l 899 708 l 747 160 l 744 160 l 597 708 l 460 708 l 313 160 l 310 160 l 160 708 l 13 708 z m 353 1007 l 469 815 l 576 815 l 506 1007 z "},"Ẃ":{"ha":1288,"x_min":0,"x_max":0,"o":"m 267 0 l 432 0 l 642 799 l 644 799 l 856 0 l 1019 0 l 1268 993 l 1108 993 l 933 211 l 931 211 l 724 993 l 563 993 l 357 211 l 354 211 l 179 993 l 19 993 z m 578 1100 l 686 1100 l 819 1292 l 660 1292 z "},"ẃ":{"ha":1053,"x_min":0,"x_max":0,"o":"m 232 0 l 372 0 l 525 546 l 528 546 l 681 0 l 821 0 l 1040 708 l 899 708 l 747 160 l 744 160 l 597 708 l 460 708 l 313 160 l 310 160 l 160 708 l 13 708 z m 461 815 l 569 815 l 703 1007 l 543 1007 z "},"Ẅ":{"ha":1288,"x_min":0,"x_max":0,"o":"m 267 0 l 432 0 l 642 799 l 644 799 l 856 0 l 1019 0 l 1268 993 l 1108 993 l 933 211 l 931 211 l 724 993 l 563 993 l 357 211 l 354 211 l 179 993 l 19 993 z m 450 1119 l 604 1119 l 604 1267 l 450 1267 z m 683 1119 l 838 1119 l 838 1267 l 683 1267 z "},"ẅ":{"ha":1053,"x_min":0,"x_max":0,"o":"m 232 0 l 372 0 l 525 546 l 528 546 l 681 0 l 821 0 l 1040 708 l 899 708 l 747 160 l 744 160 l 597 708 l 460 708 l 313 160 l 310 160 l 160 708 l 13 708 z m 333 835 l 488 835 l 488 982 l 333 982 z m 567 835 l 721 835 l 721 982 l 567 982 z "},"Ỳ":{"ha":885,"x_min":0,"x_max":0,"o":"m 365 0 l 519 0 l 519 397 l 875 993 l 711 993 l 444 518 l 442 518 l 175 993 l 10 993 l 365 397 z m 269 1292 l 386 1100 l 493 1100 l 422 1292 z "},"ỳ":{"ha":701,"x_min":0,"x_max":0,"o":"m 168 -249 b 414 -17 278 -249 346 -192 l 694 708 l 551 708 l 357 167 l 354 167 l 147 708 l -1 708 l 285 7 b 139 -132 257 -104 193 -132 b 81 -128 117 -132 104 -131 l 81 -239 b 168 -249 117 -246 138 -249 z m 172 1007 l 289 815 l 396 815 l 325 1007 z "}," ":{"ha":694,"x_min":0,"x_max":0,"o":""}," ":{"ha":1389,"x_min":0,"x_max":0,"o":""}," ":{"ha":694,"x_min":0,"x_max":0,"o":""}," ":{"ha":1389,"x_min":0,"x_max":0,"o":""}," ":{"ha":463,"x_min":0,"x_max":0,"o":""}," ":{"ha":347,"x_min":0,"x_max":0,"o":""}," ":{"ha":232,"x_min":0,"x_max":0,"o":""}," ":{"ha":1004,"x_min":0,"x_max":0,"o":""}," ":{"ha":276,"x_min":0,"x_max":0,"o":""}," ":{"ha":174,"x_min":0,"x_max":0,"o":""}," ":{"ha":58,"x_min":0,"x_max":0,"o":""},"​":{"ha":0,"x_min":0,"x_max":0,"o":""},"–":{"ha":810,"x_min":0,"x_max":0,"o":"m 58 289 l 753 289 l 753 418 l 58 418 z "},"—":{"ha":1503,"x_min":0,"x_max":0,"o":"m 57 288 l 1446 288 l 1446 417 l 57 417 z "},"‘":{"ha":272,"x_min":0,"x_max":0,"o":"m 57 804 l 57 653 l 208 653 l 208 804 l 136 804 b 208 917 135 876 157 903 l 208 993 b 57 804 97 965 57 894 z "},"’":{"ha":261,"x_min":0,"x_max":0,"o":"m 64 728 l 64 653 b 215 842 175 681 215 751 l 215 993 l 64 993 l 64 842 l 136 842 b 64 728 138 769 115 743 z "},"‚":{"ha":282,"x_min":0,"x_max":0,"o":"m 65 -114 l 65 -189 b 217 0 176 -161 217 -90 l 217 151 l 65 151 l 65 0 l 138 0 b 65 -114 139 -72 117 -99 z "},"“":{"ha":493,"x_min":0,"x_max":0,"o":"m 278 806 l 278 654 l 429 654 l 429 806 l 357 806 b 429 918 356 876 378 903 l 429 994 b 278 806 318 967 278 896 z m 57 654 l 208 654 l 208 806 l 136 806 b 208 918 135 876 157 903 l 208 994 b 57 806 97 967 57 896 z "},"”":{"ha":482,"x_min":0,"x_max":0,"o":"m 64 728 l 64 653 b 215 842 175 681 215 751 l 215 993 l 64 993 l 64 842 l 136 842 b 64 728 138 769 115 743 z m 285 653 b 436 842 396 681 436 751 l 436 993 l 285 993 l 285 842 l 357 842 b 285 728 358 769 336 743 z "},"„":{"ha":504,"x_min":0,"x_max":0,"o":"m 288 -114 l 288 -189 b 439 0 399 -161 439 -90 l 439 151 l 288 151 l 288 0 l 360 0 b 288 -114 361 -72 339 -99 z m 65 -189 b 217 0 176 -161 217 -90 l 217 151 l 65 151 l 65 0 l 138 0 b 65 -114 139 -72 117 -99 z "},"†":{"ha":675,"x_min":0,"x_max":0,"o":"m 263 -246 l 414 -246 l 414 582 l 657 582 l 657 711 l 414 711 l 414 993 l 263 993 l 263 711 l 19 711 l 19 582 l 263 582 z "},"‡":{"ha":728,"x_min":0,"x_max":0,"o":"m 289 -246 l 440 -246 l 440 138 l 683 138 l 683 267 l 440 267 l 440 582 l 683 582 l 683 711 l 440 711 l 440 993 l 289 993 l 289 711 l 46 711 l 46 582 l 289 582 l 289 267 l 46 267 l 46 138 l 289 138 z "},"•":{"ha":535,"x_min":0,"x_max":0,"o":"m 106 253 l 431 253 l 431 578 l 106 578 z "},"…":{"ha":831,"x_min":0,"x_max":0,"o":"m 63 0 l 214 0 l 214 151 l 63 151 z m 340 0 l 492 0 l 492 151 l 340 151 z m 617 0 l 768 0 l 768 151 l 617 151 z "},"‰":{"ha":1681,"x_min":0,"x_max":0,"o":"m 1414 -19 b 1653 256 1574 -19 1653 103 b 1414 532 1653 410 1572 532 b 1175 256 1254 532 1175 410 b 1414 -19 1175 103 1256 -19 z m 29 704 b 269 428 29 550 111 428 b 508 704 429 428 508 550 b 269 979 508 857 426 979 b 29 704 108 979 29 857 z m 156 704 b 269 876 156 810 192 876 b 382 704 346 876 382 810 b 269 532 382 599 346 532 b 156 704 192 532 156 599 z m 254 0 l 374 0 l 907 960 l 788 960 z m 654 256 b 893 -19 654 103 735 -19 b 1132 256 1053 -19 1132 103 b 893 532 1132 410 1051 532 b 654 256 733 532 654 410 z m 779 256 b 893 428 779 361 817 428 b 1007 256 969 428 1007 361 b 893 83 1007 150 969 83 b 779 256 817 83 779 150 z m 1300 256 b 1414 428 1300 361 1338 428 b 1528 256 1490 428 1528 361 b 1414 83 1528 150 1490 83 b 1300 256 1338 83 1300 150 z "},"‹":{"ha":406,"x_min":0,"x_max":0,"o":"m 336 57 l 336 204 l 138 353 l 138 356 l 336 507 l 336 653 l 60 431 l 60 279 z "},"›":{"ha":406,"x_min":0,"x_max":0,"o":"m 69 57 l 346 278 l 346 429 l 69 653 l 69 506 l 268 356 l 268 353 l 69 203 z "},"⁄":{"ha":290,"x_min":0,"x_max":0,"o":"m -243 0 l -100 0 l 529 993 l 386 993 z "},"⁰":{"ha":557,"x_min":0,"x_max":0,"o":"m 279 501 b 519 794 446 501 519 638 b 279 1089 519 951 446 1089 b 38 794 113 1089 38 953 b 279 501 38 636 113 501 z m 163 794 b 279 990 163 907 189 990 b 394 794 368 990 394 907 b 279 600 394 682 368 600 b 163 794 189 600 163 682 z "},"⁴":{"ha":525,"x_min":0,"x_max":0,"o":"m 290 506 l 414 506 l 414 628 l 494 628 l 494 728 l 414 728 l 414 1069 l 290 1069 l 31 746 l 31 628 l 290 628 z m 128 728 l 290 931 l 290 728 z "},"⁵":{"ha":515,"x_min":0,"x_max":0,"o":"m 263 493 b 478 697 383 493 478 565 b 292 889 478 814 403 889 b 168 846 239 889 199 872 l 168 847 l 193 969 l 451 969 l 451 1069 l 106 1069 l 43 757 l 160 757 b 256 800 185 786 219 800 b 351 699 318 800 351 764 b 256 593 351 631 314 593 b 154 678 193 593 160 629 l 29 678 b 263 493 33 568 117 493 z "},"⁶":{"ha":528,"x_min":0,"x_max":0,"o":"m 275 497 b 493 699 408 497 493 582 b 300 890 493 810 415 890 b 161 831 236 890 189 865 l 158 832 l 158 840 b 271 993 160 943 197 993 b 351 932 318 993 344 969 l 475 932 b 274 1088 460 1019 385 1088 b 39 788 131 1088 39 982 b 275 497 39 631 96 497 z m 169 693 b 274 796 169 751 207 796 b 371 693 335 796 371 754 b 269 593 371 636 336 593 b 169 693 206 593 169 635 z "},"⁷":{"ha":446,"x_min":0,"x_max":0,"o":"m 101 506 l 231 506 b 424 978 231 683 297 875 l 424 1069 l 14 1069 l 14 969 l 292 969 l 292 968 b 101 506 194 883 101 689 z "},"⁸":{"ha":526,"x_min":0,"x_max":0,"o":"m 263 500 b 492 672 392 500 492 558 b 386 814 492 747 442 789 l 386 815 b 465 936 428 839 465 875 b 263 1090 465 1033 378 1090 b 61 936 150 1090 61 1033 b 142 815 61 875 99 839 l 142 814 b 35 672 88 792 35 750 b 263 500 35 558 135 500 z m 158 683 b 263 771 158 733 196 771 b 367 683 331 771 367 733 b 263 594 367 632 331 594 b 158 683 196 594 158 632 z m 174 928 b 263 1001 174 971 206 1001 b 351 928 321 1001 351 971 b 263 853 351 882 322 853 b 174 928 204 853 174 882 z "},"⁹":{"ha":526,"x_min":0,"x_max":0,"o":"m 254 501 b 489 799 397 501 489 607 b 253 1092 489 957 431 1092 b 36 889 119 1092 36 1007 b 228 697 36 778 114 697 b 365 754 289 697 338 722 l 367 754 l 367 744 b 257 596 367 664 339 596 b 176 657 204 596 183 626 l 51 657 b 254 501 67 569 144 501 z m 156 894 b 257 996 156 954 192 996 b 361 896 322 996 361 954 b 254 793 361 838 322 793 b 156 894 193 793 156 835 z "},"₀":{"ha":557,"x_min":0,"x_max":0,"o":"m 279 -150 b 519 143 446 -150 519 -14 b 279 438 519 300 446 438 b 38 143 113 438 38 301 b 279 -150 38 -15 113 -150 z m 163 143 b 279 339 163 256 189 339 b 394 143 368 339 394 256 b 279 -51 394 31 368 -51 b 163 143 189 -51 163 31 z "},"₁":{"ha":326,"x_min":0,"x_max":0,"o":"m 138 250 l 138 -139 l 263 -139 l 263 425 l 160 425 b 18 326 158 360 106 328 l 18 231 b 138 250 67 231 114 233 z "},"₂":{"ha":494,"x_min":0,"x_max":0,"o":"m 28 -139 l 451 -139 l 451 -39 l 201 -39 l 201 -37 b 300 51 219 -4 258 22 b 454 269 376 106 454 161 b 257 439 454 378 375 439 b 39 221 108 439 39 344 l 158 221 b 253 339 158 299 188 339 b 329 261 308 339 329 304 b 163 82 329 178 244 142 b 28 -139 72 15 28 -36 z "},"₃":{"ha":518,"x_min":0,"x_max":0,"o":"m 267 -151 b 481 21 393 -151 481 -90 b 379 158 481 88 451 136 l 379 160 b 463 282 431 185 463 224 b 265 439 463 382 371 439 b 46 253 124 439 46 360 l 165 253 b 258 339 165 307 194 339 b 338 267 311 339 338 313 b 247 197 338 218 304 197 l 213 197 l 213 108 l 250 108 b 354 26 311 108 354 88 b 258 -51 354 -22 326 -51 b 150 58 178 -51 150 -11 l 29 58 b 267 -151 29 -75 114 -151 z "},"₄":{"ha":525,"x_min":0,"x_max":0,"o":"m 290 -139 l 414 -139 l 414 -17 l 494 -17 l 494 83 l 414 83 l 414 425 l 290 425 l 31 101 l 31 -17 l 290 -17 z m 128 83 l 290 286 l 290 83 z "},"₅":{"ha":515,"x_min":0,"x_max":0,"o":"m 263 -151 b 478 53 383 -151 478 -79 b 292 244 478 169 403 244 b 168 201 239 244 199 228 l 168 203 l 193 325 l 451 325 l 451 425 l 106 425 l 43 113 l 160 113 b 256 156 185 142 219 156 b 351 54 318 156 351 119 b 256 -51 351 -14 314 -51 b 154 33 193 -51 160 -15 l 29 33 b 263 -151 33 -76 117 -151 z "},"₆":{"ha":528,"x_min":0,"x_max":0,"o":"m 275 -151 b 493 50 408 -151 493 -67 b 300 242 493 161 415 242 b 161 182 236 242 189 217 l 158 183 l 158 192 b 271 344 160 294 197 344 b 351 283 318 344 344 321 l 475 283 b 274 439 460 371 385 439 b 39 139 131 439 39 333 b 275 -151 39 -18 96 -151 z m 169 44 b 274 147 169 103 207 147 b 371 44 335 147 371 106 b 269 -56 371 -12 336 -56 b 169 44 206 -56 169 -14 z "},"₇":{"ha":446,"x_min":0,"x_max":0,"o":"m 101 -139 l 231 -139 b 424 333 231 39 297 231 l 424 425 l 14 425 l 14 325 l 292 325 l 292 324 b 101 -139 194 239 101 44 z "},"₈":{"ha":526,"x_min":0,"x_max":0,"o":"m 263 -151 b 492 21 392 -151 492 -93 b 386 163 492 96 442 138 l 386 164 b 465 285 428 188 465 224 b 263 439 465 382 378 439 b 61 285 150 439 61 382 b 142 164 61 224 99 188 l 142 163 b 35 21 88 140 35 99 b 263 -151 35 -93 135 -151 z m 158 32 b 263 119 158 82 196 119 b 367 32 331 119 367 82 b 263 -57 367 -19 331 -57 b 158 32 196 -57 158 -19 z m 174 276 b 263 350 174 319 206 350 b 351 276 321 350 351 319 b 263 201 351 231 322 201 b 174 276 204 201 174 231 z "},"₉":{"ha":526,"x_min":0,"x_max":0,"o":"m 254 -151 b 489 146 397 -151 489 -46 b 253 439 489 304 431 439 b 36 236 119 439 36 354 b 228 44 36 125 114 44 b 365 101 289 44 338 69 l 367 101 l 367 92 b 257 -57 367 11 339 -57 b 176 4 204 -57 183 -26 l 51 4 b 254 -151 67 -83 144 -151 z m 156 242 b 257 343 156 301 192 343 b 361 243 322 343 361 301 b 254 140 361 185 322 140 b 156 242 193 140 156 182 z "},"€":{"ha":925,"x_min":0,"x_max":0,"o":"m 525 -19 b 871 346 740 -19 851 126 l 721 346 b 524 110 713 224 667 110 b 303 349 392 110 325 211 l 565 349 l 565 435 l 294 435 b 293 476 293 449 293 463 l 293 511 l 565 511 l 565 596 l 301 596 b 524 842 324 738 389 842 b 721 629 665 842 706 728 l 871 629 b 525 971 850 825 739 971 b 151 596 311 971 183 822 l 67 596 l 67 511 l 143 511 l 143 476 b 144 435 143 463 143 449 l 67 435 l 67 349 l 153 349 b 525 -19 186 126 314 -19 z "},"™":{"ha":922,"x_min":0,"x_max":0,"o":"m 410 606 l 501 606 l 501 881 l 504 881 l 586 606 l 665 606 l 749 881 l 751 881 l 751 606 l 843 606 l 843 993 l 708 993 l 626 728 l 625 728 l 546 993 l 410 993 z m 28 907 l 146 907 l 146 606 l 243 606 l 243 907 l 361 907 l 361 993 l 28 993 z "},"Ω":{"ha":1103,"x_min":0,"x_max":0,"o":"m 50 0 l 460 0 l 460 115 b 229 506 331 188 229 293 b 551 879 229 738 350 879 b 874 506 753 879 874 738 b 643 115 874 293 772 188 l 642 0 l 1053 0 l 1053 132 l 839 132 b 1029 528 950 210 1029 347 b 551 1013 1029 803 839 1013 b 72 528 264 1013 72 803 b 264 132 72 347 153 210 l 50 132 z "},"⅛":{"ha":1093,"x_min":0,"x_max":0,"o":"m 144 818 l 144 429 l 269 429 l 269 993 l 167 993 b 25 894 165 928 113 896 l 25 799 b 144 818 74 799 121 801 z m 99 0 l 242 0 l 871 993 l 728 993 z m 606 160 b 833 -12 606 46 706 -12 b 1063 160 963 -12 1063 46 b 957 301 1063 235 1013 276 l 957 303 b 1036 424 999 326 1036 363 b 833 578 1036 521 949 578 b 632 424 721 578 632 521 b 713 303 632 363 669 326 l 713 301 b 606 160 658 279 606 238 z m 729 171 b 833 258 729 221 767 258 b 938 171 901 258 938 221 b 833 82 938 119 901 82 b 729 171 767 82 729 119 z m 744 415 b 833 489 744 458 776 489 b 922 415 892 489 922 458 b 833 340 922 369 893 340 b 744 415 775 340 744 369 z "},"⅜":{"ha":1290,"x_min":0,"x_max":0,"o":"m 278 418 b 492 590 404 418 492 479 b 390 728 492 657 463 706 l 390 729 b 474 851 442 754 474 793 b 276 1008 474 951 382 1008 b 57 822 135 1008 57 929 l 176 822 b 269 908 176 876 206 908 b 349 836 322 908 349 882 b 258 767 349 788 315 767 l 224 767 l 224 678 l 261 678 b 365 596 322 678 365 657 b 269 518 365 547 338 518 b 161 628 189 518 161 558 l 40 628 b 278 418 40 494 125 418 z m 283 0 l 426 0 l 1056 993 l 913 993 z m 796 160 b 1024 -12 796 46 896 -12 b 1253 160 1153 -12 1253 46 b 1147 301 1253 235 1203 276 l 1147 303 b 1226 424 1189 326 1226 363 b 1024 578 1226 521 1139 578 b 822 424 911 578 822 521 b 903 303 822 363 860 326 l 903 301 b 796 160 849 279 796 238 z m 919 171 b 1024 258 919 221 957 258 b 1128 171 1092 258 1128 221 b 1024 82 1128 119 1092 82 b 919 171 957 82 919 119 z m 935 415 b 1024 489 935 458 967 489 b 1113 415 1082 489 1113 458 b 1024 340 1113 369 1083 340 b 935 415 965 340 935 369 z "},"⅝":{"ha":1264,"x_min":0,"x_max":0,"o":"m 265 417 b 481 621 386 417 481 489 b 294 813 481 738 406 813 b 171 769 242 813 201 796 l 171 771 l 196 893 l 454 893 l 454 993 l 108 993 l 46 681 l 163 681 b 258 724 188 710 222 724 b 354 622 321 724 354 688 b 258 517 354 554 317 517 b 157 601 196 517 163 553 l 32 601 b 265 417 36 492 119 417 z m 261 0 l 404 0 l 1033 993 l 890 993 z m 774 160 b 1001 -12 774 46 874 -12 b 1231 160 1131 -12 1231 46 b 1125 301 1231 235 1181 276 l 1125 303 b 1204 424 1167 326 1204 363 b 1001 578 1204 521 1117 578 b 800 424 889 578 800 521 b 881 303 800 363 838 326 l 881 301 b 774 160 826 279 774 238 z m 897 171 b 1001 258 897 221 935 258 b 1106 171 1069 258 1106 221 b 1001 82 1106 119 1069 82 b 897 171 935 82 897 119 z m 913 415 b 1001 489 913 458 944 489 b 1090 415 1060 489 1090 458 b 1001 340 1090 369 1061 340 b 913 415 943 340 913 369 z "},"⅞":{"ha":1143,"x_min":0,"x_max":0,"o":"m 107 429 l 236 429 b 429 901 236 607 303 799 l 429 993 l 19 993 l 19 893 l 297 893 l 297 892 b 107 429 200 807 107 613 z m 122 0 l 265 0 l 894 993 l 751 993 z m 656 160 b 883 -12 656 46 756 -12 b 1113 160 1013 -12 1113 46 b 1007 301 1113 235 1063 276 l 1007 303 b 1086 424 1049 326 1086 363 b 883 578 1086 521 999 578 b 682 424 771 578 682 521 b 763 303 682 363 719 326 l 763 301 b 656 160 708 279 656 238 z m 779 171 b 883 258 779 221 817 258 b 988 171 951 258 988 221 b 883 82 988 119 951 82 b 779 171 817 82 779 119 z m 794 415 b 883 489 794 458 826 489 b 972 415 942 489 972 458 b 883 340 972 369 943 340 b 794 415 825 340 794 369 z "},"←":{"ha":1082,"x_min":0,"x_max":0,"o":"m 417 56 l 499 133 l 261 388 l 1018 388 l 1018 500 l 261 500 l 499 754 l 417 831 l 58 443 z "},"↑":{"ha":833,"x_min":0,"x_max":0,"o":"m 360 0 l 474 0 l 474 757 l 726 518 l 804 601 l 417 960 l 29 601 l 107 518 l 360 757 z "},"→":{"ha":1082,"x_min":0,"x_max":0,"o":"m 665 56 l 1025 443 l 665 831 l 583 754 l 822 500 l 65 500 l 65 388 l 822 388 l 583 133 z "},"↓":{"ha":835,"x_min":0,"x_max":0,"o":"m 418 -56 l 806 303 l 728 386 l 474 147 l 474 904 l 361 904 l 361 147 l 107 386 l 29 303 z "},"↔":{"ha":1610,"x_min":0,"x_max":0,"o":"m 414 56 l 496 133 l 257 388 l 1351 388 l 1114 133 l 1196 56 l 1554 443 l 1196 831 l 1114 754 l 1351 500 l 257 500 l 496 754 l 414 831 l 54 443 z "},"↕":{"ha":842,"x_min":0,"x_max":0,"o":"m 421 -246 l 808 113 l 731 196 l 478 -43 l 478 889 l 731 650 l 808 733 l 421 1092 l 33 733 l 111 650 l 364 889 l 364 -43 l 111 196 l 33 113 z "},"↖":{"ha":826,"x_min":0,"x_max":0,"o":"m 713 97 l 792 178 l 256 713 l 600 713 l 601 819 l 71 819 l 71 289 l 179 290 l 179 633 z "},"↗":{"ha":826,"x_min":0,"x_max":0,"o":"m 114 97 l 647 633 l 647 290 l 756 289 l 756 819 l 226 819 l 226 713 l 571 713 l 35 178 z "},"↘":{"ha":838,"x_min":0,"x_max":0,"o":"m 228 75 l 758 75 l 758 606 l 649 604 l 649 261 l 115 797 l 36 717 l 572 182 l 228 182 z "},"↙":{"ha":838,"x_min":0,"x_max":0,"o":"m 81 75 l 611 75 l 610 182 l 265 182 l 801 717 l 722 797 l 189 261 l 189 604 l 81 606 z "},"∂":{"ha":743,"x_min":0,"x_max":0,"o":"m 325 -19 b 692 439 589 -19 692 206 b 201 993 692 728 539 950 l 201 875 b 553 546 388 843 508 754 b 344 654 508 618 443 654 b 28 301 160 654 28 485 b 325 -19 28 103 147 -19 z m 164 292 b 376 539 164 426 242 539 b 553 342 489 539 553 451 b 340 96 553 206 476 96 b 164 292 238 96 164 169 z "},"∅":{"ha":1158,"x_min":0,"x_max":0,"o":"m 581 -19 b 1092 479 867 -19 1092 182 b 968 815 1092 614 1046 729 l 1057 903 l 1004 958 l 913 867 b 581 979 824 939 708 979 b 68 479 294 979 68 776 b 190 144 68 344 114 231 l 103 57 l 156 3 l 246 93 b 581 -19 335 21 451 -19 z m 143 479 b 581 904 143 732 339 904 b 858 813 686 904 782 871 l 246 200 b 143 479 182 272 143 368 z m 301 147 l 914 760 b 1015 479 976 688 1015 592 b 581 56 1015 228 819 56 b 301 147 474 56 376 89 z "},"∆":{"ha":896,"x_min":0,"x_max":0,"o":"m 28 0 l 868 0 l 868 131 l 535 993 l 358 993 l 28 131 z m 181 131 l 442 851 l 453 851 l 713 131 z "},"∏":{"ha":992,"x_min":0,"x_max":0,"o":"m 99 -139 l 249 -139 l 249 864 l 743 864 l 743 -139 l 894 -139 l 894 993 l 99 993 z "},"∑":{"ha":832,"x_min":0,"x_max":0,"o":"m 43 -139 l 794 -139 l 794 -10 l 208 -10 l 208 -7 l 556 406 l 556 481 l 218 861 l 218 864 l 781 864 l 781 993 l 43 993 l 43 861 l 419 440 l 419 438 l 43 -6 z "},"−":{"ha":774,"x_min":0,"x_max":0,"o":"m 67 389 l 707 389 l 707 518 l 67 518 z "},"∙":{"ha":424,"x_min":0,"x_max":0,"o":"m 136 406 l 288 406 l 288 557 l 136 557 z "},"√":{"ha":878,"x_min":0,"x_max":0,"o":"m 331 -139 l 467 -139 l 853 993 l 703 993 l 400 46 l 397 46 l 258 451 l 58 451 l 58 322 l 163 322 z "},"∞":{"ha":1029,"x_min":0,"x_max":0,"o":"m 268 178 b 514 335 388 178 461 274 l 517 335 b 763 178 571 274 642 178 b 968 422 867 178 968 256 b 763 668 968 590 867 668 b 517 525 642 668 571 588 l 514 525 b 268 668 461 588 388 668 b 61 422 163 668 61 590 b 268 178 61 256 163 178 z m 182 424 b 288 549 182 506 224 549 b 454 424 363 549 415 474 b 288 300 415 374 363 300 b 182 424 224 300 182 342 z m 575 424 b 742 549 615 474 668 549 b 847 424 806 549 847 506 b 742 300 847 342 806 300 b 575 424 668 300 615 374 z "},"∫":{"ha":519,"x_min":0,"x_max":0,"o":"m 132 -243 b 335 -8 272 -243 335 -147 l 335 746 b 449 896 335 831 363 896 b 499 889 464 896 481 894 l 499 1013 b 388 1026 474 1021 436 1026 b 183 792 246 1026 183 931 l 183 38 b 69 -112 183 -57 156 -112 b 19 -106 54 -112 38 -111 l 19 -229 b 132 -243 44 -237 83 -243 z "},"≈":{"ha":808,"x_min":0,"x_max":0,"o":"m 78 454 l 185 454 b 257 517 185 496 201 517 b 576 465 351 517 476 465 b 736 643 700 465 736 554 l 631 643 b 557 581 631 603 614 581 b 238 633 463 581 339 633 b 78 454 114 633 78 543 z m 78 218 l 185 218 b 257 281 185 258 201 281 b 576 228 351 281 476 228 b 736 407 700 228 736 318 l 631 407 b 557 344 631 365 614 344 b 238 396 463 344 339 396 b 78 218 114 396 78 307 z "},"≠":{"ha":765,"x_min":0,"x_max":0,"o":"m 183 136 l 290 136 l 358 281 l 700 281 l 700 410 l 419 410 l 461 499 l 700 499 l 700 628 l 522 628 l 590 774 l 483 774 l 415 628 l 74 628 l 74 499 l 354 499 l 313 410 l 74 410 l 74 281 l 251 281 z "},"≤":{"ha":692,"x_min":0,"x_max":0,"o":"m 625 156 l 625 285 l 171 446 l 171 449 l 625 611 l 625 740 l 58 519 l 58 375 z m 58 0 l 625 0 l 625 113 l 58 113 z "},"≥":{"ha":692,"x_min":0,"x_max":0,"o":"m 67 156 l 633 375 l 633 519 l 67 740 l 67 611 l 521 449 l 521 446 l 67 285 z m 67 0 l 633 0 l 633 113 l 67 113 z "},"≦":{"ha":781,"x_min":0,"x_max":0,"o":"m 697 361 l 697 492 l 204 653 l 204 656 l 697 818 l 697 949 l 74 728 l 74 581 z m 74 0 l 697 0 l 697 122 l 74 122 z m 74 203 l 697 203 l 697 325 l 74 325 z "},"≧":{"ha":781,"x_min":0,"x_max":0,"o":"m 83 361 l 707 581 l 707 728 l 83 949 l 83 818 l 576 656 l 576 653 l 83 492 z m 83 0 l 707 0 l 707 122 l 83 122 z m 83 203 l 707 203 l 707 325 l 83 325 z "},"①":{"ha":1171,"x_min":0,"x_max":0,"o":"m 586 -19 b 1104 496 904 -19 1104 179 b 586 1013 1104 814 904 1013 b 65 496 268 1013 65 814 b 586 -19 65 179 268 -19 z m 186 496 b 586 908 186 750 340 908 b 985 496 829 908 985 750 b 586 85 985 243 829 85 b 186 496 340 85 186 243 z m 422 585 b 542 604 471 585 518 588 l 542 215 l 667 215 l 667 779 l 564 779 b 422 681 563 714 510 682 z "},"②":{"ha":1171,"x_min":0,"x_max":0,"o":"m 586 -19 b 1104 496 904 -19 1104 179 b 586 1013 1104 814 904 1013 b 65 496 268 1013 65 814 b 586 -19 65 179 268 -19 z m 186 496 b 586 908 186 750 340 908 b 985 496 829 908 985 750 b 586 85 985 243 829 85 b 186 496 340 85 186 243 z m 372 215 l 796 215 l 796 315 l 546 315 l 546 317 b 644 406 564 350 603 376 b 799 624 721 460 799 515 b 601 793 799 732 719 793 b 383 575 453 793 383 699 l 503 575 b 597 693 503 653 532 693 b 674 615 653 693 674 658 b 507 436 674 532 589 496 b 372 215 417 369 372 318 z "},"③":{"ha":1171,"x_min":0,"x_max":0,"o":"m 586 -19 b 1104 496 904 -19 1104 179 b 586 1013 1104 814 904 1013 b 65 496 268 1013 65 814 b 586 -19 65 179 268 -19 z m 186 496 b 586 908 186 750 340 908 b 985 496 829 908 985 750 b 586 85 985 243 829 85 b 186 496 340 85 186 243 z m 360 411 b 597 201 360 278 444 201 b 811 374 724 201 811 263 b 710 511 811 440 782 489 l 710 513 b 793 635 761 538 793 576 b 596 792 793 735 701 792 b 376 606 454 792 376 713 l 496 606 b 589 692 496 660 525 692 b 668 619 642 692 668 665 b 578 550 668 571 635 550 l 543 550 l 543 461 l 581 461 b 685 379 642 461 685 440 b 589 301 685 331 657 301 b 481 411 508 301 481 342 z "},"④":{"ha":1171,"x_min":0,"x_max":0,"o":"m 586 -19 b 1104 496 904 -19 1104 179 b 586 1013 1104 814 904 1013 b 65 496 268 1013 65 814 b 586 -19 65 179 268 -19 z m 186 496 b 586 908 186 750 340 908 b 985 496 829 908 985 750 b 586 85 985 243 829 85 b 186 496 340 85 186 243 z m 343 336 l 603 336 l 603 214 l 726 214 l 726 336 l 807 336 l 807 436 l 726 436 l 726 778 l 603 778 l 343 454 z m 440 436 l 603 639 l 603 436 z "},"⑤":{"ha":1171,"x_min":0,"x_max":0,"o":"m 586 -19 b 1104 496 904 -19 1104 179 b 586 1013 1104 814 904 1013 b 65 496 268 1013 65 814 b 586 -19 65 179 268 -19 z m 186 496 b 586 908 186 750 340 908 b 985 496 829 908 985 750 b 586 85 985 243 829 85 b 186 496 340 85 186 243 z m 361 386 b 594 201 365 276 449 201 b 810 406 715 201 810 274 b 624 597 810 522 735 597 b 500 554 571 597 531 581 l 500 556 l 525 678 l 783 678 l 783 778 l 438 778 l 375 465 l 492 465 b 588 508 517 494 551 508 b 683 407 650 508 683 472 b 588 301 683 339 646 301 b 486 386 525 301 492 338 z "},"⑥":{"ha":1171,"x_min":0,"x_max":0,"o":"m 586 -19 b 1104 496 904 -19 1104 179 b 586 1013 1104 814 904 1013 b 65 496 268 1013 65 814 b 586 -19 65 179 268 -19 z m 186 496 b 586 908 186 750 340 908 b 985 496 829 908 985 750 b 586 85 985 243 829 85 b 186 496 340 85 186 243 z m 360 492 b 596 201 360 335 417 201 b 814 403 729 201 814 286 b 621 594 814 514 736 594 b 482 535 557 594 510 569 l 479 536 l 479 544 b 592 697 481 647 518 697 b 672 636 639 697 665 674 l 796 636 b 594 792 781 724 706 792 b 360 492 451 792 360 686 z m 490 397 b 594 500 490 456 528 500 b 692 397 656 500 692 458 b 590 297 692 340 657 297 b 490 397 526 297 490 339 z "},"⑦":{"ha":1171,"x_min":0,"x_max":0,"o":"m 586 -19 b 1104 496 904 -19 1104 179 b 586 1013 1104 814 904 1013 b 65 496 268 1013 65 814 b 586 -19 65 179 268 -19 z m 186 496 b 586 908 186 750 340 908 b 985 496 829 908 985 750 b 586 85 985 243 829 85 b 186 496 340 85 186 243 z m 381 663 l 658 663 l 658 661 b 468 199 561 576 468 382 l 597 199 b 790 671 597 376 664 568 l 790 763 l 381 763 z "},"⑧":{"ha":1171,"x_min":0,"x_max":0,"o":"m 586 -19 b 1104 496 904 -19 1104 179 b 586 1013 1104 814 904 1013 b 65 496 268 1013 65 814 b 586 -19 65 179 268 -19 z m 186 496 b 586 908 186 750 340 908 b 985 496 829 908 985 750 b 586 85 985 243 829 85 b 186 496 340 85 186 243 z m 357 374 b 585 201 357 260 457 201 b 814 374 714 201 814 260 b 708 515 814 449 764 490 l 708 517 b 788 638 750 540 788 576 b 585 792 788 735 700 792 b 383 638 472 792 383 735 b 464 517 383 576 421 540 l 464 515 b 357 374 410 493 357 451 z m 481 385 b 585 472 481 435 518 472 b 689 385 653 472 689 435 b 585 296 689 333 653 296 b 481 385 518 296 481 333 z m 496 629 b 585 703 496 672 528 703 b 674 629 643 703 674 672 b 585 554 674 583 644 554 b 496 629 526 554 496 583 z "},"⑨":{"ha":1171,"x_min":0,"x_max":0,"o":"m 586 -19 b 1104 496 904 -19 1104 179 b 586 1013 1104 814 904 1013 b 65 496 268 1013 65 814 b 586 -19 65 179 268 -19 z m 186 496 b 586 908 186 750 340 908 b 985 496 829 908 985 750 b 586 85 985 243 829 85 b 186 496 340 85 186 243 z m 360 589 b 551 397 360 478 438 397 b 689 454 613 397 661 422 l 690 454 l 690 444 b 581 296 690 364 663 296 b 500 357 528 296 507 326 l 375 357 b 578 201 390 269 468 201 b 813 499 721 201 813 307 b 576 792 813 657 754 792 b 360 589 443 792 360 707 z m 479 594 b 581 696 479 654 515 696 b 685 596 646 696 685 654 b 578 493 685 538 646 493 b 479 594 517 493 479 535 z "},"⓪":{"ha":1171,"x_min":0,"x_max":0,"o":"m 586 -19 b 1104 496 904 -19 1104 179 b 586 1013 1104 814 904 1013 b 65 496 268 1013 65 814 b 586 -19 65 179 268 -19 z m 186 496 b 586 908 186 750 340 908 b 985 496 829 908 985 750 b 586 85 985 243 829 85 b 186 496 340 85 186 243 z m 344 496 b 586 203 344 338 419 203 b 826 496 753 203 826 339 b 586 790 826 653 753 790 b 344 496 419 790 344 654 z m 469 496 b 586 692 469 608 496 692 b 701 496 675 692 701 608 b 586 301 701 383 675 301 b 469 496 496 301 469 383 z "},"▀":{"ha":1158,"x_min":0,"x_max":0,"o":"m 82 496 l 1075 496 l 1075 993 l 82 993 z "},"▄":{"ha":1161,"x_min":0,"x_max":0,"o":"m 83 0 l 1076 0 l 1076 497 l 83 497 z "},"█":{"ha":1190,"x_min":0,"x_max":0,"o":"m 99 0 l 1092 0 l 1092 993 l 99 993 z "},"■":{"ha":1190,"x_min":0,"x_max":0,"o":"m 99 0 l 1092 0 l 1092 993 l 99 993 z "},"□":{"ha":1190,"x_min":0,"x_max":0,"o":"m 99 0 l 1092 0 l 1092 993 l 99 993 z m 222 124 l 222 869 l 968 869 l 968 124 z "},"▪":{"ha":478,"x_min":0,"x_max":0,"o":"m 76 282 l 401 282 l 401 607 l 76 607 z "},"▫":{"ha":533,"x_min":0,"x_max":0,"o":"m 76 254 l 457 254 l 457 635 l 76 635 z m 200 378 l 200 511 l 333 511 l 333 378 z "},"▲":{"ha":1147,"x_min":0,"x_max":0,"o":"m 18 0 l 1129 0 l 574 993 z "},"►":{"ha":1154,"x_min":0,"x_max":0,"o":"m 115 -60 l 1108 496 l 115 1051 z "},"▼":{"ha":1149,"x_min":0,"x_max":0,"o":"m 575 0 l 1131 993 l 19 993 z "},"◄":{"ha":1154,"x_min":0,"x_max":0,"o":"m 1040 -60 l 1040 1051 l 47 496 z "},"◊":{"ha":815,"x_min":0,"x_max":0,"o":"m 333 0 l 482 0 l 761 496 l 481 993 l 333 993 l 53 497 z m 204 499 l 404 864 l 407 864 l 611 493 l 410 129 l 407 129 z "},"○":{"ha":1171,"x_min":0,"x_max":0,"o":"m 586 -19 b 1104 496 904 -19 1104 179 b 586 1013 1104 814 904 1013 b 65 496 268 1013 65 814 b 586 -19 65 179 268 -19 z m 186 496 b 586 908 186 750 340 908 b 985 496 829 908 985 750 b 586 85 985 243 829 85 b 186 496 340 85 186 243 z "},"●":{"ha":1163,"x_min":0,"x_max":0,"o":"m 582 -19 b 1097 496 867 -19 1097 211 b 582 1013 1097 781 867 1013 b 64 496 296 1013 64 781 b 582 -19 64 211 296 -19 z "},"⬎":{"ha":913,"x_min":0,"x_max":0,"o":"m 475 -4 l 863 354 l 786 438 l 538 203 l 538 711 l 32 711 l 32 601 l 414 601 l 414 203 l 165 438 l 88 354 z "},"⬏":{"ha":915,"x_min":0,"x_max":0,"o":"m 33 0 l 539 0 l 539 508 l 786 274 l 864 357 l 476 715 l 89 357 l 167 274 l 414 508 l 414 110 l 33 110 z "},"⬐":{"ha":914,"x_min":0,"x_max":0,"o":"m 436 -10 l 824 349 l 747 432 l 499 197 l 499 596 l 879 596 l 879 706 l 375 706 l 375 197 l 126 432 l 49 349 z "},"⬑":{"ha":914,"x_min":0,"x_max":0,"o":"m 375 -3 l 881 -3 l 881 108 l 500 108 l 500 506 l 747 272 l 825 354 l 438 713 l 50 354 l 128 272 l 375 506 z "},"⮠":{"ha":838,"x_min":0,"x_max":0,"o":"m 408 -36 l 490 40 l 257 289 l 764 289 l 764 794 l 654 794 l 654 413 l 257 413 l 490 661 l 408 739 l 49 351 z "},"⮡":{"ha":839,"x_min":0,"x_max":0,"o":"m 428 -33 l 788 354 l 428 742 l 346 664 l 581 417 l 182 417 l 182 797 l 72 797 l 72 293 l 581 293 l 346 44 z "},"⮢":{"ha":838,"x_min":0,"x_max":0,"o":"m 410 -18 l 492 60 l 258 308 l 657 308 l 657 -74 l 767 -74 l 767 432 l 258 432 l 492 681 l 410 757 l 51 369 z "},"⮣":{"ha":838,"x_min":0,"x_max":0,"o":"m 428 -18 l 786 369 l 428 757 l 344 681 l 579 432 l 71 432 l 71 -74 l 181 -74 l 181 308 l 579 308 l 344 60 z "},"⮤":{"ha":914,"x_min":0,"x_max":0,"o":"m 375 -3 l 881 -3 l 881 107 l 499 107 l 499 506 l 747 271 l 825 354 l 438 713 l 49 354 l 126 271 l 375 506 z "},"⮥":{"ha":915,"x_min":0,"x_max":0,"o":"m 33 0 l 539 0 l 539 508 l 786 274 l 864 357 l 476 715 l 89 357 l 167 274 l 414 508 l 414 110 l 33 110 z "},"⮦":{"ha":914,"x_min":0,"x_max":0,"o":"m 436 -10 l 824 349 l 747 432 l 499 197 l 499 596 l 879 596 l 879 706 l 375 706 l 375 197 l 126 432 l 49 349 z "},"⮧":{"ha":913,"x_min":0,"x_max":0,"o":"m 475 -4 l 863 354 l 786 438 l 538 203 l 538 711 l 32 711 l 32 601 l 414 601 l 414 203 l 165 438 l 88 354 z "},"ﬁ":{"ha":694,"x_min":0,"x_max":0,"o":"m 126 794 l 126 708 l 29 708 l 29 596 l 126 596 l 126 0 l 264 0 l 264 596 l 396 596 l 396 708 l 264 708 l 264 797 b 338 889 264 872 281 889 b 396 885 357 889 368 888 l 396 994 b 310 1003 357 1000 336 1003 b 126 794 194 1003 126 958 z m 472 835 l 626 835 l 626 982 l 472 982 z m 482 0 l 618 0 l 618 708 l 482 708 z "},"ﬂ":{"ha":694,"x_min":0,"x_max":0,"o":"m 126 794 l 126 708 l 29 708 l 29 596 l 126 596 l 126 0 l 264 0 l 264 596 l 396 596 l 396 708 l 264 708 l 264 797 b 338 889 264 872 281 889 b 396 885 357 889 368 888 l 396 994 b 310 1003 357 1000 336 1003 b 126 794 194 1003 126 958 z m 482 0 l 618 0 l 618 993 l 482 993 z "},"﻿":{"ha":0,"x_min":0,"x_max":0,"o":""},"А":{"ha":917,"x_min":0,"x_max":0,"o":"m 6 0 l 167 0 l 249 239 l 664 239 l 746 0 l 913 0 l 540 993 l 375 993 z m 294 368 l 456 851 l 458 851 l 621 368 z "},"Б":{"ha":878,"x_min":0,"x_max":0,"o":"m 99 0 l 500 0 b 844 318 714 0 844 122 b 514 625 844 515 719 625 l 251 625 l 251 861 l 763 861 l 763 993 l 99 993 z m 251 132 l 251 493 l 517 493 b 685 318 621 493 685 424 b 504 132 685 203 615 132 z "},"В":{"ha":926,"x_min":0,"x_max":0,"o":"m 99 0 l 542 0 b 879 290 747 0 879 100 b 686 533 879 439 790 515 l 686 536 b 840 743 768 564 840 621 b 517 993 840 901 721 993 l 99 993 z m 251 132 l 251 460 l 551 460 b 719 296 656 460 719 400 b 531 132 719 203 678 132 z m 251 581 l 251 861 l 524 861 b 681 721 628 861 681 808 b 513 581 681 632 638 581 z "},"Г":{"ha":692,"x_min":0,"x_max":0,"o":"m 99 0 l 251 0 l 251 861 l 671 861 l 671 993 l 99 993 z "},"Ѓ":{"ha":692,"x_min":0,"x_max":0,"o":"m 99 0 l 251 0 l 251 861 l 671 861 l 671 993 l 99 993 z m 328 1100 l 436 1100 l 569 1292 l 410 1292 z "},"Ґ":{"ha":696,"x_min":0,"x_max":0,"o":"m 99 0 l 251 0 l 251 861 l 675 861 l 675 1131 l 533 1131 l 533 993 l 99 993 z "},"Ғ":{"ha":772,"x_min":0,"x_max":0,"o":"m 11 426 l 176 426 l 176 0 l 329 0 l 329 426 l 613 426 l 613 540 l 329 540 l 329 861 l 749 861 l 749 993 l 176 993 l 176 540 l 11 540 z "},"Д":{"ha":968,"x_min":0,"x_max":0,"o":"m 6 -181 l 149 -181 l 149 -1 l 790 -1 l 790 -181 l 932 -181 l 932 131 l 817 131 l 817 993 l 215 993 l 188 381 b 78 131 179 201 157 131 l 6 131 z m 278 131 l 278 133 b 335 324 310 172 331 226 l 363 861 l 664 861 l 664 131 z "},"Е":{"ha":860,"x_min":0,"x_max":0,"o":"m 99 0 l 815 0 l 815 132 l 251 132 l 251 447 l 733 447 l 733 579 l 251 579 l 251 861 l 801 861 l 801 993 l 99 993 z "},"Ѐ":{"ha":860,"x_min":0,"x_max":0,"o":"m 99 0 l 815 0 l 815 132 l 251 132 l 251 447 l 733 447 l 733 579 l 251 579 l 251 861 l 801 861 l 801 993 l 99 993 z m 278 1292 l 394 1100 l 501 1100 l 431 1292 z "},"Ё":{"ha":860,"x_min":0,"x_max":0,"o":"m 99 0 l 815 0 l 815 132 l 251 132 l 251 447 l 733 447 l 733 579 l 251 579 l 251 861 l 801 861 l 801 993 l 99 993 z m 258 1119 l 413 1119 l 413 1267 l 258 1267 z m 492 1119 l 646 1119 l 646 1267 l 492 1267 z "},"Ж":{"ha":1311,"x_min":0,"x_max":0,"o":"m -10 0 l 171 0 l 476 417 l 579 417 l 579 0 l 733 0 l 733 417 l 836 417 l 1142 0 l 1321 0 l 956 494 l 1294 993 l 1138 993 l 838 550 l 733 550 l 733 993 l 579 993 l 579 550 l 478 550 l 178 993 l 17 993 l 356 494 z "},"З":{"ha":829,"x_min":0,"x_max":0,"o":"m 419 -21 b 779 278 631 -21 779 104 b 590 500 779 392 700 469 l 590 503 b 749 732 690 543 749 629 b 401 1008 749 903 607 1008 b 47 721 181 1008 50 893 l 207 721 b 401 876 207 813 278 876 b 589 722 511 876 589 814 b 429 561 589 626 536 561 l 317 561 l 317 438 l 435 438 b 619 283 549 438 619 381 b 414 113 619 179 536 113 b 196 276 275 113 199 163 l 36 276 b 419 -21 36 82 171 -21 z "},"И":{"ha":1022,"x_min":0,"x_max":0,"o":"m 99 0 l 251 0 l 767 758 l 769 758 l 769 0 l 924 0 l 924 993 l 769 993 l 254 233 l 251 233 l 251 993 l 99 993 z "},"Й":{"ha":1022,"x_min":0,"x_max":0,"o":"m 99 0 l 251 0 l 767 758 l 769 758 l 769 0 l 924 0 l 924 993 l 769 993 l 254 233 l 251 233 l 251 993 l 99 993 z m 324 1278 b 511 1086 328 1150 406 1086 b 697 1278 618 1086 692 1154 l 604 1278 b 511 1182 600 1211 571 1182 b 417 1278 451 1182 421 1211 z "},"Ѝ":{"ha":1022,"x_min":0,"x_max":0,"o":"m 99 0 l 251 0 l 767 758 l 769 758 l 769 0 l 924 0 l 924 993 l 769 993 l 254 233 l 251 233 l 251 993 l 99 993 z m 335 1292 l 451 1100 l 558 1100 l 488 1292 z "},"К":{"ha":899,"x_min":0,"x_max":0,"o":"m 728 0 l 921 0 l 489 494 l 892 993 l 725 993 l 368 550 l 251 550 l 251 993 l 99 993 l 99 0 l 251 0 l 251 417 l 365 417 z "},"Ќ":{"ha":899,"x_min":0,"x_max":0,"o":"m 728 0 l 921 0 l 489 494 l 892 993 l 725 993 l 368 550 l 251 550 l 251 993 l 99 993 l 99 0 l 251 0 l 251 417 l 365 417 z m 397 1100 l 506 1100 l 639 1292 l 479 1292 z "},"Л":{"ha":929,"x_min":0,"x_max":0,"o":"m 104 -21 b 340 265 240 -21 331 44 l 369 861 l 678 861 l 678 0 l 831 0 l 831 993 l 224 993 l 193 263 b 81 114 189 146 150 114 b 3 128 53 114 22 121 l 3 -4 b 104 -21 24 -15 71 -21 z "},"М":{"ha":1176,"x_min":0,"x_max":0,"o":"m 99 0 l 249 0 l 249 771 l 251 771 l 525 0 l 651 0 l 925 771 l 928 771 l 928 0 l 1078 0 l 1078 993 l 876 993 l 589 213 l 586 213 l 300 993 l 99 993 z "},"Н":{"ha":990,"x_min":0,"x_max":0,"o":"m 99 0 l 251 0 l 251 446 l 739 446 l 739 0 l 893 0 l 893 993 l 739 993 l 739 578 l 251 578 l 251 993 l 99 993 z "},"О":{"ha":1075,"x_min":0,"x_max":0,"o":"m 538 -19 b 1025 497 835 -19 1025 199 b 538 1013 1025 796 835 1013 b 50 497 240 1013 50 796 b 538 -19 50 199 240 -19 z m 210 497 b 538 881 210 701 303 881 b 865 497 772 881 865 701 b 538 113 865 293 772 113 b 210 497 303 113 210 293 z "},"П":{"ha":967,"x_min":0,"x_max":0,"o":"m 99 0 l 251 0 l 251 861 l 714 861 l 714 0 l 868 0 l 868 993 l 99 993 z "},"Р":{"ha":867,"x_min":0,"x_max":0,"o":"m 99 0 l 251 0 l 251 403 l 513 403 b 838 697 700 403 838 489 b 513 993 838 906 700 993 l 99 993 z m 251 535 l 251 861 l 506 861 b 679 697 621 861 679 810 b 506 535 679 586 621 535 z "},"С":{"ha":981,"x_min":0,"x_max":0,"o":"m 514 -19 b 942 361 764 -19 919 140 l 782 361 b 513 113 772 240 704 113 b 210 497 293 113 210 299 b 513 881 210 694 293 881 b 782 656 703 881 764 753 l 942 656 b 515 1013 918 854 764 1013 b 50 496 233 1013 50 796 b 514 -19 50 197 232 -19 z "},"Т":{"ha":838,"x_min":0,"x_max":0,"o":"m 342 0 l 496 0 l 496 861 l 817 861 l 817 993 l 21 993 l 21 861 l 342 861 z "},"У":{"ha":843,"x_min":0,"x_max":0,"o":"m 197 0 l 350 0 l 829 993 l 676 993 l 418 454 l 415 454 l 174 993 l 14 993 l 336 290 z "},"Ў":{"ha":843,"x_min":0,"x_max":0,"o":"m 197 0 l 350 0 l 829 993 l 676 993 l 418 454 l 415 454 l 174 993 l 14 993 l 336 290 z m 243 1278 b 431 1086 247 1150 325 1086 b 617 1278 538 1086 611 1154 l 524 1278 b 431 1182 519 1211 490 1182 b 336 1278 371 1182 340 1211 z "},"Ф":{"ha":1036,"x_min":0,"x_max":0,"o":"m 440 0 l 590 0 l 590 115 b 992 490 839 138 992 278 b 590 864 992 701 839 842 l 590 993 l 440 993 l 440 863 b 43 490 194 839 43 700 b 440 117 43 279 194 140 z m 197 490 b 440 744 197 628 289 721 l 440 235 b 197 490 289 258 197 353 z m 590 235 l 590 744 b 839 490 744 724 839 629 b 590 235 839 351 744 257 z "},"Х":{"ha":835,"x_min":0,"x_max":0,"o":"m -6 0 l 174 0 l 414 396 l 415 396 l 658 0 l 836 0 l 507 510 l 819 993 l 651 993 l 419 618 l 418 618 l 188 993 l 18 993 l 331 507 z "},"Ч":{"ha":854,"x_min":0,"x_max":0,"o":"m 603 0 l 756 0 l 756 993 l 603 993 l 603 550 b 397 442 542 481 493 442 b 214 626 282 442 214 507 l 214 993 l 61 993 l 61 617 b 351 308 61 421 179 308 b 600 431 454 308 546 364 l 603 431 z "},"Ц":{"ha":1008,"x_min":0,"x_max":0,"o":"m 829 -181 l 972 -181 l 972 132 l 857 132 l 857 992 l 704 992 l 704 132 l 251 132 l 251 992 l 99 992 l 99 -1 l 829 -1 z "},"Ш":{"ha":1228,"x_min":0,"x_max":0,"o":"m 99 -1 l 1129 -1 l 1129 992 l 975 992 l 975 132 l 690 132 l 690 992 l 538 992 l 538 132 l 251 132 l 251 992 l 99 992 z "},"Щ":{"ha":1278,"x_min":0,"x_max":0,"o":"m 1100 -181 l 1242 -181 l 1242 132 l 1129 132 l 1129 992 l 975 992 l 975 132 l 690 132 l 690 992 l 538 992 l 538 132 l 251 132 l 251 992 l 99 992 l 99 -1 l 1100 -1 z "},"Џ":{"ha":956,"x_min":0,"x_max":0,"o":"m 407 -181 l 550 -181 l 550 -1 l 857 -1 l 857 992 l 704 992 l 704 132 l 251 132 l 251 992 l 99 992 l 99 -1 l 407 -1 z "},"Ь":{"ha":854,"x_min":0,"x_max":0,"o":"m 99 0 l 482 0 b 826 322 693 0 826 124 b 496 635 826 522 699 635 l 251 635 l 251 993 l 99 993 z m 251 132 l 251 503 l 497 503 b 667 322 601 503 667 432 b 485 132 667 206 597 132 z "},"Ы":{"ha":1136,"x_min":0,"x_max":0,"o":"m 99 0 l 432 0 b 776 322 643 0 776 124 b 446 635 776 522 649 635 l 251 635 l 251 993 l 99 993 z m 251 132 l 251 503 l 449 503 b 618 322 553 503 618 432 b 436 132 618 206 547 132 z m 885 0 l 1038 0 l 1038 993 l 885 993 z "},"Ъ":{"ha":944,"x_min":0,"x_max":0,"o":"m 188 0 l 571 0 b 915 322 782 0 915 124 b 585 635 915 522 788 635 l 342 635 l 342 993 l 15 993 l 15 861 l 188 861 z m 342 132 l 342 503 l 588 503 b 756 322 692 503 756 432 b 575 132 756 206 686 132 z "},"Љ":{"ha":1297,"x_min":0,"x_max":0,"o":"m 104 -21 b 340 265 240 -21 331 44 l 369 861 l 618 861 l 618 0 l 925 0 b 1269 322 1136 0 1269 124 b 939 635 1269 522 1142 635 l 772 635 l 772 993 l 224 993 l 193 263 b 81 114 189 146 150 114 b 3 128 53 114 22 121 l 3 -4 b 104 -21 24 -15 71 -21 z m 772 132 l 772 503 l 942 503 b 1110 322 1044 503 1110 432 b 929 132 1110 206 1040 132 z "},"Њ":{"ha":1340,"x_min":0,"x_max":0,"o":"m 99 0 l 251 0 l 251 472 l 654 472 l 654 0 l 967 0 b 1311 306 1178 0 1311 107 b 981 604 1311 496 1183 604 l 808 604 l 808 993 l 654 993 l 654 604 l 251 604 l 251 993 l 99 993 z m 808 132 l 808 472 l 983 472 b 1151 306 1088 472 1151 415 b 971 132 1151 189 1082 132 z "},"Ѕ":{"ha":878,"x_min":0,"x_max":0,"o":"m 472 -19 b 836 279 721 -19 836 108 b 464 583 836 489 656 535 b 232 750 336 615 232 639 b 421 882 232 836 296 882 b 650 697 565 882 633 817 l 808 697 b 419 1013 793 897 646 1013 b 72 742 206 1013 72 914 b 399 461 72 553 243 503 b 676 271 579 415 676 397 b 468 111 676 181 628 111 b 192 335 282 111 203 201 l 33 335 b 472 -19 44 111 221 -19 z "},"Є":{"ha":967,"x_min":0,"x_max":0,"o":"m 514 -19 b 926 324 758 -19 918 124 l 768 324 b 511 113 760 196 656 113 b 214 439 343 113 232 228 l 576 439 l 576 563 l 214 563 b 522 881 233 767 356 881 b 768 697 663 881 746 807 l 926 697 b 522 1013 901 883 747 1013 b 53 501 244 1013 53 825 b 514 -19 53 169 238 -19 z "},"Э":{"ha":965,"x_min":0,"x_max":0,"o":"m 456 -19 b 914 501 732 -19 914 169 b 449 1013 914 825 726 1013 b 39 697 221 1013 64 883 l 197 697 b 447 881 219 807 304 881 b 751 563 614 881 732 767 l 390 563 l 390 439 l 751 439 b 456 113 733 229 622 113 b 197 324 311 113 207 196 l 39 324 b 456 -19 47 124 211 -19 z "},"І":{"ha":350,"x_min":0,"x_max":0,"o":"m 99 0 l 251 0 l 251 993 l 99 993 z "},"Ї":{"ha":350,"x_min":0,"x_max":0,"o":"m 99 0 l 251 0 l 251 993 l 99 993 z m -19 1119 l 135 1119 l 135 1267 l -19 1267 z m 214 1119 l 368 1119 l 368 1267 l 214 1267 z "},"Ј":{"ha":719,"x_min":0,"x_max":0,"o":"m 325 -19 b 626 310 560 -19 626 142 l 626 993 l 474 993 l 474 310 b 322 113 474 196 451 113 b 172 310 192 113 172 196 l 172 350 l 25 350 l 25 310 b 325 -19 25 142 90 -19 z "},"Ћ":{"ha":1017,"x_min":0,"x_max":0,"o":"m 258 0 l 413 0 l 413 300 b 631 519 413 443 497 519 b 803 335 747 519 803 456 l 803 0 l 957 0 l 957 363 b 676 653 957 550 850 653 b 415 532 554 653 468 599 l 413 532 l 413 861 l 717 861 l 717 993 l 22 993 l 22 861 l 258 861 z "},"Ю":{"ha":1331,"x_min":0,"x_max":0,"o":"m 844 -19 b 1276 497 1113 -19 1276 175 b 844 1013 1276 818 1113 1013 b 417 568 599 1013 439 846 l 251 568 l 251 993 l 99 993 l 99 0 l 251 0 l 251 436 l 415 436 b 844 -19 436 150 594 -19 z m 572 497 b 844 881 572 736 678 881 b 1118 497 1013 881 1118 736 b 844 113 1118 258 1013 113 b 572 497 678 113 572 258 z "},"Я":{"ha":907,"x_min":0,"x_max":0,"o":"m 39 8 l 39 0 l 206 0 b 419 400 244 58 176 400 l 654 400 l 654 0 l 808 0 l 808 993 l 418 993 b 72 707 201 993 72 886 b 260 471 72 581 146 497 l 260 468 b 39 8 36 425 92 50 z m 228 701 b 429 861 228 804 286 861 l 654 861 l 654 529 l 438 529 b 228 701 301 529 228 588 z "},"Ђ":{"ha":1018,"x_min":0,"x_max":0,"o":"m 765 -254 b 957 -62 876 -254 957 -194 l 957 383 b 676 675 957 572 850 675 b 415 553 554 675 468 619 l 413 553 l 413 861 l 717 861 l 717 993 l 22 993 l 22 861 l 258 861 l 258 0 l 413 0 l 413 321 b 631 542 413 464 497 542 b 803 357 747 542 803 476 l 803 -47 b 738 -122 803 -106 774 -122 b 658 -110 717 -122 683 -118 l 658 -242 b 765 -254 685 -250 721 -254 z "},"Җ":{"ha":1311,"x_min":0,"x_max":0,"o":"m -10 0 l 171 0 l 476 417 l 579 417 l 579 0 l 733 0 l 733 417 l 836 417 l 1142 0 l 1199 0 l 1199 -181 l 1340 -181 l 1340 75 l 1265 75 l 956 494 l 1294 993 l 1138 993 l 838 550 l 733 550 l 733 993 l 579 993 l 579 550 l 478 550 l 178 993 l 17 993 l 356 494 z "},"Қ":{"ha":899,"x_min":0,"x_max":0,"o":"m 728 0 l 800 0 l 800 -181 l 942 -181 l 942 75 l 856 75 l 489 494 l 892 993 l 725 993 l 368 550 l 251 550 l 251 993 l 99 993 l 99 0 l 251 0 l 251 417 l 365 417 z "},"Ң":{"ha":990,"x_min":0,"x_max":0,"o":"m 99 0 l 251 0 l 251 446 l 739 446 l 739 0 l 810 0 l 810 -181 l 951 -181 l 951 75 l 893 75 l 893 993 l 739 993 l 739 578 l 251 578 l 251 993 l 99 993 z "},"Ү":{"ha":885,"x_min":0,"x_max":0,"o":"m 365 0 l 519 0 l 519 397 l 875 993 l 711 993 l 444 518 l 442 518 l 175 993 l 10 993 l 365 397 z "},"Ұ":{"ha":875,"x_min":0,"x_max":0,"o":"m 139 242 l 361 242 l 361 0 l 515 0 l 515 242 l 726 242 l 726 354 l 515 354 l 515 397 l 871 993 l 707 993 l 440 518 l 438 518 l 171 993 l 6 993 l 361 397 l 361 354 l 139 354 z "},"Ҳ":{"ha":835,"x_min":0,"x_max":0,"o":"m -6 0 l 174 0 l 414 396 l 415 396 l 658 0 l 721 0 l 721 -181 l 863 -181 l 863 75 l 788 75 l 507 510 l 819 993 l 651 993 l 419 618 l 418 618 l 188 993 l 18 993 l 331 507 z "},"Ҷ":{"ha":854,"x_min":0,"x_max":0,"o":"m 603 0 l 686 0 l 686 -181 l 828 -181 l 828 75 l 756 75 l 756 993 l 603 993 l 603 550 b 397 442 542 481 493 442 b 214 626 282 442 214 507 l 214 993 l 61 993 l 61 617 b 351 308 61 421 179 308 b 600 431 454 308 546 364 l 603 431 z "},"Һ":{"ha":869,"x_min":0,"x_max":0,"o":"m 99 0 l 251 0 l 251 342 b 471 561 251 485 338 561 b 654 376 597 561 654 497 l 654 0 l 807 0 l 807 404 b 517 694 807 592 701 694 b 254 574 394 694 306 643 l 251 574 l 251 993 l 99 993 z "},"Ә":{"ha":1017,"x_min":0,"x_max":0,"o":"m 504 -21 b 967 499 774 -21 967 194 b 517 1013 967 792 781 1013 b 71 696 294 1013 104 890 l 229 696 b 500 881 249 801 353 881 b 807 538 665 881 793 753 l 53 538 b 50 453 50 513 50 490 b 504 -21 50 189 236 -21 z m 210 406 l 801 406 b 508 111 775 225 668 111 b 210 406 326 111 210 240 z "},"Ӣ":{"ha":1022,"x_min":0,"x_max":0,"o":"m 99 0 l 251 0 l 767 758 l 769 758 l 769 0 l 924 0 l 924 993 l 769 993 l 254 233 l 251 233 l 251 993 l 99 993 z m 326 1119 l 693 1119 l 693 1226 l 326 1226 z "},"Ө":{"ha":1075,"x_min":0,"x_max":0,"o":"m 538 -19 b 1025 497 835 -19 1025 199 b 538 1013 1025 796 835 1013 b 50 497 240 1013 50 796 b 538 -19 50 199 240 -19 z m 213 435 l 863 435 b 538 113 844 257 747 113 b 213 435 328 113 231 257 z m 213 560 b 538 881 231 736 328 881 b 863 560 747 881 844 736 z "},"Ӯ":{"ha":843,"x_min":0,"x_max":0,"o":"m 197 0 l 350 0 l 829 993 l 676 993 l 418 454 l 415 454 l 174 993 l 14 993 l 336 290 z m 246 1119 l 613 1119 l 613 1226 l 246 1226 z "},"а":{"ha":738,"x_min":0,"x_max":0,"o":"m 272 -19 b 514 100 388 -19 468 26 l 517 100 b 629 -7 525 19 561 -7 b 699 1 651 -7 675 -4 l 699 85 b 682 83 690 83 686 83 b 649 161 656 83 649 110 l 649 486 b 386 731 649 669 532 731 b 74 488 169 731 81 624 l 213 488 b 381 621 219 582 257 621 b 515 526 485 621 515 578 b 336 422 515 457 447 443 b 40 183 160 389 40 342 b 272 -19 40 63 131 -19 z m 182 193 b 360 326 182 267 235 301 b 515 378 432 342 493 357 l 515 276 b 303 90 515 153 425 90 b 182 193 218 90 182 126 z "},"б":{"ha":778,"x_min":0,"x_max":0,"o":"m 403 -21 b 738 361 621 -21 738 147 b 444 731 738 586 626 731 b 175 567 315 731 213 656 l 172 567 b 361 794 189 688 250 775 l 556 831 b 721 994 646 849 721 890 l 588 994 b 481 938 588 976 568 954 l 342 914 b 53 417 122 876 53 667 b 403 -21 53 124 190 -21 z m 206 354 b 403 617 206 500 271 617 b 596 361 532 617 596 507 b 403 92 596 215 532 92 b 206 354 271 92 206 208 z "},"в":{"ha":700,"x_min":0,"x_max":0,"o":"m 76 0 l 417 0 b 663 204 568 0 663 74 b 499 369 663 299 590 357 l 499 372 b 629 525 574 389 629 447 b 400 708 629 633 546 708 l 76 708 z m 213 113 l 213 310 l 417 310 b 521 210 478 310 521 274 b 404 113 521 147 482 113 z m 213 411 l 213 596 l 394 596 b 490 508 454 596 490 565 b 394 411 490 456 454 411 z "},"г":{"ha":571,"x_min":0,"x_max":0,"o":"m 76 0 l 213 0 l 213 596 l 556 596 l 556 708 l 76 708 z "},"ѓ":{"ha":571,"x_min":0,"x_max":0,"o":"m 76 0 l 213 0 l 213 596 l 556 596 l 556 708 l 76 708 z m 258 815 l 367 815 l 500 1007 l 340 1007 z "},"ґ":{"ha":586,"x_min":0,"x_max":0,"o":"m 76 0 l 213 0 l 213 596 l 569 596 l 569 861 l 447 861 l 447 708 l 76 708 z "},"ғ":{"ha":622,"x_min":0,"x_max":0,"o":"m 10 306 l 126 306 l 126 0 l 263 0 l 263 306 l 494 306 l 494 401 l 263 401 l 263 596 l 606 596 l 606 708 l 126 708 l 126 401 l 10 401 z "},"д":{"ha":796,"x_min":0,"x_max":0,"o":"m 10 -181 l 133 -181 l 133 0 l 643 0 l 643 -181 l 767 -181 l 767 113 l 669 113 l 669 708 l 175 708 l 146 229 b 65 113 142 161 113 113 l 10 113 z m 246 113 l 246 115 b 281 235 268 142 278 181 l 303 596 l 532 596 l 532 113 z "},"е":{"ha":765,"x_min":0,"x_max":0,"o":"m 390 -21 b 718 218 576 -21 681 82 l 579 218 b 393 90 567 171 518 90 b 181 318 253 90 183 200 l 725 318 b 726 369 726 329 726 350 b 390 731 726 589 606 731 b 40 356 174 731 40 578 b 390 -21 40 139 165 -21 z m 181 425 b 386 619 189 542 272 619 b 585 425 507 619 585 536 z "},"ѐ":{"ha":765,"x_min":0,"x_max":0,"o":"m 390 -21 b 718 218 576 -21 681 82 l 579 218 b 393 90 567 171 518 90 b 181 318 253 90 183 200 l 725 318 b 726 369 726 329 726 350 b 390 731 726 589 606 731 b 40 356 174 731 40 578 b 390 -21 40 139 165 -21 z m 181 425 b 386 619 189 542 272 619 b 585 425 507 619 585 536 z m 208 1010 l 325 818 l 432 818 l 361 1010 z "},"ё":{"ha":765,"x_min":0,"x_max":0,"o":"m 390 -21 b 718 218 576 -21 681 82 l 579 218 b 393 90 567 171 518 90 b 181 318 253 90 183 200 l 725 318 b 726 369 726 329 726 350 b 390 731 726 589 606 731 b 40 356 174 731 40 578 b 390 -21 40 139 165 -21 z m 181 425 b 386 619 189 542 272 619 b 585 425 507 619 585 536 z m 189 838 l 343 838 l 343 985 l 189 985 z m 422 838 l 576 838 l 576 985 l 422 985 z "},"ж":{"ha":974,"x_min":0,"x_max":0,"o":"m 0 0 l 161 0 l 357 292 l 418 292 l 418 0 l 554 0 l 554 292 l 614 292 l 810 0 l 974 0 l 732 354 l 971 708 l 821 708 l 618 406 l 554 406 l 554 708 l 418 708 l 418 406 l 356 406 l 153 708 l 3 708 l 242 354 z "},"з":{"ha":649,"x_min":0,"x_max":0,"o":"m 311 -21 b 608 200 492 -21 608 60 b 454 360 608 279 553 339 l 454 361 b 590 525 538 383 590 450 b 318 731 590 658 471 731 b 36 507 150 731 36 639 l 174 507 b 315 617 174 569 225 617 b 454 515 400 617 454 582 b 339 411 454 451 415 411 l 254 411 l 254 306 l 343 306 b 468 203 418 306 468 267 b 324 93 468 132 413 93 b 167 208 224 93 167 142 l 31 208 b 311 -21 31 71 142 -21 z "},"и":{"ha":803,"x_min":0,"x_max":0,"o":"m 76 0 l 213 0 l 590 518 l 590 0 l 726 0 l 726 708 l 590 708 l 213 190 l 213 708 l 76 708 z "},"й":{"ha":803,"x_min":0,"x_max":0,"o":"m 76 0 l 213 0 l 590 518 l 590 0 l 726 0 l 726 708 l 590 708 l 213 190 l 213 708 l 76 708 z m 218 993 b 406 801 222 865 300 801 b 592 993 513 801 586 869 l 499 993 b 406 897 494 926 465 897 b 311 993 346 897 315 926 z "},"ѝ":{"ha":803,"x_min":0,"x_max":0,"o":"m 76 0 l 213 0 l 590 518 l 590 0 l 726 0 l 726 708 l 590 708 l 213 190 l 213 708 l 76 708 z m 229 1007 l 346 815 l 453 815 l 382 1007 z "},"к":{"ha":685,"x_min":0,"x_max":0,"o":"m 529 0 l 700 0 l 419 356 l 688 708 l 528 708 l 304 406 l 213 406 l 213 708 l 76 708 l 76 0 l 213 0 l 213 292 l 300 292 z "},"ќ":{"ha":685,"x_min":0,"x_max":0,"o":"m 529 0 l 700 0 l 419 356 l 688 708 l 528 708 l 304 406 l 213 406 l 213 708 l 76 708 l 76 0 l 213 0 l 213 292 l 300 292 z m 296 815 l 404 815 l 538 1007 l 378 1007 z "},"л":{"ha":739,"x_min":0,"x_max":0,"o":"m 90 -21 b 260 186 188 -21 253 40 l 282 596 l 526 596 l 526 0 l 664 0 l 664 708 l 156 708 l 128 200 b 67 92 124 124 108 92 b 11 101 46 92 29 96 l 11 -8 b 90 -21 32 -17 61 -21 z "},"м":{"ha":943,"x_min":0,"x_max":0,"o":"m 76 0 l 213 0 l 213 475 l 215 475 l 415 1 l 521 1 l 728 475 l 731 475 l 731 0 l 868 0 l 868 708 l 714 708 l 476 178 l 474 178 l 239 708 l 76 708 z "},"н":{"ha":775,"x_min":0,"x_max":0,"o":"m 563 0 l 699 0 l 699 708 l 563 708 l 563 417 l 213 417 l 213 708 l 76 708 l 76 0 l 213 0 l 213 304 l 563 304 z "},"о":{"ha":786,"x_min":0,"x_max":0,"o":"m 393 -21 b 747 356 614 -21 747 133 b 394 731 747 576 614 731 b 39 354 172 731 39 575 b 393 -21 39 132 172 -21 z m 181 354 b 394 617 181 503 247 617 b 606 354 539 617 606 503 b 394 92 606 207 539 92 b 181 354 247 92 181 207 z "},"п":{"ha":761,"x_min":0,"x_max":0,"o":"m 76 0 l 213 0 l 213 596 l 549 596 l 549 0 l 685 0 l 685 708 l 76 708 z "},"р":{"ha":792,"x_min":0,"x_max":0,"o":"m 433 -19 b 751 354 614 -19 751 121 b 433 729 751 588 614 729 b 215 625 322 729 254 675 l 213 625 l 213 708 l 76 708 l 76 -246 l 213 -246 l 213 88 l 215 88 b 433 -19 254 31 322 -19 z m 214 354 b 411 615 214 515 289 615 b 608 354 544 615 608 493 b 411 93 608 215 544 93 b 214 354 289 93 214 194 z "},"с":{"ha":738,"x_min":0,"x_max":0,"o":"m 388 -21 b 706 263 569 -21 696 100 l 565 263 b 388 93 558 182 518 93 b 181 354 236 93 181 221 b 388 617 181 488 236 617 b 565 451 517 617 558 525 l 706 451 b 386 729 689 611 568 729 b 39 354 176 729 39 576 b 388 -21 39 132 176 -21 z "},"т":{"ha":647,"x_min":0,"x_max":0,"o":"m 256 0 l 392 0 l 392 596 l 631 596 l 631 708 l 17 708 l 17 596 l 256 596 z "},"у":{"ha":701,"x_min":0,"x_max":0,"o":"m 168 -249 b 414 -17 278 -249 346 -192 l 694 708 l 551 708 l 357 167 l 354 167 l 147 708 l -1 708 l 285 7 b 139 -132 257 -104 193 -132 b 81 -128 117 -132 104 -131 l 81 -239 b 168 -249 117 -246 138 -249 z "},"ў":{"ha":701,"x_min":0,"x_max":0,"o":"m 168 -249 b 414 -17 278 -249 346 -192 l 694 708 l 551 708 l 357 167 l 354 167 l 147 708 l -1 708 l 285 7 b 139 -132 257 -104 193 -132 b 81 -128 117 -132 104 -131 l 81 -239 b 168 -249 117 -246 138 -249 z m 160 993 b 347 801 164 865 242 801 b 533 993 454 801 528 869 l 440 993 b 347 897 436 926 407 897 b 253 993 288 897 257 926 z "},"ф":{"ha":914,"x_min":0,"x_max":0,"o":"m 389 -246 l 524 -246 l 524 -17 b 874 354 736 7 874 144 b 524 726 874 565 736 703 l 524 993 l 389 993 l 389 726 b 39 354 176 703 39 564 b 389 -17 39 146 176 7 z m 179 354 b 389 613 179 493 263 589 l 389 97 b 179 354 263 121 179 215 z m 524 96 l 524 614 b 735 354 651 589 735 493 b 524 96 735 215 651 121 z "},"х":{"ha":676,"x_min":0,"x_max":0,"o":"m -11 0 l 147 0 l 335 271 l 338 271 l 529 0 l 689 0 l 419 363 l 663 708 l 507 708 l 340 456 l 338 456 l 168 708 l 13 708 l 256 363 z "},"ч":{"ha":701,"x_min":0,"x_max":0,"o":"m 489 0 l 625 0 l 625 708 l 489 708 l 489 422 b 326 324 460 378 411 324 b 182 500 235 324 182 371 l 182 708 l 44 708 l 44 460 b 281 208 44 272 160 208 b 486 308 374 208 447 256 l 489 308 z "},"ц":{"ha":801,"x_min":0,"x_max":0,"o":"m 649 -181 l 771 -181 l 771 113 l 674 113 l 674 708 l 538 708 l 538 113 l 213 113 l 213 708 l 76 708 l 76 0 l 649 0 z "},"ш":{"ha":1010,"x_min":0,"x_max":0,"o":"m 76 0 l 935 0 l 935 708 l 801 708 l 801 113 l 572 113 l 572 708 l 439 708 l 439 113 l 210 113 l 210 708 l 76 708 z "},"щ":{"ha":1061,"x_min":0,"x_max":0,"o":"m 908 -181 l 1032 -181 l 1032 113 l 935 113 l 935 708 l 801 708 l 801 113 l 572 113 l 572 708 l 439 708 l 439 113 l 210 113 l 210 708 l 76 708 l 76 0 l 908 0 z "},"џ":{"ha":750,"x_min":0,"x_max":0,"o":"m 315 -181 l 438 -181 l 438 0 l 674 0 l 674 708 l 538 708 l 538 113 l 213 113 l 213 708 l 76 708 l 76 0 l 315 0 z "},"ь":{"ha":643,"x_min":0,"x_max":0,"o":"m 76 0 l 374 0 b 621 228 526 0 621 88 b 375 454 621 367 528 454 l 213 454 l 213 708 l 76 708 z m 213 113 l 213 342 l 368 342 b 479 226 442 342 479 297 b 368 113 479 157 438 113 z "},"ы":{"ha":869,"x_min":0,"x_max":0,"o":"m 76 0 l 335 0 b 582 228 488 0 582 88 b 336 454 582 367 490 454 l 213 454 l 213 708 l 76 708 z m 213 113 l 213 342 l 329 342 b 442 226 403 342 442 297 b 329 113 442 157 399 113 z m 657 0 l 793 0 l 793 708 l 657 708 z "},"ъ":{"ha":715,"x_min":0,"x_max":0,"o":"m 149 0 l 446 0 b 693 228 599 0 693 88 b 447 454 693 367 600 454 l 285 454 l 285 708 l 13 708 l 13 596 l 149 596 z m 285 113 l 285 342 l 440 342 b 551 226 514 342 551 297 b 440 113 551 157 510 113 z "},"љ":{"ha":996,"x_min":0,"x_max":0,"o":"m 90 -21 b 260 188 188 -21 253 40 l 282 596 l 467 596 l 467 0 l 725 0 b 972 228 878 0 972 88 b 726 454 972 367 881 454 l 603 454 l 603 708 l 156 708 l 128 201 b 67 93 124 124 108 93 b 11 103 46 93 29 96 l 11 -8 b 90 -21 32 -17 61 -21 z m 603 113 l 603 342 l 719 342 b 832 226 793 342 832 297 b 719 113 832 157 789 113 z "},"њ":{"ha":1001,"x_min":0,"x_max":0,"o":"m 472 0 l 732 0 b 979 219 883 0 979 79 b 733 438 979 360 886 438 l 610 438 l 610 708 l 472 708 l 472 438 l 213 438 l 213 708 l 76 708 l 76 0 l 213 0 l 213 324 l 472 324 z m 610 113 l 610 324 l 726 324 b 838 218 800 324 838 289 b 726 113 838 149 796 113 z "},"ѕ":{"ha":678,"x_min":0,"x_max":0,"o":"m 356 -19 b 647 201 542 -19 647 64 b 375 428 647 360 506 397 b 196 531 275 450 196 457 b 326 619 196 583 235 619 b 483 503 444 619 474 557 l 621 503 b 324 729 611 625 518 729 b 54 525 153 729 54 647 b 319 313 54 378 196 342 b 506 194 411 293 506 283 b 354 90 506 143 474 90 b 167 236 222 90 172 154 l 29 236 b 356 -19 33 92 140 -19 z "},"є":{"ha":718,"x_min":0,"x_max":0,"o":"m 376 -21 b 688 226 557 -21 674 79 l 547 226 b 375 93 536 151 478 93 b 183 301 258 93 196 165 l 428 301 l 428 408 l 183 408 b 382 617 197 544 265 617 b 547 488 485 617 536 560 l 688 488 b 382 729 668 628 563 729 b 40 354 168 729 40 571 b 376 -21 40 139 154 -21 z "},"э":{"ha":718,"x_min":0,"x_max":0,"o":"m 347 -21 b 678 354 568 -21 678 138 b 340 729 678 575 556 729 b 29 488 161 729 50 628 l 171 488 b 342 617 182 560 239 617 b 535 408 457 617 522 546 l 290 408 l 290 301 l 535 301 b 350 93 524 164 464 93 b 171 226 244 93 182 151 l 29 226 b 347 -21 43 79 163 -21 z "},"і":{"ha":289,"x_min":0,"x_max":0,"o":"m 76 0 l 213 0 l 213 708 l 76 708 z m 68 835 l 222 835 l 222 982 l 68 982 z "},"ї":{"ha":289,"x_min":0,"x_max":0,"o":"m 160 838 l 300 838 l 300 979 l 160 979 z m -11 838 l 129 838 l 129 979 l -11 979 z m 76 0 l 213 0 l 213 708 l 76 708 z "},"ј":{"ha":289,"x_min":0,"x_max":0,"o":"m 43 -251 b 213 -37 143 -251 213 -189 l 213 708 l 76 708 l 76 -32 b 13 -135 76 -111 56 -135 b -42 -131 -8 -135 -19 -133 l -42 -243 b 43 -251 -7 -249 14 -251 z m 68 835 l 222 835 l 222 982 l 68 982 z "},"ћ":{"ha":756,"x_min":0,"x_max":0,"o":"m -7 811 l 76 811 l 76 0 l 213 0 l 213 435 b 404 613 213 542 288 613 b 549 454 507 613 549 549 l 549 0 l 685 0 l 685 492 b 449 729 685 654 579 729 b 215 619 326 729 253 674 l 213 619 l 213 811 l 431 811 l 431 904 l 213 904 l 213 993 l 76 993 l 76 904 l -7 904 z "},"ю":{"ha":982,"x_min":0,"x_max":0,"o":"m 632 -21 b 942 356 821 -21 942 124 b 633 731 942 586 821 731 b 325 411 461 731 343 610 l 213 411 l 213 708 l 76 708 l 76 0 l 213 0 l 213 299 l 325 299 b 632 -21 343 100 460 -21 z m 464 354 b 632 617 464 521 528 617 b 800 354 736 617 800 521 b 632 92 800 189 736 92 b 464 354 528 92 464 189 z "},"я":{"ha":685,"x_min":0,"x_max":0,"o":"m 26 6 l 26 0 l 176 0 b 329 258 204 36 163 258 l 472 258 l 472 0 l 608 0 l 608 708 l 307 708 b 51 492 138 708 51 615 b 194 317 51 397 114 335 l 194 315 b 26 6 28 286 67 46 z m 193 490 b 317 596 193 543 226 596 l 472 596 l 472 368 l 319 368 b 193 490 225 368 193 432 z "},"ђ":{"ha":756,"x_min":0,"x_max":0,"o":"m 508 -251 b 685 -37 610 -251 685 -189 l 685 492 b 449 729 685 654 579 729 b 215 619 326 729 253 674 l 213 619 l 213 811 l 431 811 l 431 904 l 213 904 l 213 993 l 76 993 l 76 904 l -7 904 l -7 811 l 76 811 l 76 0 l 213 0 l 213 435 b 404 613 213 542 288 613 b 549 454 507 613 549 549 l 549 -32 b 485 -135 549 -108 528 -135 b 411 -129 460 -135 433 -132 l 411 -240 b 508 -251 442 -247 472 -251 z "},"җ":{"ha":974,"x_min":0,"x_max":0,"o":"m 0 0 l 161 0 l 357 292 l 418 292 l 418 0 l 554 0 l 554 292 l 614 292 l 810 0 l 874 0 l 874 -181 l 996 -181 l 996 96 l 908 96 l 732 354 l 971 708 l 821 708 l 618 406 l 554 406 l 554 708 l 418 708 l 418 406 l 356 406 l 153 708 l 3 708 l 242 354 z "},"қ":{"ha":685,"x_min":0,"x_max":0,"o":"m 529 0 l 585 0 l 585 -181 l 707 -181 l 707 96 l 625 96 l 419 356 l 688 708 l 528 708 l 304 406 l 213 406 l 213 708 l 76 708 l 76 0 l 213 0 l 213 292 l 300 292 z "},"ң":{"ha":775,"x_min":0,"x_max":0,"o":"m 563 0 l 635 0 l 635 -181 l 757 -181 l 757 96 l 699 96 l 699 708 l 563 708 l 563 417 l 213 417 l 213 708 l 76 708 l 76 0 l 213 0 l 213 304 l 563 304 z "},"ү":{"ha":699,"x_min":0,"x_max":0,"o":"m 285 -246 l 421 -246 l 421 54 l 697 708 l 556 708 l 356 213 l 353 213 l 149 708 l -1 708 l 285 54 z "},"ұ":{"ha":699,"x_min":0,"x_max":0,"o":"m 107 -107 l 285 -107 l 285 -246 l 421 -246 l 421 -107 l 599 -107 l 599 -11 l 421 -11 l 421 54 l 697 708 l 556 708 l 356 213 l 353 213 l 149 708 l -1 708 l 285 54 l 285 -11 l 107 -11 z "},"ҳ":{"ha":676,"x_min":0,"x_max":0,"o":"m -11 0 l 147 0 l 335 271 l 338 271 l 529 0 l 583 0 l 583 -181 l 706 -181 l 706 96 l 618 96 l 419 363 l 663 708 l 507 708 l 340 456 l 338 456 l 168 708 l 13 708 l 256 363 z "},"ҷ":{"ha":701,"x_min":0,"x_max":0,"o":"m 489 0 l 549 0 l 549 -181 l 671 -181 l 671 96 l 625 96 l 625 708 l 489 708 l 489 422 b 326 324 460 378 411 324 b 182 500 235 324 182 371 l 182 708 l 44 708 l 44 460 b 281 208 44 272 160 208 b 486 308 374 208 447 256 l 489 308 z "},"һ":{"ha":756,"x_min":0,"x_max":0,"o":"m 549 454 l 549 0 l 685 0 l 685 492 b 449 729 685 654 579 729 b 215 619 326 729 253 674 l 213 619 l 213 993 l 76 993 l 76 0 l 213 0 l 213 435 b 404 613 213 542 288 613 b 549 454 507 613 549 549 z "},"ә":{"ha":742,"x_min":0,"x_max":0,"o":"m 371 -21 b 701 354 579 -21 701 139 b 368 729 701 575 583 729 b 49 503 203 729 78 647 l 189 503 b 367 617 203 572 265 617 b 557 404 469 617 544 544 l 44 404 b 40 347 42 381 40 364 b 371 -21 40 135 163 -21 z m 183 297 l 557 297 b 371 93 543 164 479 93 b 183 297 235 93 183 193 z "},"ӣ":{"ha":803,"x_min":0,"x_max":0,"o":"m 76 0 l 213 0 l 590 518 l 590 0 l 726 0 l 726 708 l 590 708 l 213 190 l 213 708 l 76 708 z m 221 835 l 588 835 l 588 942 l 221 942 z "},"ө":{"ha":786,"x_min":0,"x_max":0,"o":"m 393 -21 b 747 356 614 -21 747 133 b 394 731 747 576 614 731 b 39 354 172 731 39 575 b 393 -21 39 132 172 -21 z m 183 301 l 603 301 b 394 92 588 181 521 92 b 183 301 265 92 199 181 z m 183 408 b 394 617 199 529 265 617 b 603 408 521 617 588 529 z "},"ӯ":{"ha":701,"x_min":0,"x_max":0,"o":"m 168 -249 b 414 -17 278 -249 346 -192 l 694 708 l 551 708 l 357 167 l 354 167 l 147 708 l -1 708 l 285 7 b 139 -132 257 -104 193 -132 b 81 -128 117 -132 104 -131 l 81 -239 b 168 -249 117 -246 138 -249 z m 164 835 l 531 835 l 531 942 l 164 942 z "},"᎚":{"ha":911,"x_min":0,"x_max":0,"o":""}}}
